SplineFontDB: 3.0
FontName: SlipstickSansMono-Bold
FullName: Slipstick Sans Mono Bold
FamilyName: Slipstick Sans Mono
Weight: Bold
Copyright: (c) 2016, Jan Stanik\n(c) 2007, Google Corporation
Version: 1.00 build 1
ItalicAngle: 0
UnderlinePosition: -103
UnderlineWidth: 102
Ascent: 1638
Descent: 410
InvalidEm: 0
sfntRevision: 0x00010000
LayerCount: 2
Layer: 0 1 "Back" 1
Layer: 1 1 "Fore" 0
XUID: [1021 834 1336795918 12199709]
FSType: 8
OS2Version: 3
OS2_WeightWidthSlopeOnly: 0
OS2_UseTypoMetrics: 1
CreationTime: 1168259284
ModificationTime: 1463131408
PfmFamily: 17
TTFWeight: 700
TTFWidth: 5
LineGap: 0
VLineGap: 0
Panose: 2 11 6 9 3 8 4 2 2 4
OS2TypoAscent: -71
OS2TypoAOffset: 1
OS2TypoDescent: -82
OS2TypoDOffset: 1
OS2TypoLinegap: 132
OS2WinAscent: 0
OS2WinAOffset: 1
OS2WinDescent: 0
OS2WinDOffset: 1
HheadAscent: 0
HheadAOffset: 1
HheadDescent: 0
HheadDOffset: 1
OS2SubXSize: 1434
OS2SubYSize: 1331
OS2SubXOff: 0
OS2SubYOff: 286
OS2SupXSize: 1434
OS2SupYSize: 1331
OS2SupXOff: 0
OS2SupYOff: 976
OS2StrikeYSize: 102
OS2StrikeYPos: 498
OS2Vendor: '1ASC'
OS2CodePages: 2000019f.00000000
OS2UnicodeRanges: e00002ef.4000205b.00000028.00000000
MarkAttachClasses: 1
DEI: 91125
TtTable: prep
NPUSHB
 21
 248
 3
 255
 31
 241
 111
 26
 31
 47
 239
 111
 239
 2
 230
 228
 51
 31
 229
 228
 25
 31
PUSHW_1
 256
NPUSHB
 16
 51
 255
 85
 223
 51
 221
 85
 222
 51
 3
 85
 176
 255
 208
 255
 2
PUSHW_1
 -64
NPUSHB
 104
 255
 9
 17
 70
 0
 221
 32
 221
 112
 221
 3
 221
 1
 3
 85
 220
 3
 255
 31
 214
 213
 51
 31
 211
 210
 25
 31
 135
 210
 1
 254
 194
 25
 31
 6
 186
 22
 186
 230
 186
 246
 186
 4
 15
 178
 31
 178
 47
 178
 3
 64
 178
 15
 19
 70
 167
 177
 1
 175
 83
 25
 31
 174
 173
 25
 31
 172
 74
 25
 31
 171
 170
 25
 31
 169
 3
 255
 31
 158
 157
 25
 31
 31
 157
 1
 112
 156
 128
 156
 144
 156
 208
 156
 224
 156
 240
 156
 6
 15
 153
 1
 151
 152
 1
PUSHW_1
 -8
NPUSHB
 56
 152
 9
 15
 70
 32
 151
 128
 151
 144
 151
 240
 151
 4
 169
 150
 185
 150
 2
 56
 150
 1
 240
 149

StartChar: .notdef
Encoding: 65536 -1 0
Width: 1229
Flags: W
LayerCount: 2
Fore
SplineSet
142 1513 m 1
 1085 1513 l 1
 1085 -51 l 1
 142 -51 l 1
 142 1513 l 1
348 155 m 1
 879 155 l 1
 879 1307 l 1
 348 1307 l 1
 348 155 l 1
EndSplineSet
EndChar

StartChar: exclam
Encoding: 33 33 4
Width: 1229
Flags: W
LayerCount: 2
Fore
SplineSet
724.578483078 363 m 1
 506.421516922 363 l 1
 450.457776464 1513 l 1
 780.542223536 1513 l 1
 724.578483078 363 l 1
614 301 m 0
 697 301 697 301 744.5 249 c 0
 792 197 792 197 792 111 c 0
 792 25 792 25 744.5 -27.5 c 0
 697 -80 697 -80 614 -80 c 0
 531 -80 531 -80 483.5 -27.5 c 0
 436 25 436 25 436 111 c 0
 436 197 436 197 483.5 249 c 0
 531 301 531 301 614 301 c 0
EndSplineSet
EndChar

StartChar: quotedbl
Encoding: 34 34 5
Width: 1229
Flags: W
LayerCount: 2
Fore
SplineSet
577.113755011 1513 m 1
 528.193300465 883 l 1
 278.806699535 883 l 1
 229.886244989 1513 l 1
 577.113755011 1513 l 1
999.113755011 1513 m 1
 950.193300465 883 l 1
 700.806699535 883 l 1
 651.886244989 1513 l 1
 999.113755011 1513 l 1
EndSplineSet
EndChar

StartChar: numbersign
Encoding: 35 35 6
Width: 1229
Flags: W
LayerCount: 2
Fore
SplineSet
978.010562307 842 m 1
 933.913001331 616 l 1
 1163 616 l 1
 1163 377 l 1
 888.156546419 377 l 1
 806.156546419 -51 l 1
 554.01770929 -51 l 1
 638.01770929 377 l 1
 452.156546419 377 l 1
 370.156546419 -51 l 1
 122.8656062 -51 l 1
 200.8656062 377 l 1
 -6 377 l 1
 -6 616 l 1
 247.114923997 616 l 1
 291.901509363 842 l 1
 70 842 l 1
 70 1081 l 1
 336.769928938 1081 l 1
 418.769928938 1513 l 1
 669.591182173 1513 l 1
 587.591182173 1081 l 1
 776.961491007 1081 l 1
 860.961491007 1513 l 1
 1108.87184233 1513 l 1
 1024.87184233 1081 l 1
 1235 1081 l 1
 1235 842 l 1
 978.010562307 842 l 1
497.913001331 616 m 1
 684.989437693 616 l 1
 729.086998669 842 l 1
 542.010562307 842 l 1
 497.913001331 616 l 1
EndSplineSet
EndChar

StartChar: dollar
Encoding: 36 36 7
Width: 1433
Flags: W
LayerCount: 2
Fore
SplineSet
974.209689266 128.690429688 m 0,0,1
 922.383899848 114.765625 922.383899848 114.765625 863.337622757 105.528320312 c 1,2,-1
 863.337622757 -119 l 1,3,-1
 572.741788012 -119 l 1,4,-1
 572.741788012 90.1328125 l 1,5,6
 341.734375 97.0009765625 341.734375 97.0009765625 209.794921875 160.541992188 c 2,7,-1
 182 173.927734375 l 1,8,-1
 182 441.127929688 l 1,9,-1
 254.669921875 408.977539062 l 2,10,11
 332.811523438 374.40625 332.811523438 374.40625 406.506835938 354.362304688 c 0,12,13
 491.524659774 334.318359375 491.524659774 334.318359375 572.741788012 328.91015625 c 1,14,-1
 572.741788012 653.546875 l 1,15,16
 369.208007812 713.852539062 369.208007812 713.852539062 290.541992188 791.82421875 c 0,17,18
 199 882.559570312 199 882.559570312 199 1031.8359375 c 0,19,20
 199 1078.91210938 199 1078.91210938 211.138671875 1121.76269531 c 128,-1,21
 223.27734375 1164.61328125 223.27734375 1164.61328125 247.443359375 1202.38085938 c 128,-1,22
 271.609375 1240.1484375 271.609375 1240.1484375 307.172851562 1271.48144531 c 0,23,24
 337.764648438 1298.43457031 337.764648438 1298.43457031 375.657226562 1319.44433594 c 128,-1,25
 413.55078125 1340.45507812 413.55078125 1340.45507812 462.341113314 1354.77929688 c 0,26,27
 514.19777474 1369.10449219 514.19777474 1369.10449219 572.741788012 1377.53710938 c 1,28,-1
 572.741788012 1554 l 1,29,-1
 863.337622757 1554 l 1,30,-1
 863.337622757 1384.89257812 l 1,31,32
 1056.14355469 1370.50488281 1056.14355469 1370.50488281 1194.43066406 1310.14550781 c 2,33,-1
 1240.40820312 1290.078125 l 1,34,-1
 1132.50488281 1066.640625 l 1,35,-1
 1086.34863281 1085.90722656 l 2,36,37
 1035.25292969 1107.234375 1035.25292969 1107.234375 981.4883588 1121.72167969 c 0,38,39
 920.596885549 1136.20898438 920.596885549 1136.20898438 863.337622757 1143.52539062 c 1,40,-1
 863.337622757 833.959960938 l 1,41,42
 936.991109081 813.055664062 936.991109081 813.055664062 995.638424841 791.487304688 c 0,43,44
 1045.04492188 769.918945312 1045.04492188 769.918945312 1084.52929688 745.411132812 c 128,-1,45
 1124.01367188 720.903320312 1124.01367188 720.903320312 1152.5625 693.995117188 c 0,46,47
 1248 604.041992188 1248 604.041992188 1248 461.6015625 c 0,48,49
 1248 420.662109375 1248 420.662109375 1239.93066406 383.608398438 c 128,-1,50
 1231.86132812 346.555664062 1231.86132812 346.555664062 1216.2109375 314.419921875 c 128,-1,51
 1200.56054688 282.28515625 1200.56054688 282.28515625 1177.55078125 254.296875 c 128,-1,52
 1154.54101562 226.307617188 1154.54101562 226.307617188 1124.68359375 203.170898438 c 128,-1,53
 1094.82519531 180.033203125 1094.82519531 180.033203125 1058.31738281 161.32421875 c 128,-1,54
 1021.80957031 142.615234375 1021.80957031 142.615234375 974.209689266 128.690429688 c 0,0,1
520.004086979 962.966796875 m 0,55,56
 538.902505298 946.463867188 538.902505298 946.463867188 572.741788012 931.130859375 c 1,57,-1
 572.741788012 1156.1953125 l 1,58,59
 526.548952634 1139.92480469 526.548952634 1139.92480469 507.090088635 1115.4375 c 128,-1,60
 487.63003725 1090.95019531 487.63003725 1090.95019531 487.63003725 1049 c 0,61,62
 487.63003725 991.236328125 487.63003725 991.236328125 520.004086979 962.966796875 c 0,55,56
922.458705097 523.346679688 m 128,-1,64
 900.102621903 541.42578125 900.102621903 541.42578125 863.337622757 557.989257812 c 1,65,-1
 863.337622757 327.059570312 l 1,66,67
 917.439629058 343.948242188 917.439629058 343.948242188 940.239794211 371.204101562 c 128,-1,68
 963.039959363 398.459960938 963.039959363 398.459960938 963.039959363 446 c 0,69,70
 963.039959363 468.346679688 963.039959363 468.346679688 953.926780135 486.807617188 c 128,-1,63
 944.814788291 505.267578125 944.814788291 505.267578125 922.458705097 523.346679688 c 128,-1,64
EndSplineSet
EndChar

StartChar: percent
Encoding: 37 37 8
Width: 1433
Flags: W
LayerCount: 2
Fore
SplineSet
997.594200249 234.509765625 m 128,-1,1
 1024.64698824 202 1024.64698824 202 1074.14783436 202 c 0,2,3
 1122.49749801 202 1122.49749801 202 1148.97469477 234.509765625 c 128,-1,4
 1175.45189153 267.01953125 1175.45189153 267.01953125 1175.45189153 355.138671875 c 0,5,6
 1175.45189153 441.546875 1175.45189153 441.546875 1148.97469477 472.7734375 c 128,-1,7
 1122.49749801 504 1122.49749801 504 1074.14783436 504 c 0,8,9
 1023.49580577 504 1023.49580577 504 997.018609015 472.345703125 c 128,-1,10
 970.541412255 440.69140625 970.541412255 440.69140625 970.541412255 355.138671875 c 0,11,0
 970.541412255 267.01953125 970.541412255 267.01953125 997.594200249 234.509765625 c 128,-1,1
1342.55957031 86.5498046875 m 0,12,13
 1248.7734375 -18 1248.7734375 -18 1071.84546942 -18 c 128,-1,14
 895.080502127 -18 895.080502127 -18 784.828924194 94.427734375 c 0,15,16
 678.141065424 203.22265625 678.141065424 203.22265625 678.141065424 381 c 0,17,18
 678.141065424 434.900390625 678.141065424 434.900390625 687.272955254 482.067382812 c 1,19,-1
 410.55859375 -0 l 1,20,-1
 138.581054688 0 l 1,21,-1
 611.027168651 817.120117188 l 1,22,23
 568.652068003 781.780273438 568.652068003 781.780273438 515.045501196 761.135742188 c 0,24,25
 441.984567409 733 441.984567409 733 353.693524563 733 c 0,26,27
 268.953180233 733 268.953180233 733 202.747070312 759.701171875 c 0,28,29
 139.053710938 786.403320312 139.053710938 786.403320312 92.0751953125 838.345703125 c 0,30,31
 0 940.149414062 0 940.149414062 0 1107.40429688 c 0,32,33
 0 1278.73925781 0 1278.73925781 91.48828125 1377.38085938 c 0,34,35
 185.737304688 1479 185.737304688 1479 358.179539715 1479 c 0,36,37
 528.886873142 1479 528.886873142 1479 636.82613665 1368.49609375 c 0,38,39
 741.733835231 1261.09570312 741.733835231 1261.09570312 741.733835231 1082 c 0,40,41
 741.733835231 1030.75976562 741.733835231 1030.75976562 733.512029629 985.150390625 c 1,42,-1
 1000.17474527 1462 l 1,43,-1
 1292.41894531 1462 l 1,44,-1
 817.147298449 640.26171875 l 1,45,46
 918.653248235 727 918.653248235 727 1079.30647544 727 c 0,47,48
 1162.83331762 727 1162.83331762 727 1228.75097656 700.7734375 c 0,49,50
 1292.02539062 674.546875 1292.02539062 674.546875 1339.45800781 623.576171875 c 128,-1,51
 1386.72558594 572.782226562 1386.72558594 572.782226562 1409.86328125 505.143554688 c 128,-1,52
 1433 437.50390625 1433 437.50390625 1433 355.435546875 c 0,53,54
 1433 187.370117188 1433 187.370117188 1342.55957031 86.5498046875 c 0,12,13
281.356530233 986.509765625 m 128,-1,56
 307.711869252 954 307.711869252 954 355.936532139 954 c 0,57,58
 403.039691237 954 403.039691237 954 428.834278363 986.509765625 c 128,-1,59
 454.628865488 1019.01953125 454.628865488 1019.01953125 454.628865488 1107.13867188 c 0,60,61
 454.628865488 1193.546875 454.628865488 1193.546875 428.834278363 1224.7734375 c 128,-1,62
 403.039691237 1256 403.039691237 1256 355.936532139 1256 c 0,63,64
 306.590365464 1256 306.590365464 1256 280.795778339 1224.34570312 c 128,-1,65
 255.001191214 1192.69140625 255.001191214 1192.69140625 255.001191214 1107.13867188 c 0,66,55
 255.001191214 1019.01953125 255.001191214 1019.01953125 281.356530233 986.509765625 c 128,-1,56
EndSplineSet
EndChar

StartChar: ampersand
Encoding: 38 38 9
Width: 1229
Flags: W
LayerCount: 2
Fore
SplineSet
678.192542162 762.820621635 m 1
 874.05824061 520.253849181 l 1
 914.895750782 606.99939352 914.895750782 606.99939352 937.271595469 705.317498962 c 2
 946.30278536 745 l 1
 1234.84307985 745 l 1
 1220.74011431 682.734076673 l 2
 1170.34480101 460.234014182 1170.34480101 460.234014182 1056.87463557 292.950964563 c 1
 1333.45376172 -51 l 1
 985.279149453 -51 l 1
 874.296772 89.634157689 l 1
 786.814855239 9.77336496517 786.814855239 9.77336496517 684.464544446 -30.6133175174 c 0
 582.114233653 -71 582.114233653 -71 467 -71 c 0
 257.082753856 -71 257.082753856 -71 133.689436352 50.6874191051 c 0
 10 172.66686325 10 172.66686325 10 381 c 0
 10 527.143434059 10 527.143434059 81.7644283994 637.332910735 c 0
 141.645077276 729.275639326 141.645077276 729.275639326 284.06539993 821.924487598 c 1
 146 1002.92225572 146 1002.92225572 146 1165 c 0
 146 1335.70464635 146 1335.70464635 258.371837708 1436.89813371 c 0
 368.421003183 1536 368.421003183 1536 567 1536 c 0
 754.959966003 1536 754.959966003 1536 862.117501747 1436.95168318 c 0
 971 1336.30894155 971 1336.30894155 971 1165 c 0
 971 950.449774698 971 950.449774698 678.192542162 762.820621635 c 1
518.779152144 963.202073482 m 1
 615.469117627 1023.85306745 615.469117627 1023.85306745 652.293722855 1068.11698687 c 0
 671.783268243 1091.54381415 671.783268243 1091.54381415 680.891634122 1116.10769905 c 0
 690 1140.67158394 690 1140.67158394 690 1169 c 0
 690 1196.62104032 690 1196.62104032 681.924076819 1216.20152244 c 0
 673.848153638 1235.78200455 673.848153638 1235.78200455 656.782522304 1251.64097509 c 0
 639.494808385 1267.7063254 639.494808385 1267.7063254 616.379254758 1275.8531627 c 0
 593.263701131 1284 593.263701131 1284 561 1284 c 0
 525.322867711 1284 525.322867711 1284 500.398384119 1275.87299509 c 0
 475.473900527 1267.74599018 475.473900527 1267.74599018 458.596030168 1252.57295521 c 0
 442.383104231 1237.99769856 442.383104231 1237.99769856 434.191552115 1217.22667376 c 0
 426 1196.45564896 426 1196.45564896 426 1165 c 0
 426 1078.83540455 426 1078.83540455 518.779152144 963.202073482 c 1
709.231085242 291.074424529 m 1
 444.241097567 620.055802416 l 1
 303 519.845958576 303 519.845958576 303 387 c 0
 303 357.707653299 303 357.707653299 308.89793172 332.713053382 c 0
 314.795863441 307.718453466 314.795863441 307.718453466 326.437087822 286.588118155 c 0
 338.078312204 265.457782845 338.078312204 265.457782845 355.968424399 246.63311255 c 0
 407.889254766 192 407.889254766 192 479 192 c 0
 599.64390557 192 599.64390557 192 709.231085242 291.074424529 c 1
EndSplineSet
EndChar

StartChar: quotesingle
Encoding: 39 39 10
Width: 1229
Flags: W
LayerCount: 2
Fore
SplineSet
788.113755011 1513 m 1
 739.193300465 883 l 1
 489.806699535 883 l 1
 440.886244989 1513 l 1
 788.113755011 1513 l 1
EndSplineSet
EndChar

StartChar: parenleft
Encoding: 40 40 11
Width: 1229
Flags: W
LayerCount: 2
Fore
SplineSet
720.805448278 1513 m 1
 1072.33713165 1513 l 1
 964.743531852 1422.89934627 l 2
 534 1062.18761359 534 1062.18761359 534 569 c 0
 534 71.9076631117 534 71.9076631117 962.623519271 -284.799158295 c 2
 1071.01001455 -375 l 1
 721.196852871 -375 l 1
 707.261311409 -363.920616811 l 2
 244 4.39299338638 244 4.39299338638 244 567 c 0
 244 844.140702516 244 844.140702516 360.439179132 1078.85691243 c 0
 476.878358263 1313.57312235 476.878358263 1313.57312235 706.719402606 1501.4837059 c 2
 720.805448278 1513 l 1
EndSplineSet
EndChar

StartChar: parenright
Encoding: 41 41 12
Width: 1229
Flags: W
LayerCount: 2
Fore
SplineSet
506.692790706 -375 m 1
 157.94096555 -375 l 1
 266.385196086 -284.791906885 l 2
 694 70.9145779843 694 70.9145779843 694 569 c 0
 694 1063.18098662 694 1063.18098662 264.264811232 1422.89236115 c 2
 156.616218687 1513 l 1
 507.085198157 1513 l 1
 521.130058259 1501.6063045 l 2
 985 1125.29832929 985 1125.29832929 985 567 c 0
 985 2.27152912891 985 2.27152912891 520.584350295 -364.042837268 c 2
 506.692790706 -375 l 1
EndSplineSet
EndChar

StartChar: asterisk
Encoding: 42 42 13
Width: 1229
Flags: W
LayerCount: 2
Fore
SplineSet
771.88451997 1607 m 1
 730.900412412 1232.4243193 l 1
 1111.42871562 1338.81888266 l 1
 1154.05082583 1034.14972444 l 1
 814.069121571 1009.0323426 l 1
 1039.57216705 710.194973382 l 1
 761.542243459 561.083952906 l 1
 610.639409079 868.034036473 l 1
 475.83832042 560.653210104 l 1
 189.355457121 709.314587816 l 1
 411.849008856 1009.03730627 l 1
 74.4003847934 1034.2334702 l 1
 120.177514454 1338.8881607 l 1
 494.064350094 1232.7463736 l 1
 453.11548003 1607 l 1
 771.88451997 1607 l 1
EndSplineSet
EndChar

StartChar: plus
Encoding: 43 43 14
Width: 1229
Flags: W
LayerCount: 2
Fore
SplineSet
488 596 m 1
 101 596 l 1
 101 848 l 1
 488 848 l 1
 488 1237 l 1
 739 1237 l 1
 739 848 l 1
 1126 848 l 1
 1126 596 l 1
 739 596 l 1
 739 211 l 1
 488 211 l 1
 488 596 l 1
EndSplineSet
EndChar

StartChar: comma
Encoding: 44 44 15
Width: 1229
Flags: W
LayerCount: 2
Fore
SplineSet
797.294371683 313 m 1
 841.0201344 247.411355924 l 1
 835.424914763 225.423124368 l 2
 815.937289215 148.840174847 815.937289215 148.840174847 787.479152488 63.6917225144 c 0
 759.021015761 -21.456729818 759.021015761 -21.456729818 721.843898722 -114.648558753 c 0
 684.666781683 -207.840387688 684.666781683 -207.840387688 638.470617056 -310.011467118 c 2
 624.911445423 -340 l 1
 375.60725241 -340 l 1
 390.355724415 -277.31899398 l 2
 428.141956533 -116.72750748 428.141956533 -116.72750748 455.712775122 20.1343631074 c 0
 483.283593711 156.996233695 483.283593711 156.996233695 500.590490154 269.73830195 c 2
 507.231540293 313 l 1
 797.294371683 313 l 1
EndSplineSet
EndChar

StartChar: hyphen
Encoding: 45 45 16
Width: 1229
Flags: W
LayerCount: 2
Fore
SplineSet
234 414 m 1
 234 684 l 1
 995 684 l 1
 995 414 l 1
 234 414 l 1
EndSplineSet
EndChar

StartChar: period
Encoding: 46 46 17
Width: 1229
Flags: W
LayerCount: 2
Fore
SplineSet
614 352 m 0
 710 352 710 352 763.5 293.5 c 0
 817 235 817 235 817 135 c 0
 817 35 817 35 763.5 -23.5 c 0
 710 -82 710 -82 614 -82 c 0
 519 -82 519 -82 465.5 -23 c 0
 412 36 412 36 412 135 c 0
 412 234 412 234 465.5 293 c 0
 519 352 519 352 614 352 c 0
EndSplineSet
EndChar

StartChar: slash
Encoding: 47 47 18
Width: 1229
Flags: W
LayerCount: 2
Fore
SplineSet
1093.3643308 1513 m 1
 422.620144751 -51 l 1
 133.635669202 -51 l 1
 804.379855249 1513 l 1
 1093.3643308 1513 l 1
EndSplineSet
EndChar

StartChar: zero
Encoding: 48 48 19
Width: 1433
Flags: W
LayerCount: 2
Fore
SplineSet
1155.5 174.592773438 m 0,0,1
 1023.51968851 -20 1023.51968851 -20 713.625330591 -20 c 0,2,3
 653.659130472 -20 653.659130472 -20 598.478213875 -11.0771484375 c 128,-1,4
 543.297297278 -2.154296875 543.297297278 -2.154296875 493.688969148 15.546875 c 0,5,6
 444.080641019 32.099609375 444.080641019 32.099609375 400.237379443 56.587890625 c 0,7,8
 362.130859375 81.0751953125 362.130859375 81.0751953125 330.346679688 113.577148438 c 128,-1,9
 298.561523438 146.080078125 298.561523438 146.080078125 272.458007812 186.107421875 c 0,10,11
 147 378.483398438 147 378.483398438 147 734.12109375 c 0,12,13
 147 1096.93652344 147 1096.93652344 275 1290.96875 c 0,14,15
 404.918307376 1485 404.918307376 1485 713.625330591 1485 c 0,16,17
 814.670528675 1485 814.670528675 1485 901.545397243 1460.40820312 c 0,18,19
 988.42026581 1437.40234375 988.42026581 1437.40234375 1055.85351562 1391.89453125 c 0,20,21
 1115.26855469 1346.38769531 1115.26855469 1346.38769531 1158.9921875 1279.59277344 c 0,22,23
 1285 1087.09667969 1285 1087.09667969 1285 732.174804688 c 0,24,25
 1285 369.185546875 1285 369.185546875 1155.5 174.592773438 c 0,0,1
631.335150912 247.284179688 m 128,-1,27
 667.121001489 237 667.121001489 237 713.625330591 237 c 0,28,29
 761.050307891 237 761.050307891 237 797.657089103 247.415039062 c 128,-1,30
 834.262710809 257.830078125 834.262710809 257.830078125 863.453288143 280.224609375 c 128,-1,31
 892.643865477 302.618164062 892.643865477 302.618164062 915.736597878 338.521484375 c 0,32,33
 991.461651484 456.256835938 991.461651484 456.256835938 991.461651484 732.90625 c 0,34,35
 991.461651484 1007.74316406 991.461651484 1007.74316406 915.736597878 1125.47851562 c 0,36,37
 881.359547757 1178.92675781 881.359547757 1178.92675781 832.961744463 1202.96289062 c 128,-1,38
 784.563941169 1227 784.563941169 1227 713.625330591 1227 c 0,39,40
 696.246646456 1227 696.246646456 1227 680.549246816 1225.609375 c 128,-1,41
 664.853006682 1224.21875 664.853006682 1224.21875 650.250181222 1221.32617188 c 128,-1,42
 635.648515269 1218.43359375 635.648515269 1218.43359375 622.490434968 1214.01464844 c 128,-1,43
 609.332354666 1209.59667969 609.332354666 1209.59667969 597.143621839 1203.50878906 c 128,-1,44
 584.956048518 1197.41992188 584.956048518 1197.41992188 573.96624546 1189.67382812 c 128,-1,45
 562.975282896 1181.92675781 562.975282896 1181.92675781 552.831919618 1172.34277344 c 128,-1,46
 542.687396834 1162.75878906 542.687396834 1162.75878906 533.494828925 1151.3828125 c 128,-1,47
 524.303420523 1140.00585938 524.303420523 1140.00585938 515.825108647 1126.62792969 c 0,48,49
 480.453201908 1070.81054688 480.453201908 1070.81054688 461.089442564 971.083007812 c 128,-1,50
 441.725683221 871.356445312 441.725683221 871.356445312 441.725683221 732.90625 c 0,51,52
 441.725683221 455.173828125 441.725683221 455.173828125 515.862212857 337.767578125 c 0,53,54
 538.426210272 302.033203125 538.426210272 302.033203125 566.988335057 279.80078125 c 128,-1,26
 595.549300336 257.567382812 595.549300336 257.567382812 631.335150912 247.284179688 c 128,-1,27
EndSplineSet
EndChar

StartChar: one
Encoding: 49 49 20
Width: 1433
Flags: W
LayerCount: 2
Fore
SplineSet
982.782226562 1462 m 1,0,-1
 982.782226562 0 l 1,1,-1
 684.762529589 0 l 1,2,-1
 684.762529589 901.130859375 l 2,3,4
 684.762529589 942.185546875 684.762529589 942.185546875 686.483214861 998.579101562 c 128,-1,5
 688.203900133 1054.97265625 688.203900133 1054.97265625 691.521799241 1123.48242188 c 1,6,7
 677.463468145 1116.33984375 677.463468145 1116.33984375 665.113158583 1110.16796875 c 128,-1,8
 652.762849022 1103.99609375 652.762849022 1103.99609375 637.373242567 1096.41992188 c 2,9,-1
 385.984375 952.1015625 l 1,10,-1
 225 1142.92382812 l 1,11,-1
 764.232421875 1462 l 1,12,-1
 982.782226562 1462 l 1,0,-1
EndSplineSet
EndChar

StartChar: two
Encoding: 50 50 21
Width: 1433
Flags: W
LayerCount: 2
Fore
SplineSet
1279.19433594 250.752929688 m 1,0,-1
 1279.19433594 0 l 1,1,-1
 164.194335938 0 l 1,2,-1
 164.194335938 209.45703125 l 1,3,-1
 551.54609248 574.696289062 l 2,4,5
 779.960693087 767.731445312 779.960693087 767.731445312 850.738361256 860.029296875 c 0,6,7
 916.20444138 945.400390625 916.20444138 945.400390625 916.20444138 1048.8125 c 0,8,9
 916.20444138 1066.90722656 916.20444138 1066.90722656 913.696644655 1083.02050781 c 128,-1,10
 911.190013263 1099.13378906 911.190013263 1099.13378906 906.409817089 1112.92285156 c 128,-1,11
 901.629620915 1126.71191406 901.629620915 1126.71191406 894.43485466 1138.93066406 c 128,-1,12
 887.238923071 1151.14941406 887.238923071 1151.14941406 878.13184528 1161.43261719 c 128,-1,13
 869.023602155 1171.71484375 869.023602155 1171.71484375 857.592850261 1180.83789062 c 0,14,15
 828.658795944 1203.9296875 828.658795944 1203.9296875 789.616642746 1215.46484375 c 128,-1,16
 750.574489547 1227 750.574489547 1227 696.637049294 1227 c 0,17,18
 528.418892756 1227 528.418892756 1227 364.604492188 1102.46777344 c 2,19,-1
 325.852539062 1068.86621094 l 1,20,-1
 158 1264.69335938 l 1,21,-1
 195.1640625 1297.98632812 l 2,22,23
 401.69140625 1483 401.69140625 1483 699.023651382 1483 c 0,24,25
 954.755989364 1483 954.755989364 1483 1094.25097656 1370.76074219 c 0,26,27
 1222.19433594 1257.46386719 1222.19433594 1257.46386719 1222.19433594 1069.44433594 c 0,28,29
 1222.19433594 947.40625 1222.19433594 947.40625 1158.31445312 820.778320312 c 0,30,31
 1136.39453125 777.326171875 1136.39453125 777.326171875 1095.3828125 722.436523438 c 128,-1,32
 1054.37207031 667.546875 1054.37207031 667.546875 988.978325065 602.715820312 c 0,33,34
 919.538459238 537.884765625 919.538459238 537.884765625 824.646554251 457.709960938 c 2,35,-1
 576.58909974 250.752929688 l 1,36,-1
 1279.19433594 250.752929688 l 1,0,-1
EndSplineSet
EndChar

StartChar: three
Encoding: 51 51 22
Width: 1433
Flags: W
LayerCount: 2
Fore
SplineSet
1132.328125 847.405273438 m 0,0,1
 1089.85253906 802.293945312 1089.85253906 802.293945312 1031.00195312 771.635742188 c 1,2,3
 1149.10449219 728.006835938 1149.10449219 728.006835938 1210.58984375 642.099609375 c 128,-1,4
 1272.07421875 556.192382812 1272.07421875 556.192382812 1272.07421875 436.05078125 c 0,5,6
 1272.07421875 223.767578125 1272.07421875 223.767578125 1115.97265625 100.361328125 c 0,7,8
 952.062917075 -20 952.062917075 -20 620.320751414 -20 c 0,9,10
 327.08203125 -20 327.08203125 -20 170.673828125 65.2158203125 c 2,11,-1
 144.07421875 79.7080078125 l 1,12,-1
 144.07421875 364.1328125 l 1,13,-1
 218.665039062 325.215820312 l 2,14,15
 394.338488628 235 394.338488628 235 615.575619724 235 c 0,16,17
 807.753453141 235 807.753453141 235 891.386399165 285.91015625 c 128,-1,18
 975.019345189 336.8203125 975.019345189 336.8203125 975.019345189 445.723632812 c 0,19,20
 975.019345189 537.8046875 975.019345189 537.8046875 884.861843092 583.40234375 c 128,-1,21
 794.704340995 629 794.704340995 629 583.545980822 629 c 2,22,-1
 367.07421875 629 l 1,23,-1
 367.07421875 882 l 1,24,-1
 583.545980822 882 l 2,25,26
 685.552410388 882 685.552410388 882 757.87628035 902.59765625 c 0,27,28
 804.053269885 915.75 804.053269885 915.75 838.199450682 937.407226562 c 0,29,30
 921.636613684 990.328125 921.636613684 990.328125 921.636613684 1078.89355469 c 0,31,32
 921.636613684 1147.59570312 921.636613684 1147.59570312 861.629696877 1186.15625 c 0,33,34
 798.0697237 1227 798.0697237 1227 685.566312141 1227 c 0,35,36
 494.117162278 1227 494.117162278 1227 323.115234375 1115.78710938 c 2,37,-1
 282.091796875 1085.88378906 l 1,38,-1
 131 1291.17089844 l 1,39,-1
 169.163085938 1321.78320312 l 2,40,41
 370.146484375 1483 370.146484375 1483 685.566312141 1483 c 0,42,43
 952.321257984 1483 952.321257984 1483 1093.76464844 1378.79394531 c 0,44,45
 1227.07421875 1271.79003906 1227.07421875 1271.79003906 1227.07421875 1095.31054688 c 0,46,47
 1227.07421875 948.032226562 1227.07421875 948.032226562 1132.328125 847.405273438 c 0,0,1
EndSplineSet
EndChar

StartChar: four
Encoding: 52 52 23
Width: 1433
Flags: W
LayerCount: 2
Fore
SplineSet
1330 545 m 1,0,-1
 1330 277 l 1,1,-1
 1117 277 l 1,2,-1
 1117 0 l 1,3,-1
 839 0 l 1,4,-1
 839 277 l 1,5,-1
 61 277 l 1,6,-1
 61 493.361328125 l 1,7,-1
 815.669735202 1470 l 1,8,-1
 1117 1470 l 1,9,-1
 1117 545 l 1,10,-1
 1330 545 l 1,0,-1
406.065339803 545 m 1,11,-1
 839 545 l 1,12,-1
 801.967845088 850 l 2,13,14
 801.967845088 882.3515625 801.967845088 882.3515625 802.478153383 917.6640625 c 128,-1,15
 802.98733765 952.9765625 802.98733765 952.9765625 803.99221786 990.666992188 c 128,-1,16
 804.995974043 1028.35839844 804.995974043 1028.35839844 806.489806034 1068.52246094 c 1,17,-1
 406.065339803 545 l 1,11,-1
EndSplineSet
EndChar

StartChar: five
Encoding: 53 53 24
Width: 1433
Flags: W
LayerCount: 2
Fore
SplineSet
196.809570312 66.23828125 m 2,0,-1
 172 81.0869140625 l 1,1,-1
 172 377.293945312 l 1,2,-1
 251.290039062 324.434570312 l 2,3,4
 382.44140625 237 382.44140625 237 617.154332496 237 c 0,5,6
 799.365323823 237 799.365323823 237 880.213909378 293.200195312 c 128,-1,7
 961.062494934 349.401367188 961.062494934 349.401367188 961.062494934 473.4921875 c 0,8,9
 961.062494934 586.79296875 961.062494934 586.79296875 878.403866418 639.396484375 c 128,-1,10
 795.745237902 692 795.745237902 692 607.500770041 692 c 0,11,12
 574.427419963 692 574.427419963 692 533.851111858 689.264648438 c 128,-1,13
 493.274803753 686.530273438 493.274803753 686.530273438 444.318798064 680.89453125 c 0,14,15
 399.19921875 675.258789062 399.19921875 675.258789062 353.185546875 666.833984375 c 2,16,-1
 333.564453125 663.241210938 l 1,17,-1
 200.708984375 743.942382812 l 1,18,-1
 261.9140625 1462 l 1,19,-1
 1152 1462 l 1,20,-1
 1152 1194 l 1,21,-1
 533.257191512 1194 l 1,22,-1
 498.746177103 937.734375 l 1,23,24
 522.174213621 940.310546875 522.174213621 940.310546875 545.279364871 942.235351562 c 128,-1,25
 568.385694535 944.16015625 568.385694535 944.16015625 591.299942817 945.442382812 c 128,-1,26
 614.215369512 946.723632812 614.215369512 946.723632812 636.938714826 947.362304688 c 128,-1,27
 659.660881726 948 659.660881726 948 682.315879063 948 c 0,28,29
 959.027375017 948 959.027375017 948 1112.28125 827.078125 c 0,30,31
 1259 703.846679688 1259 703.846679688 1259 492.973632812 c 0,32,33
 1259 373.446289062 1259 373.446289062 1220.52050781 277.694335938 c 128,-1,34
 1182.04199219 181.942382812 1182.04199219 181.942382812 1104.609375 113.981445312 c 0,35,36
 939.285415569 -20 939.285415569 -20 612.327551269 -20 c 0,37,38
 340.904296875 -20 340.904296875 -20 196.809570312 66.23828125 c 2,0,-1
EndSplineSet
EndChar

StartChar: six
Encoding: 54 54 25
Width: 1433
Flags: W
LayerCount: 2
Fore
SplineSet
1131.72460938 1462.11914062 m 2,0,-1
 1169 1451.703125 l 1,1,-1
 1169 1186.92578125 l 1,2,-1
 1101.66796875 1209.68554688 l 2,3,4
 1081.09765625 1216.63867188 1081.09765625 1216.63867188 1057.88867188 1221.34765625 c 128,-1,5
 1034.6796875 1226.05566406 1034.6796875 1226.05566406 1003.13157355 1228.52832031 c 0,6,7
 971.307159224 1231 971.307159224 1231 936.408670129 1231 c 0,8,9
 698.684101324 1231 698.684101324 1231 582.844676511 1128.8515625 c 0,10,11
 493.66857268 1045.72558594 493.66857268 1045.72558594 463.687904825 884.1484375 c 1,12,13
 585.692938895 966 585.692938895 966 769.540302551 966 c 0,14,15
 1028.47144773 966 1028.47144773 966 1154.87207031 837.357421875 c 0,16,17
 1279 710.255859375 1279 710.255859375 1279 495.344726562 c 0,18,19
 1279 259.69921875 1279 259.69921875 1145.10058594 120.763671875 c 0,20,21
 1004.87288966 -20 1004.87288966 -20 736.166629036 -20 c 0,22,23
 446.380666003 -20 446.380666003 -20 294.0625 156.447265625 c 0,24,25
 154 327.109375 154 327.109375 154 631.768554688 c 0,26,27
 154 1046.61523438 154 1046.61523438 327.5 1264.80761719 c 0,28,29
 520.429668097 1483 520.429668097 1483 929.257168661 1483 c 0,30,31
 1056.99121094 1483 1056.99121094 1483 1131.72460938 1462.11914062 c 2,0,-1
923.199809671 297.591796875 m 0,32,33
 994.812598781 364.515625 994.812598781 364.515625 994.812598781 494.743164062 c 0,34,35
 994.812598781 534.305664062 994.812598781 534.305664062 986.714780469 566.98046875 c 128,-1,36
 978.616962156 599.654296875 978.616962156 599.654296875 964.079998968 623.689453125 c 128,-1,37
 949.541871798 647.723632812 949.541871798 647.723632812 928.27942432 666.107421875 c 0,38,39
 896.638919047 693.462890625 896.638919047 693.462890625 851.187774954 707.231445312 c 128,-1,40
 805.736630862 721 805.736630862 721 740.934296681 721 c 0,41,42
 613.680870664 721 613.680870664 721 528.733511109 660.25 c 0,43,44
 445.338902687 600.609375 445.338902687 600.609375 445.338902687 526.418945312 c 0,45,46
 445.338902687 403.959960938 445.338902687 403.959960938 530.123304852 316.13671875 c 0,47,48
 608.452266401 235 608.452266401 235 733.782795213 235 c 0,49,50
 856.223158312 235 856.223158312 235 923.199809671 297.591796875 c 0,32,33
EndSplineSet
EndChar

StartChar: seven
Encoding: 55 55 26
Width: 1433
Flags: W
LayerCount: 2
Fore
SplineSet
612.8515625 -0 m 1,0,-1
 307.240234375 0 l 1,1,-1
 959.455072164 1194 l 1,2,-1
 143 1194 l 1,3,-1
 143 1462 l 1,4,-1
 1287 1462 l 1,5,-1
 1287 1269.14746094 l 1,6,-1
 612.8515625 -0 l 1,0,-1
EndSplineSet
EndChar

StartChar: eight
Encoding: 56 56 27
Width: 1433
Flags: W
LayerCount: 2
Fore
SplineSet
1176.18652344 919.26171875 m 128,-1,1
 1122.37304688 834.078125 1122.37304688 834.078125 1017.86262327 771.233398438 c 1,2,3
 1145.46191406 696.931640625 1145.46191406 696.931640625 1211.23046875 604.494140625 c 128,-1,4
 1277 512.057617188 1277 512.057617188 1277 403.310546875 c 0,5,6
 1277 309.408203125 1277 309.408203125 1240.83105469 231.178710938 c 128,-1,7
 1204.66113281 152.94921875 1204.66113281 152.94921875 1133.54101562 94.80078125 c 0,8,9
 985.760443302 -20 985.760443302 -20 715.90331387 -20 c 0,10,11
 435.655454872 -20 435.655454872 -20 294.849609375 88.2744140625 c 0,12,13
 156 199.377929688 156 199.377929688 156 395.34765625 c 0,14,15
 156 511.864257812 156 511.864257812 216.580078125 606.342773438 c 128,-1,16
 277.16015625 700.8203125 277.16015625 700.8203125 392.485351562 767.913085938 c 1,17,18
 203 907.959960938 203 907.959960938 203 1108.17382812 c 0,19,20
 203 1193.015625 203 1193.015625 237.229492188 1263.23925781 c 128,-1,21
 271.458984375 1333.46289062 271.458984375 1333.46289062 338.372070312 1384.23730469 c 0,22,23
 404.194246331 1433.88476562 404.194246331 1433.88476562 502.409715697 1458.58984375 c 0,24,25
 600.624019661 1485 600.624019661 1485 715.90331387 1485 c 0,26,27
 957.51924214 1485 957.51924214 1485 1097.64941406 1384.95898438 c 0,28,29
 1230 1281.66796875 1230 1281.66796875 1230 1107.57910156 c 0,30,0
 1230 1004.44433594 1230 1004.44433594 1176.18652344 919.26171875 c 128,-1,1
609.695513485 905.986328125 m 128,-1,32
 653.823482866 879.9609375 653.823482866 879.9609375 718.63967917 853.333007812 c 1,33,34
 795.319673924 884.423828125 795.319673924 884.423828125 843.77827936 920.153320312 c 128,-1,35
 892.238050199 955.8828125 892.238050199 955.8828125 913.264243875 993.532226562 c 128,-1,36
 934.290437552 1031.18261719 934.290437552 1031.18261719 934.290437552 1075 c 0,37,38
 934.290437552 1152.2578125 934.290437552 1152.2578125 880.789135074 1189.97363281 c 0,39,40
 822.591260125 1231 822.591260125 1231 713.516569349 1231 c 0,41,42
 659.304371285 1231 659.304371285 1231 619.599104765 1220.53417969 c 128,-1,43
 579.893838244 1210.06835938 579.893838244 1210.06835938 551.797147004 1190.10253906 c 0,44,45
 525.396116544 1171.34277344 525.396116544 1171.34277344 512.053422197 1143.79101562 c 128,-1,46
 498.709562448 1116.23828125 498.709562448 1116.23828125 498.709562448 1075 c 0,47,48
 498.709562448 1002.75 498.709562448 1002.75 544.629921025 954.1640625 c 0,49,31
 565.567544104 932.01171875 565.567544104 932.01171875 609.695513485 905.986328125 c 128,-1,32
694.420282374 686.987304688 m 2,50,-1
 685.648297018 690.41796875 l 1,51,52
 634.132840567 668.166015625 634.132840567 668.166015625 594.015021526 643.956054688 c 128,-1,53
 553.898367888 619.745117188 553.898367888 619.745117188 525.392620336 594.204101562 c 128,-1,54
 496.885707382 568.663085938 496.885707382 568.663085938 478.404752979 540.6796875 c 128,-1,55
 459.923798577 512.696289062 459.923798577 512.696289062 451.271849688 483.439453125 c 128,-1,56
 442.621066202 454.182617188 442.621066202 454.182617188 442.621066202 422 c 0,57,58
 442.621066202 322 442.621066202 322 504.07973762 277.5 c 128,-1,59
 565.538409039 233 565.538409039 233 711.129824827 233 c 0,60,61
 850.478178897 233 850.478178897 233 922.148107881 285.801757812 c 0,62,63
 990.378933798 336.069335938 990.378933798 336.069335938 990.378933798 430 c 0,64,65
 990.378933798 500.325195312 990.378933798 500.325195312 930.965543939 555.248046875 c 0,66,67
 863.888466595 617.254882812 863.888466595 617.254882812 694.420282374 686.987304688 c 2,50,-1
EndSplineSet
EndChar

StartChar: nine
Encoding: 57 57 28
Width: 1433
Flags: W
LayerCount: 2
Fore
SplineSet
301.767578125 -0.25390625 m 2,0,-1
 264 9.892578125 l 1,1,-1
 264 278.46484375 l 1,2,-1
 332.829101562 252.782226562 l 2,3,4
 391.205078125 231 391.205078125 231 496.591329871 231 c 0,5,6
 734.315898676 231 734.315898676 231 850.155323489 333.1484375 c 0,7,8
 939.33142732 416.294921875 939.33142732 416.294921875 969.398229796 578.37890625 c 1,9,10
 847.032361504 496 847.032361504 496 662.267780537 496 c 0,11,12
 404.679869848 496 404.679869848 496 278.274414062 623.303710938 c 0,13,14
 154 749.249023438 154 749.249023438 154 965.772460938 c 0,15,16
 154 1081.5078125 154 1081.5078125 187.25 1175.78320312 c 128,-1,17
 220.500976562 1270.05761719 220.500976562 1270.05761719 287.833984375 1340.05761719 c 0,18,19
 355.404296875 1410.30371094 355.404296875 1410.30371094 455.840342505 1445.70117188 c 0,20,21
 564.788997675 1483 564.788997675 1483 696.833370964 1483 c 0,22,23
 840.898179744 1483 840.898179744 1483 958.528971869 1434.57421875 c 0,24,25
 1069.25 1389.32226562 1069.25 1389.32226562 1140.27148438 1301.00488281 c 0,26,27
 1279 1128.49023438 1279 1128.49023438 1279 829.434570312 c 0,28,29
 1279 415.463867188 1279 415.463867188 1105.5 197.731445312 c 0,30,31
 912.570331903 -20 912.570331903 -20 503.742831339 -20 c 0,32,33
 375.268554688 -20 375.268554688 -20 301.767578125 -0.25390625 c 2,0,-1
509.121589197 1165.23535156 m 0,34,35
 438.187401219 1099.23828125 438.187401219 1099.23828125 438.187401219 967.256835938 c 0,36,37
 438.187401219 853.41796875 438.187401219 853.41796875 504.72057568 795.892578125 c 0,38,39
 536.361080953 768.537109375 536.361080953 768.537109375 581.812225046 754.768554688 c 128,-1,40
 627.263369138 741 627.263369138 741 692.065703319 741 c 0,41,42
 819.210879069 741 819.210879069 741 904.130303072 802.10546875 c 0,43,44
 987.661097313 862.211914062 987.661097313 862.211914062 987.661097313 935.581054688 c 0,45,46
 987.661097313 1057.34082031 987.661097313 1057.34082031 903.781108664 1145.7109375 c 0,47,48
 826.623112361 1227 826.623112361 1227 699.217204787 1227 c 0,49,50
 575.504610063 1227 575.504610063 1227 509.121589197 1165.23535156 c 0,34,35
EndSplineSet
EndChar

StartChar: colon
Encoding: 58 58 29
Width: 1229
Flags: W
LayerCount: 2
Fore
SplineSet
614 1177 m 0
 697 1177 697 1177 744.5 1125 c 0
 792 1073 792 1073 792 987 c 0
 792 901 792 901 744.5 849 c 0
 697 797 697 797 614 797 c 0
 531 797 531 797 483.5 849 c 0
 436 901 436 901 436 987 c 0
 436 1073 436 1073 483.5 1125 c 0
 531 1177 531 1177 614 1177 c 0
614 301 m 0
 697 301 697 301 744.5 249 c 0
 792 197 792 197 792 111 c 0
 792 25 792 25 744.5 -27.5 c 0
 697 -80 697 -80 614 -80 c 0
 531 -80 531 -80 483.5 -27.5 c 0
 436 25 436 25 436 111 c 0
 436 197 436 197 483.5 249 c 0
 531 301 531 301 614 301 c 0
EndSplineSet
EndChar

StartChar: semicolon
Encoding: 59 59 30
Width: 1229
Flags: W
LayerCount: 2
Fore
SplineSet
621 1177 m 0
 704 1177 704 1177 751.5 1125 c 0
 799 1073 799 1073 799 987 c 0
 799 901 799 901 751.5 849 c 0
 704 797 704 797 621 797 c 0
 538 797 538 797 490.5 849 c 0
 443 901 443 901 443 987 c 0
 443 1073 443 1073 490.5 1125 c 0
 538 1177 538 1177 621 1177 c 0
737.661609818 289 m 1
 777.777186744 223.095837908 l 1
 772.372348632 202.218325989 l 2
 720.322442119 1.16280475273 720.322442119 1.16280475273 593.624820225 -284.667030241 c 2
 580.179354906 -315 l 1
 345.114192395 -315 l 1
 360.443746249 -251.9510285 l 2
 421.951821061 1.02573080428 421.951821061 1.02573080428 459.59304342 245.754916397 c 2
 466.246133205 289 l 1
 737.661609818 289 l 1
EndSplineSet
EndChar

StartChar: less
Encoding: 60 60 31
Width: 1229
Flags: W
LayerCount: 2
Fore
SplineSet
1126 139.31752929 m 1
 101 640.157182595 l 1
 101 805.842817405 l 1
 1126 1306.68247071 l 1
 1126 1032.86045982 l 1
 478.192313525 723 l 1
 1126 413.139540175 l 1
 1126 139.31752929 l 1
EndSplineSet
EndChar

StartChar: equal
Encoding: 61 61 32
Width: 1229
Flags: W
LayerCount: 2
Fore
SplineSet
101 801 m 1
 101 1052 l 1
 1126 1052 l 1
 1126 801 l 1
 101 801 l 1
101 391 m 1
 101 643 l 1
 1126 643 l 1
 1126 391 l 1
 101 391 l 1
EndSplineSet
EndChar

StartChar: greater
Encoding: 62 62 33
Width: 1229
Flags: W
LayerCount: 2
Fore
SplineSet
101 413.120125303 m 1
 747.942194543 723 l 1
 101 1032.8798747 l 1
 101 1306.68247071 l 1
 1126 805.842817405 l 1
 1126 640.157182595 l 1
 101 139.31752929 l 1
 101 413.120125303 l 1
EndSplineSet
EndChar

StartChar: question
Encoding: 63 63 34
Width: 1229
Flags: W
LayerCount: 2
Fore
SplineSet
414 363 m 1
 414 451 l 2
 414 494.736191672 414 494.736191672 419.594433989 533.41159055 c 0
 425.188867978 572.086989428 425.188867978 572.086989428 437.189810384 607.428680116 c 0
 449.190752791 642.770370803 449.190752791 642.770370803 467.525669187 672.664256232 c 0
 518.730902767 756.151050112 518.730902767 756.151050112 641.949126321 844.209838686 c 0
 765.310459606 936.36679783 765.310459606 936.36679783 802.023765788 987.676960686 c 0
 834 1032.36663742 834 1032.36663742 834 1116 c 0
 834 1150.91616815 834 1150.91616815 821.03376866 1176.9349878 c 0
 808.067537319 1202.95380746 808.067537319 1202.95380746 779.339317786 1225.12659435 c 0
 750.01375812 1247.76041557 750.01375812 1247.76041557 706.503754046 1259.88020778 c 0
 662.993749973 1272 662.993749973 1272 604 1272 c 0
 441.098085265 1272 441.098085265 1272 254.192617422 1186.6117152 c 2
 206.543886723 1164.84325955 l 1
 101.762225977 1411.48316869 l 1
 146.529826811 1432.26047625 l 2
 365.741790346 1534 365.741790346 1534 594 1534 c 0
 708.090867764 1534 708.090867764 1534 801.204442684 1507.26120751 c 0
 894.318017604 1480.52241503 894.318017604 1480.52241503 964.788749657 1425.77423674 c 0
 1036.3162261 1370.20508173 1036.3162261 1370.20508173 1073.15811305 1293.44083303 c 0
 1110 1216.67658432 1110 1216.67658432 1110 1124 c 0
 1110 975.987489661 1110 975.987489661 1048.36650964 880.369177519 c 0
 989.961298584 789.759223913 989.961298584 789.759223913 839.501739829 676.125431286 c 0
 729.307192689 594.880299073 729.307192689 594.880299073 701.517373516 549.406049518 c 0
 693.606324087 536.460695907 693.606324087 536.460695907 688.046104707 519.890843445 c 0
 682.485885327 503.320990983 682.485885327 503.320990983 679.242942663 480.82765498 c 0
 676 458.334318976 676 458.334318976 676 432 c 2
 676 363 l 1
 414 363 l 1
553 301 m 0
 636 301 636 301 683.5 249 c 0
 731 197 731 197 731 111 c 0
 731 25 731 25 683.5 -27.5 c 0
 636 -80 636 -80 553 -80 c 0
 470 -80 470 -80 422.5 -27.5 c 0
 375 25 375 25 375 111 c 0
 375 197 375 197 422.5 249 c 0
 470 301 470 301 553 301 c 0
EndSplineSet
EndChar

StartChar: at
Encoding: 64 64 35
Width: 1229
Flags: W
LayerCount: 2
Fore
SplineSet
964.719454808 1030.25662028 m 1
 941.929509296 599.319499511 l 2
 940 562.658822888 940 562.658822888 940 533 c 2
 940 526 l 2
 940 477.967254663 940 477.967254663 945.63725541 445.485925875 c 0
 951.410577742 412.220592437 951.410577742 412.220592437 960.867170145 401.384913642 c 1
 967.661816329 407.021018149 967.661816329 407.021018149 975.617408097 430.014646046 c 0
 983.572999866 453.008273944 983.572999866 453.008273944 991.533412876 491.909083982 c 0
 999.493825887 530.809894021 999.493825887 530.809894021 1004.74691294 594.473204481 c 0
 1010 658.13651494 1010 658.13651494 1010 733 c 0
 1010 907.259571319 1010 907.259571319 964.719454808 1030.25662028 c 1
954.244911277 1056.54369337 m 1
 944.377413282 1079.42572452 944.377413282 1079.42572452 932.844453302 1100.27155022 c 0
 921.311493321 1121.11737592 921.311493321 1121.11737592 908.268865715 1139.68255756 c 0
 812.501548557 1276 812.501548557 1276 651 1276 c 0
 600.346263536 1276 600.346263536 1276 556.424184182 1265.79746078 c 0
 512.502104828 1255.59492157 512.502104828 1255.59492157 474.026058021 1234.65396758 c 0
 435.550011215 1213.71301359 435.550011215 1213.71301359 402.57663553 1181.96744883 c 0
 369.603259844 1150.22188407 369.603259844 1150.22188407 341.087500543 1106.94104782 c 0
 223 927.709426441 223 927.709426441 223 608 c 0
 223 313.172210676 223 313.172210676 342.113450304 156.347166067 c 0
 456.306752391 6 456.306752391 6 670 6 c 0
 839.552766171 6 839.552766171 6 994.203639538 79.1076855918 c 2
 1067 113.520510537 l 1
 1067 -130.990968453 l 1
 1039.49289912 -145.266805619 l 2
 870.446012386 -233 870.446012386 -233 664 -233 c 0
 341.662800659 -233 341.662800659 -233 158.853822114 -7.08084442486 c 0
 -20 213.950446187 -20 213.950446187 -20 602 c 0
 -20 1015.47550645 -20 1015.47550645 156.638876219 1260.33718217 c 0
 338.905358199 1513 338.905358199 1513 653 1513 c 0
 926.344639429 1513 926.344639429 1513 1090.15018697 1296.7987386 c 0
 1249 1087.13837931 1249 1087.13837931 1249 731 c 0
 1249 610.660959461 1249 610.660959461 1232.1381678 513.006617411 c 0
 1215.27633561 415.35227536 1215.27633561 415.35227536 1180.35443653 339.233448473 c 0
 1156.2753115 286.748480638 1156.2753115 286.748480638 1123.81753475 249.467776765 c 0
 1091.35975799 212.187072892 1091.35975799 212.187072892 1048.4272138 191.093536446 c 0
 1005.49466961 170 1005.49466961 170 956 170 c 0
 899.695016206 170 899.695016206 170 854.90285326 198.549429099 c 0
 810.110690315 227.098858197 810.110690315 227.098858197 783.71375821 278.189694529 c 1
 755.865835186 242.697081847 755.865835186 242.697081847 721.779094509 218.561267729 c 0
 687.692353832 194.42545361 687.692353832 194.42545361 648.268842092 182.212726805 c 0
 608.845330351 170 608.845330351 170 565 170 c 0
 529.007782141 170 529.007782141 170 495.727678551 178.358197642 c 0
 462.447574961 186.716395284 462.447574961 186.716395284 433.165544518 202.862991484 c 0
 403.883514075 219.009587684 403.883514075 219.009587684 378.52457947 242.733242216 c 0
 353.165644864 266.456896748 353.165644864 266.456896748 332.62791884 297.11678774 c 0
 254 414.497038009 254 414.497038009 254 606 c 0
 254 829.302704271 254 829.302704271 361.528650391 969.533366894 c 0
 473.839033088 1116 473.839033088 1116 657 1116 c 0
 803.706603009 1116 803.706603009 1116 931.734568482 1065.43433296 c 2
 954.244911277 1056.54369337 l 1
698.751736207 878.589815462 m 1
 672.833927809 885 672.833927809 885 649 885 c 0
 619.131018389 885 619.131018389 885 597.786218957 870.38118223 c 0
 576.441419526 855.76236446 576.441419526 855.76236446 557.96896383 819.400793776 c 0
 516 736.788201815 516 736.788201815 516 602 c 0
 516 401 516 401 592 401 c 0
 598.611359956 401 598.611359956 401 605.22619451 403.544219853 c 0
 611.841029064 406.088439705 611.841029064 406.088439705 619.339399048 411.726916458 c 0
 626.837769032 417.365393211 626.837769032 417.365393211 633.856996129 427.51964534 c 0
 640.876223227 437.673897469 640.876223227 437.673897469 647.8429716 451.707927587 c 0
 654.809719973 465.741957705 654.809719973 465.741957705 660.844934418 486.342387686 c 0
 666.880148864 506.942817666 666.880148864 506.942817666 671.926870431 532.208546726 c 0
 676.973591998 557.474275785 676.973591998 557.474275785 680.636388597 591.357029192 c 0
 684.299185196 625.239782599 684.299185196 625.239782599 686.067701207 664.652425138 c 2
 698.751736207 878.589815462 l 1
EndSplineSet
EndChar

StartChar: A
Encoding: 65 65 36
Width: 1433
Flags: W
LayerCount: 2
Fore
SplineSet
1439.03027344 0 m 1,0,-1
 1139.16699219 0 l 1,1,-1
 974.378677476 453 l 1,2,-1
 497.693252242 453 l 1,3,-1
 330.616210938 -0 l 1,4,-1
 33 0 l 1,5,-1
 581.166955442 1468 l 1,6,-1
 888.739177334 1468 l 1,7,-1
 1439.03027344 0 l 1,0,-1
594.904902712 669 m 1,8,-1
 876.941283465 669 l 1,9,-1
 748.534557739 1026.71679688 l 2,10,11
 741.582327204 1046.03320312 741.582327204 1046.03320312 734.825666568 1065.52441406 c 1,12,-1
 594.904902712 669 l 1,8,-1
EndSplineSet
EndChar

StartChar: B
Encoding: 66 66 37
Width: 1433
Flags: W
LayerCount: 2
Fore
SplineSet
135 0 m 1,0,-1
 135 1462 l 1,1,-1
 626 1462 l 2,2,3
 809.817207731 1462 809.817207731 1462 945.394455303 1438.67773438 c 0,4,5
 1080.97045508 1416.8984375 1080.97045508 1416.8984375 1154.98339844 1369.984375 c 0,6,7
 1227.7890625 1321.81640625 1227.7890625 1321.81640625 1263.89453125 1244.69140625 c 128,-1,8
 1300 1167.56542969 1300 1167.56542969 1300 1067.328125 c 0,9,10
 1300 929.17578125 1300 929.17578125 1207.96679688 836.119140625 c 0,11,12
 1168.80859375 796.525390625 1168.80859375 796.525390625 1117.6328125 770.176757812 c 1,13,14
 1227.34570312 725.560546875 1227.34570312 725.560546875 1284.17285156 641.96875 c 128,-1,15
 1341 558.376953125 1341 558.376953125 1341 443.552734375 c 0,16,17
 1341 237.233398438 1341 237.233398438 1196.32714844 117.501953125 c 0,18,19
 1042.9899091 0 1042.9899091 0 737.164034419 0 c 2,20,-1
 135 0 l 1,0,-1
424 1201 m 1,21,-1
 424 893 l 1,22,-1
 665.610173184 893 l 2,23,24
 842.774109638 893 842.774109638 893 916.565276837 931.11328125 c 0,25,26
 982.491558654 965.163085938 982.491558654 965.163085938 982.491558654 1052.57617188 c 0,27,28
 982.491558654 1132.36523438 982.491558654 1132.36523438 913.276075208 1163.95605469 c 0,29,30
 832.11040815 1201 832.11040815 1201 640.055222743 1201 c 2,31,-1
 424 1201 l 1,21,-1
678.387648404 635 m 2,32,-1
 424 635 l 1,33,-1
 424 260 l 1,34,-1
 694.998366191 260 l 2,35,36
 873.883019279 260 873.883019279 260 950.547870602 306.655273438 c 128,-1,37
 1027.21272193 353.309570312 1027.21272193 353.309570312 1027.21272193 456.302734375 c 0,38,39
 1027.21272193 548.732421875 1027.21272193 548.732421875 947.353501797 591.866210938 c 128,-1,40
 867.494281669 635 867.494281669 635 678.387648404 635 c 2,32,-1
EndSplineSet
EndChar

StartChar: C
Encoding: 67 67 38
Width: 1433
Flags: W
LayerCount: 2
Fore
SplineSet
1262.59570312 300.923828125 m 2,0,-1
 1328 320.1796875 l 1,1,-1
 1328 55.6025390625 l 1,2,-1
 1296.10839844 42.71484375 l 2,3,4
 1138.77168574 -20 1138.77168574 -20 883.491407623 -20 c 0,5,6
 500.625474863 -20 500.625474863 -20 304.885742188 180.655273438 c 0,7,8
 129 377.501953125 129 377.501953125 129 732.904296875 c 0,9,10
 129 1075.03222656 129 1075.03222656 320.830078125 1277.75292969 c 0,11,12
 536.143698041 1483 536.143698041 1483 919.152301338 1483 c 0,13,14
 1182.62890625 1483 1182.62890625 1483 1356.79882812 1391.10644531 c 2,15,-1
 1400.93066406 1367.82226562 l 1,16,-1
 1277.68945312 1121.33984375 l 1,17,-1
 1231.95605469 1144.50292969 l 2,18,19
 1078.84556697 1217 1078.84556697 1217 919.152301338 1217 c 0,20,21
 699.857576658 1217 699.857576658 1217 570.225105347 1090.70996094 c 0,22,23
 436.004709076 959.952148438 436.004709076 959.952148438 436.004709076 731 c 0,24,25
 436.004709076 648.283203125 436.004709076 648.283203125 450.684046846 579.1796875 c 128,-1,26
 465.364508006 510.077148438 465.364508006 510.077148438 492.98080558 457.006835938 c 128,-1,27
 520.598226544 403.9375 520.598226544 403.9375 561.250342246 363.825195312 c 0,28,29
 621.560660415 304.31640625 621.560660415 304.31640625 709.482782598 274.658203125 c 128,-1,30
 797.40490478 245 797.40490478 245 919.152301338 245 c 0,31,32
 1060.24110437 245 1060.24110437 245 1262.59570312 300.923828125 c 2,0,-1
EndSplineSet
EndChar

StartChar: D
Encoding: 68 68 39
Width: 1433
Flags: W
LayerCount: 2
Fore
SplineSet
487 0 m 2,0,-1
 135 0 l 1,1,-1
 135 1462 l 1,2,-1
 528 1462 l 2,3,4
 939.945254224 1462 939.945254224 1462 1160.77441406 1270.19042969 c 0,5,6
 1351 1079.77734375 1351 1079.77734375 1351 744.086914062 c 0,7,8
 1351 387.549804688 1351 387.549804688 1153.91699219 194.259765625 c 0,9,10
 923.781444474 0 923.781444474 0 487 0 c 2,0,-1
508 1201 m 2,11,-1
 424 1201 l 1,12,-1
 424 262 l 1,13,-1
 469 262 l 2,14,15
 756.350138877 262 756.350138877 262 898.461661476 377.006835938 c 128,-1,16
 1040.57318408 492.014648438 1040.57318408 492.014648438 1040.57318408 738.264648438 c 0,17,18
 1040.57318408 978.202148438 1040.57318408 978.202148438 909.393317061 1089.60058594 c 128,-1,19
 778.213450046 1201 778.213450046 1201 508 1201 c 2,11,-1
EndSplineSet
EndChar

StartChar: E
Encoding: 69 69 40
Width: 1433
Flags: W
LayerCount: 2
Fore
SplineSet
1263 266 m 1,0,-1
 1263 0 l 1,1,-1
 217 0 l 1,2,-1
 217 1462 l 1,3,-1
 1263 1462 l 1,4,-1
 1263 1196 l 1,5,-1
 514.521923621 1196 l 1,6,-1
 514.521923621 897 l 1,7,-1
 1224 897 l 1,8,-1
 1224 633 l 1,9,-1
 514.521923621 633 l 1,10,-1
 514.521923621 266 l 1,11,-1
 1263 266 l 1,0,-1
EndSplineSet
EndChar

StartChar: F
Encoding: 70 70 41
Width: 1433
Flags: W
LayerCount: 2
Fore
SplineSet
541.543014087 567 m 1,0,-1
 541.543014087 0 l 1,1,-1
 244 0 l 1,2,-1
 244 1462 l 1,3,-1
 1289 1462 l 1,4,-1
 1289 1196 l 1,5,-1
 541.543014087 1196 l 1,6,-1
 541.543014087 833 l 1,7,-1
 1251 833 l 1,8,-1
 1251 567 l 1,9,-1
 541.543014087 567 l 1,0,-1
EndSplineSet
EndChar

StartChar: G
Encoding: 71 71 42
Width: 1433
Flags: W
LayerCount: 2
Fore
SplineSet
725.691155444 557 m 1,0,-1
 725.691155444 823 l 1,1,-1
 1298 823 l 1,2,-1
 1298 65.783203125 l 1,3,-1
 1265.30761719 53.9267578125 l 2,4,5
 1061.46972656 -20 1061.46972656 -20 787.893170831 -20 c 0,6,7
 450.21984791 -20 450.21984791 -20 274.491210938 186.1875 c 0,8,9
 117 385.6640625 117 385.6640625 117 732.904296875 c 0,10,11
 117 1078.546875 117 1078.546875 290.409179688 1278.52539062 c 0,12,13
 485.939703665 1483 485.939703665 1483 847.747940355 1483 c 0,14,15
 1083.27539062 1483 1083.27539062 1483 1248.86621094 1390.52734375 c 2,16,-1
 1289.51171875 1367.82910156 l 1,17,-1
 1175.62011719 1111.57226562 l 1,18,-1
 1126.56640625 1139.79394531 l 2,19,20
 981.982209301 1217 981.982209301 1217 840.706202764 1217 c 0,21,22
 774.315132869 1217 774.315132869 1217 719.7531277 1203.88574219 c 128,-1,23
 665.192268646 1190.77246094 665.192268646 1190.77246094 620.530414732 1164.1171875 c 128,-1,24
 575.868560818 1137.46289062 575.868560818 1137.46289062 539.102301022 1096.25976562 c 0,25,26
 424.07006196 967.346679688 424.07006196 967.346679688 424.07006196 731 c 0,27,28
 424.07006196 476.6875 424.07006196 476.6875 524.414822632 360.84375 c 128,-1,29
 624.759583305 245 624.759583305 245 826.622727582 245 c 0,30,31
 911.582025133 245 911.582025133 245 1003.83979029 260.24609375 c 1,32,-1
 1003.83979029 557 l 1,33,-1
 725.691155444 557 l 1,0,-1
EndSplineSet
EndChar

StartChar: H
Encoding: 72 72 43
Width: 1433
Flags: W
LayerCount: 2
Fore
SplineSet
1298 1462 m 1,0,-1
 1298 0 l 1,1,-1
 1009 0 l 1,2,-1
 1009 631 l 1,3,-1
 424 631 l 1,4,-1
 424 0 l 1,5,-1
 135 0 l 1,6,-1
 135 1462 l 1,7,-1
 424 1462 l 1,8,-1
 424 897 l 1,9,-1
 1009 897 l 1,10,-1
 1009 1462 l 1,11,-1
 1298 1462 l 1,0,-1
EndSplineSet
EndChar

StartChar: I
Encoding: 73 73 44
Width: 1433
Flags: W
LayerCount: 2
Fore
SplineSet
1205 207.193359375 m 1,0,-1
 1205 0 l 1,1,-1
 225 0 l 1,2,-1
 225 207.203125 l 1,3,-1
 532.995446077 225.899414062 l 1,4,-1
 532.995446077 1236.10058594 l 1,5,-1
 225 1254.796875 l 1,6,-1
 225 1462 l 1,7,-1
 1205 1462 l 1,8,-1
 1205 1254.80664062 l 1,9,-1
 898.268474436 1236.11132812 l 1,10,-1
 898.268474436 225.888671875 l 1,11,-1
 1205 207.193359375 l 1,0,-1
EndSplineSet
EndChar

StartChar: J
Encoding: 74 74 45
Width: 1433
Flags: W
LayerCount: 2
Fore
SplineSet
163.374023438 45.33984375 m 2,0,-1
 137 59.8818359375 l 1,1,-1
 137 330.125976562 l 1,2,-1
 206.229492188 303.630859375 l 2,3,4
 283.248046875 274.154296875 283.248046875 274.154296875 355.899414062 259.577148438 c 0,5,6
 439.937189016 245 439.937189016 245 525.404056162 245 c 0,7,8
 702.92604691 245 702.92604691 245 801.179228546 307.064453125 c 0,9,10
 895 366.329101562 895 366.329101562 895 480.280273438 c 2,11,-1
 895 1462 l 1,12,-1
 1183 1462 l 1,13,-1
 1183 469.932617188 l 2,14,15
 1183 360.3515625 1183 360.3515625 1143.55371094 270.264648438 c 128,-1,16
 1104.10644531 180.176757812 1104.10644531 180.176757812 1025.77246094 113.771484375 c 0,17,18
 947.8828125 47.7431640625 947.8828125 47.7431640625 831.548859357 15.0244140625 c 0,19,20
 702.066391015 -20 702.066391015 -20 544.133580343 -20 c 0,21,22
 281.87109375 -20 281.87109375 -20 163.374023438 45.33984375 c 2,0,-1
EndSplineSet
EndChar

StartChar: K
Encoding: 75 75 46
Width: 1433
Flags: W
LayerCount: 2
Fore
SplineSet
829.20619998 815.713867188 m 1,0,-1
 1445.24023438 -0 l 1,1,-1
 1112.19921875 0 l 1,2,-1
 591.380273081 673.470703125 l 1,3,-1
 499 610.758789062 l 1,4,-1
 499 0 l 1,5,-1
 211 0 l 1,6,-1
 211 1462 l 1,7,-1
 499 1462 l 1,8,-1
 499 838.07421875 l 1,9,-1
 534.42931462 878.91015625 l 1,10,-1
 1099.57617188 1462 l 1,11,-1
 1440.59863281 1462 l 1,12,-1
 829.20619998 815.713867188 l 1,0,-1
EndSplineSet
EndChar

StartChar: L
Encoding: 76 76 47
Width: 1433
Flags: W
LayerCount: 2
Fore
SplineSet
1259 0 m 1,0,-1
 233 0 l 1,1,-1
 233 1462 l 1,2,-1
 522 1462 l 1,3,-1
 522 268 l 1,4,-1
 1259 268 l 1,5,-1
 1259 0 l 1,0,-1
EndSplineSet
EndChar

StartChar: M
Encoding: 77 77 48
Width: 1535
Flags: W
LayerCount: 2
Fore
SplineSet
879.942382812 -0 m 1,0,-1
 643.887695312 0 l 1,1,-1
 366 809.841796875 l 1,2,-1
 366 0 l 1,3,-1
 113 0 l 1,4,-1
 113 1462 l 1,5,-1
 452.481445312 1462 l 1,6,-1
 764.188476562 454.052734375 l 1,7,-1
 975.586914062 1462 l 1,8,-1
 1320 1462 l 1,9,-1
 1422 0 l 1,10,-1
 1167 0 l 1,11,-1
 1065 835.703125 l 1,12,-1
 879.942382812 -0 l 1,0,-1
EndSplineSet
EndChar

StartChar: N
Encoding: 78 78 49
Width: 1433
Flags: W
LayerCount: 2
Fore
SplineSet
1296 1462 m 1,0,-1
 1296 0 l 1,1,-1
 993.257887717 0 l 1,2,-1
 404.223632812 1025.71875 l 1,3,4
 406.645507812 970.393554688 406.645507812 970.393554688 407.823242188 925.650390625 c 128,-1,5
 409 880.90625 409 880.90625 409 844 c 2,6,-1
 409 0 l 1,7,-1
 135 0 l 1,8,-1
 135 1462 l 1,9,-1
 431.088867188 1462 l 1,10,-1
 1024.19433594 439.006835938 l 1,11,12
 1022.08300781 497.420898438 1022.08300781 497.420898438 1021.04199219 540.0078125 c 128,-1,13
 1020 582.595703125 1020 582.595703125 1020 611 c 2,14,-1
 1020 1462 l 1,15,-1
 1296 1462 l 1,0,-1
EndSplineSet
EndChar

StartChar: O
Encoding: 79 79 50
Width: 1433
Flags: W
LayerCount: 2
Fore
SplineSet
1203.70117188 183.825195312 m 0,0,1
 1042.16902808 -20 1042.16902808 -20 718.075726079 -20 c 0,2,3
 384.154599988 -20 384.154599988 -20 230.5 174.329101562 c 0,4,5
 84 368.659179688 84 368.659179688 84 734.841796875 c 0,6,7
 84 1098.21386719 84 1098.21386719 231 1291.60742188 c 0,8,9
 385.306052147 1485 385.306052147 1485 720.378630397 1485 c 0,10,11
 1045.77068947 1485 1045.77068947 1485 1205.31640625 1281.48925781 c 0,12,13
 1242.46484375 1231.66015625 1242.46484375 1231.66015625 1270.04882812 1172.05175781 c 128,-1,14
 1297.63183594 1112.44335938 1297.63183594 1112.44335938 1315.52246094 1043.62304688 c 128,-1,15
 1333.41210938 974.802734375 1333.41210938 974.802734375 1342.20605469 897.451171875 c 128,-1,16
 1351 820.099609375 1351 820.099609375 1351 732.96875 c 0,17,18
 1351 557.765625 1351 557.765625 1314.68457031 420.455078125 c 128,-1,19
 1278.36914062 283.14453125 1278.36914062 283.14453125 1203.70117188 183.825195312 c 0,0,1
474.543594465 360.413085938 m 128,-1,21
 558.023875987 245 558.023875987 245 718.075726079 245 c 0,22,23
 803.587915855 245 803.587915855 245 861.558584412 271.067382812 c 128,-1,24
 919.530377433 297.135742188 919.530377433 297.135742188 958.626900982 352.497070312 c 0,25,26
 1043.93668706 473.299804688 1043.93668706 473.299804688 1043.93668706 732.905273438 c 0,27,28
 1043.93668706 994.913085938 1043.93668706 994.913085938 957.842024413 1113.25390625 c 0,29,30
 918.18439283 1167.765625 918.18439283 1167.765625 860.900772387 1193.3828125 c 128,-1,31
 803.617151945 1219 803.617151945 1219 720.378630397 1219 c 0,32,33
 559.175328146 1219 559.175328146 1219 475.119320544 1104.0390625 c 128,-1,34
 391.063312942 989.078125 391.063312942 989.078125 391.063312942 732.905273438 c 0,35,20
 391.063312942 475.827148438 391.063312942 475.827148438 474.543594465 360.413085938 c 128,-1,21
EndSplineSet
EndChar

StartChar: P
Encoding: 80 80 51
Width: 1433
Flags: W
LayerCount: 2
Fore
SplineSet
604 518 m 2,0,-1
 464 518 l 1,1,-1
 464 0 l 1,2,-1
 176 0 l 1,3,-1
 176 1462 l 1,4,-1
 631 1462 l 2,5,6
 989.906402706 1462 989.906402706 1462 1151.5 1346.25292969 c 0,7,8
 1298 1230.50683594 1298 1230.50683594 1298 1007.55175781 c 0,9,10
 1298 778.03515625 1298 778.03515625 1142.36523438 646.903320312 c 0,11,12
 969.291654349 518 969.291654349 518 604 518 c 2,0,-1
464 1201 m 1,13,-1
 464 778 l 1,14,-1
 583 778 l 2,15,16
 804.365935993 778 804.365935993 778 898.397691955 831.553710938 c 0,17,18
 987.267385039 882.16796875 987.267385039 882.16796875 987.267385039 997.53125 c 0,19,20
 987.267385039 1102.83496094 987.267385039 1102.83496094 899.520047613 1151.91796875 c 128,-1,21
 811.772710187 1201 811.772710187 1201 614 1201 c 2,22,-1
 464 1201 l 1,13,-1
EndSplineSet
EndChar

StartChar: Q
Encoding: 81 81 52
Width: 1433
Flags: W
LayerCount: 2
Fore
SplineSet
1351 728.38671875 m 0,0,1
 1351 241.266601562 1351 241.266601562 1075.13230686 58.00390625 c 1,2,3
 1161.97167969 -76.5712890625 1161.97167969 -76.5712890625 1322.54101562 -178.733398438 c 2,4,-1
 1369.81738281 -210.657226562 l 1,5,-1
 1181.24609375 -431.956054688 l 1,6,-1
 1143.07617188 -404.298828125 l 2,7,8
 883.456685759 -238.571289062 883.456685759 -238.571289062 767.437982777 -18.244140625 c 1,9,10
 742.607804435 -20 742.607804435 -20 716.687433253 -20 c 0,11,12
 383.960130313 -20 383.960130313 -20 230.5 174.329101562 c 0,13,14
 84 368.659179688 84 368.659179688 84 734.841796875 c 0,15,16
 84 1098.21386719 84 1098.21386719 231 1291.60742188 c 0,17,18
 385.107465841 1485 385.107465841 1485 718.982104308 1485 c 0,19,20
 1043.21083305 1485 1043.21083305 1485 1205.31640625 1280.24902344 c 0,21,22
 1242.46484375 1230.1171875 1242.46484375 1230.1171875 1270.04882812 1170.14453125 c 128,-1,23
 1297.63183594 1110.17285156 1297.63183594 1110.17285156 1315.52246094 1040.93359375 c 128,-1,24
 1333.41210938 971.694335938 1333.41210938 971.694335938 1342.20605469 893.87109375 c 128,-1,25
 1351 816.048828125 1351 816.048828125 1351 728.38671875 c 0,0,1
474.025969213 360.413085938 m 128,-1,27
 557.207794948 245 557.207794948 245 716.687433253 245 c 0,28,29
 801.893902834 245 801.893902834 245 859.65731668 271.067382812 c 128,-1,30
 917.421850971 297.135742188 917.421850971 297.135742188 956.378597994 352.497070312 c 0,31,32
 1041.3833875 473.299804688 1041.3833875 473.299804688 1041.3833875 732.905273438 c 0,33,34
 1041.3833875 994.913085938 1041.3833875 994.913085938 955.596527488 1113.25390625 c 0,35,36
 916.080678485 1167.765625 916.080678485 1167.765625 859.001856442 1193.3828125 c 128,-1,37
 801.9230344 1219 801.9230344 1219 718.982104308 1219 c 0,38,39
 558.355130475 1219 558.355130475 1219 474.599636976 1104.0390625 c 128,-1,40
 390.844143478 989.078125 390.844143478 989.078125 390.844143478 732.905273438 c 0,41,26
 390.844143478 475.827148438 390.844143478 475.827148438 474.025969213 360.413085938 c 128,-1,27
EndSplineSet
EndChar

StartChar: R
Encoding: 82 82 53
Width: 1433
Flags: W
LayerCount: 2
Fore
SplineSet
654.010239906 604 m 1,0,-1
 475 604 l 1,1,-1
 475 0 l 1,2,-1
 186 0 l 1,3,-1
 186 1462 l 1,4,-1
 618.343705932 1462 l 2,5,6
 949.600169221 1462 949.600169221 1462 1119 1351.6953125 c 0,7,8
 1267 1241.39160156 1267 1241.39160156 1267 1026.39160156 c 0,9,10
 1267 972.916015625 1267 972.916015625 1255.97070312 924.55078125 c 128,-1,11
 1244.94238281 876.186523438 1244.94238281 876.186523438 1223.22265625 833.923828125 c 128,-1,12
 1201.50292969 791.661132812 1201.50292969 791.661132812 1169.50488281 755.444335938 c 128,-1,13
 1137.50585938 719.227539062 1137.50585938 719.227539062 1095.31640625 689.549804688 c 0,14,15
 1048.52774752 659.87109375 1048.52774752 659.87109375 986.228946756 637.174804688 c 1,16,-1
 1414.54785156 0 l 1,17,-1
 1075.609375 0 l 1,18,-1
 654.010239906 604 l 1,0,-1
475 1201 m 1,19,-1
 475 813 l 1,20,-1
 611.116292188 813 l 2,21,22
 795.237715804 813 795.237715804 813 875.862668707 861.201171875 c 0,23,24
 950.804738178 906.005859375 950.804738178 906.005859375 950.804738178 1011.86132812 c 0,25,26
 950.804738178 1114.38671875 950.804738178 1114.38671875 878.240045526 1155.64941406 c 0,27,28
 798.487934583 1201 798.487934583 1201 605.093447401 1201 c 2,29,-1
 475 1201 l 1,19,-1
EndSplineSet
EndChar

StartChar: S
Encoding: 83 83 54
Width: 1433
Flags: W
LayerCount: 2
Fore
SplineSet
170.569335938 53.7216796875 m 2,0,-1
 141 67.4140625 l 1,1,-1
 141 353.860351562 l 1,2,-1
 211.249023438 325.227539062 l 2,3,4
 417.802727355 243 417.802727355 243 646.18559517 243 c 0,5,6
 837.879384704 243 837.879384704 243 918.935092007 286.427734375 c 128,-1,7
 999.99079931 329.85546875 999.99079931 329.85546875 999.99079931 417.634765625 c 0,8,9
 999.99079931 456.548828125 999.99079931 456.548828125 985.045922164 483.034179688 c 128,-1,10
 970.101045017 509.51953125 970.101045017 509.51953125 939.381597553 528.57421875 c 0,11,12
 863.762807204 575.477539062 863.762807204 575.477539062 618.918965529 643.950195312 c 0,13,14
 362.692382812 715.37890625 362.692382812 715.37890625 263.43359375 818.241210938 c 0,15,16
 160 925.4296875 160 925.4296875 160 1093.07421875 c 0,17,18
 160 1277.10253906 160 1277.10253906 308.473632812 1382.26269531 c 0,19,20
 462.422424352 1483 462.422424352 1483 747.948964922 1483 c 0,21,22
 1031.00491496 1483 1031.00491496 1483 1229.6328125 1401.06933594 c 2,23,-1
 1275.62792969 1381.88476562 l 1,24,-1
 1174.74609375 1123.375 l 1,25,-1
 1126.890625 1142.71582031 l 2,26,27
 924.359297785 1217 924.359297785 1217 738.482604945 1217 c 0,28,29
 581.104370328 1217 581.104370328 1217 516.614792984 1180.97070312 c 128,-1,30
 452.125215641 1144.94140625 452.125215641 1144.94140625 452.125215641 1071.03613281 c 128,-1,31
 452.125215641 997.083007812 452.125215641 997.083007812 510.768807252 953.74609375 c 0,32,33
 578.829069694 903.44921875 578.829069694 903.44921875 809.402882151 841.102539062 c 0,34,35
 1104.54882812 755.637695312 1104.54882812 755.637695312 1195.7421875 660.158203125 c 0,36,37
 1291 560.422851562 1291 560.422851562 1291 406.806640625 c 0,38,39
 1291 341.587890625 1291 341.587890625 1273.42382812 284.215820312 c 128,-1,40
 1255.84863281 226.84375 1255.84863281 226.84375 1220.55761719 178.119140625 c 128,-1,41
 1185.26660156 129.39453125 1185.26660156 129.39453125 1133.12988281 91.314453125 c 0,42,43
 968.900416597 -20 968.900416597 -20 646.18559517 -20 c 0,44,45
 329.764648438 -20 329.764648438 -20 170.569335938 53.7216796875 c 2,0,-1
EndSplineSet
EndChar

StartChar: T
Encoding: 84 84 55
Width: 1433
Flags: W
LayerCount: 2
Fore
SplineSet
883.384138629 1196 m 1,0,-1
 911 0 l 1,1,-1
 622 0 l 1,2,-1
 547.777131293 1196 l 1,3,-1
 102 1196 l 1,4,-1
 102 1462 l 1,5,-1
 1328 1462 l 1,6,-1
 1328 1196 l 1,7,-1
 883.384138629 1196 l 1,0,-1
EndSplineSet
EndChar

StartChar: U
Encoding: 85 85 56
Width: 1433
Flags: W
LayerCount: 2
Fore
SplineSet
1012.12689131 1464 m 1,0,-1
 1308 1464 l 1,1,-1
 1308 529.248046875 l 2,2,3
 1308 267.461914062 1308 267.461914062 1168.66308594 124.668945312 c 0,4,5
 1021.01902252 -20 1021.01902252 -20 704.85191141 -20 c 0,6,7
 398 -20 398 -20 261.5 122.6796875 c 128,-1,8
 125 265.359375 125 265.359375 125 532.943359375 c 2,9,-1
 125 1462 l 1,10,-1
 413 1462 l 1,11,-1
 413 555.016601562 l 2,12,13
 413 389.859375 413 389.859375 487.149367736 317.4296875 c 128,-1,14
 561.298735473 245 561.298735473 245 716.715810248 245 c 0,15,16
 864.657701888 245 864.657701888 245 936.894247654 317.889648438 c 128,-1,17
 1009.13079342 390.780273438 1009.13079342 390.780273438 1012.12689131 557.186523438 c 2,18,-1
 1012.12689131 1464 l 1,0,-1
EndSplineSet
EndChar

StartChar: V
Encoding: 86 86 57
Width: 1433
Flags: W
LayerCount: 2
Fore
SplineSet
784.520953017 505.43359375 m 2,0,-1
 1132.41113281 1462 l 1,1,-1
 1439.57910156 1462 l 1,2,-1
 884.6955805 0 l 1,3,-1
 585.890116804 0 l 1,4,-1
 33 1462 l 1,5,-1
 337.034179688 1462 l 1,6,-1
 688.364557651 499.567382812 l 2,7,8
 710.602061343 439.518554688 710.602061343 439.518554688 734.543420917 361.291992188 c 1,9,10
 745.92822521 396.114257812 745.92822521 396.114257812 758.285381184 431.75 c 128,-1,11
 770.643657378 467.384765625 770.643657378 467.384765625 784.520953017 505.43359375 c 2,0,-1
EndSplineSet
EndChar

StartChar: W
Encoding: 87 87 58
Width: 1433
Flags: W
LayerCount: 2
Fore
SplineSet
400.802734375 470.6484375 m 1,0,-1
 582.609963625 1008 l 1,1,-1
 869.98817265 1008 l 1,2,-1
 1059.70019531 449.684570312 l 1,3,-1
 1062.38671875 440.018554688 l 1,4,5
 1076.51660156 570.659179688 1076.51660156 570.659179688 1087.26373425 753.498046875 c 2,6,-1
 1171.671875 1462 l 1,7,-1
 1445.50976562 1462 l 1,8,-1
 1245.46289062 -0 l 1,9,-1
 972.247070312 0 l 1,10,-1
 745.328032665 616.801757812 l 2,11,12
 734.762755304 645.499023438 734.762755304 645.499023438 724.656406402 675.327148438 c 1,13,14
 714.092369388 643.241210938 714.092369388 643.241210938 703.483679876 615.091796875 c 2,15,-1
 492.630859375 -0 l 1,16,-1
 219.163085938 0 l 1,17,-1
 2 1462 l 1,18,-1
 275.249023438 1462 l 1,19,-1
 381.18813276 754.659179688 l 2,20,21
 386.69140625 620.310546875 386.69140625 620.310546875 400.802734375 470.6484375 c 1,0,-1
EndSplineSet
EndChar

StartChar: X
Encoding: 88 88 59
Width: 1433
Flags: W
LayerCount: 2
Fore
SplineSet
944.094283271 767.123046875 m 1,0,-1
 1455.10546875 -0 l 1,1,-1
 1124.61328125 0 l 1,2,-1
 748.631585329 582.697265625 l 1,3,-1
 361 -0 l 1,4,-1
 53 0 l 1,5,-1
 558.68711065 761.609375 l 1,6,-1
 83.1005859375 1462 l 1,7,-1
 401.602539062 1462 l 1,8,-1
 754.498442164 951.762695312 l 1,9,-1
 1110.59277344 1462 l 1,10,-1
 1421.3671875 1462 l 1,11,-1
 944.094283271 767.123046875 l 1,0,-1
EndSplineSet
EndChar

StartChar: Y
Encoding: 89 89 60
Width: 1433
Flags: W
LayerCount: 2
Fore
SplineSet
352.72265625 1462 m 1,0,-1
 748.412183907 783.875976562 l 1,1,-1
 1149.36328125 1462 l 1,2,-1
 1467.35351562 1462 l 1,3,-1
 915.506779989 567.411132812 l 1,4,-1
 915.506779989 0 l 1,5,-1
 584.070448253 0 l 1,6,-1
 584.070448253 558.181640625 l 1,7,-1
 33 1462 l 1,8,-1
 352.72265625 1462 l 1,0,-1
EndSplineSet
EndChar

StartChar: Z
Encoding: 90 90 61
Width: 1433
Flags: W
LayerCount: 2
Fore
SplineSet
1328 250.521484375 m 1,0,-1
 1328 0 l 1,1,-1
 102 0 l 1,2,-1
 102 198.05078125 l 1,3,-1
 929.754417753 1211.47851562 l 1,4,-1
 123 1211.47851562 l 1,5,-1
 123 1462 l 1,6,-1
 1308 1462 l 1,7,-1
 1308 1263.94921875 l 1,8,-1
 477.020183815 250.521484375 l 1,9,-1
 1328 250.521484375 l 1,0,-1
EndSplineSet
EndChar

StartChar: bracketleft
Encoding: 91 91 62
Width: 1229
Flags: W
LayerCount: 2
Fore
SplineSet
991 -375 m 1
 361 -375 l 1
 361 1513 l 1
 991 1513 l 1
 991 1262 l 1
 645 1262 l 1
 645 -123 l 1
 991 -123 l 1
 991 -375 l 1
EndSplineSet
EndChar

StartChar: backslash
Encoding: 92 92 63
Width: 1229
Flags: W
LayerCount: 2
Fore
SplineSet
422.620144751 1513 m 1
 1093.3643308 -51 l 1
 804.379855249 -51 l 1
 133.635669202 1513 l 1
 422.620144751 1513 l 1
EndSplineSet
EndChar

StartChar: bracketright
Encoding: 93 93 64
Width: 1229
Flags: W
LayerCount: 2
Fore
SplineSet
238 -123 m 1
 584 -123 l 1
 584 1262 l 1
 238 1262 l 1
 238 1513 l 1
 868 1513 l 1
 868 -375 l 1
 238 -375 l 1
 238 -123 l 1
EndSplineSet
EndChar

StartChar: asciicircum
Encoding: 94 94 65
Width: 1229
Flags: W
LayerCount: 2
Fore
SplineSet
31.4842885759 498 m 1
 502.289483381 1524 l 1
 667.947677202 1524 l 1
 1202.0450798 498 l 1
 924.499436436 498 l 1
 591.370351081 1163.35292863 l 1
 303.503369715 498 l 1
 31.4842885759 498 l 1
EndSplineSet
EndChar

StartChar: underscore
Encoding: 95 95 66
Width: 1229
Flags: W
LayerCount: 2
Fore
SplineSet
1294 -375 m 1
 -67 -375 l 1
 -67 -133 l 1
 1294 -133 l 1
 1294 -375 l 1
EndSplineSet
EndChar

StartChar: grave
Encoding: 96 96 67
Width: 1229
Flags: W
LayerCount: 2
Fore
SplineSet
862 1190 m 1
 671.162654821 1190 l 1
 656.848109216 1202.24497275 l 2
 485.146712744 1349.12207093 485.146712744 1349.12207093 375.091450432 1520.43450755 c 2
 367 1533.02968983 l 1
 367 1620 l 1
 669.000099187 1620 l 1
 682.921165369 1591.18663046 l 2
 725.051091031 1503.987482 725.051091031 1503.987482 767.510881841 1430.53781271 c 0
 809.970672651 1357.08814342 809.970672651 1357.08814342 852.477609884 1297.67503797 c 2
 862 1284.3653336 l 1
 862 1190 l 1
EndSplineSet
EndChar

StartChar: a
Encoding: 97 97 68
Width: 1433
Flags: W
LayerCount: 2
Fore
SplineSet
1230 0 m 1,0,-1
 1007.92480469 0 l 1,1,-1
 982.202496859 104.258789062 l 1,2,3
 947.582477351 76.61328125 947.582477351 76.61328125 913.386702626 56.4814453125 c 128,-1,4
 879.192103094 36.349609375 879.192103094 36.349609375 842.4637868 22.21875 c 0,5,6
 732.720710603 -20 732.720710603 -20 565.168700646 -20 c 0,7,8
 350.954101562 -20 350.954101562 -20 243.7734375 69.3505859375 c 0,9,10
 135 160.030273438 135 160.030273438 135 318.936523438 c 0,11,12
 135 490.548828125 135 490.548828125 281.0703125 579.85546875 c 0,13,14
 436.574348678 669.161132812 436.574348678 669.161132812 758.099009977 676.677734375 c 2,15,-1
 943.035654463 681.428710938 l 1,16,-1
 943.035654463 699.118164062 l 2,17,18
 943.035654463 787.887695312 943.035654463 787.887695312 890.086145011 826.443359375 c 128,-1,19
 837.136635559 865 837.136635559 865 710.779851639 865 c 0,20,21
 630.058174055 865 630.058174055 865 537.55870919 845.786132812 c 128,-1,22
 445.058069131 826.572265625 445.058069131 826.572265625 348.045898438 787.544921875 c 2,23,-1
 301.852539062 766.6171875 l 1,24,-1
 196.87109375 994.909179688 l 1,25,-1
 241.56640625 1016.80078125 l 2,26,27
 461.893888387 1118 461.893888387 1118 701.152668102 1118 c 0,28,29
 994.866210938 1118 994.866210938 1118 1110.69042969 1027.02246094 c 0,30,31
 1230 933.306640625 1230 933.306640625 1230 735.864257812 c 2,32,-1
 1230 0 l 1,0,-1
940.628858579 489 m 2,33,-1
 940.628858579 534.749023438 l 1,34,-1
 809.627710726 530.044921875 l 2,35,36
 699.427484334 526.307617188 699.427484334 526.307617188 622.092713848 512.041992188 c 128,-1,37
 544.759118556 497.77734375 544.759118556 497.77734375 506.042375194 476.787109375 c 0,38,39
 469.591404521 457.024414062 469.591404521 457.024414062 452.397151307 428.533203125 c 128,-1,40
 435.2017229 400.041992188 435.2017229 400.041992188 435.2017229 356 c 0,41,42
 435.2017229 287 435.2017229 287 474.312156018 258 c 128,-1,43
 513.422589136 229 513.422589136 229 614.508016272 229 c 0,44,45
 654.220148361 229 654.220148361 229 688.978840678 233.370117188 c 128,-1,46
 723.737532996 237.741210938 723.737532996 237.741210938 753.442894112 246.420898438 c 128,-1,47
 783.148255227 255.100585938 783.148255227 255.100585938 808.218653956 267.606445312 c 128,-1,48
 833.289052685 280.112304688 833.289052685 280.112304688 854.875003272 296.819335938 c 0,49,50
 897.503965138 329.814453125 897.503965138 329.814453125 919.066411858 376.8125 c 128,-1,51
 940.628858579 423.810546875 940.628858579 423.810546875 940.628858579 489 c 2,33,-1
EndSplineSet
EndChar

StartChar: b
Encoding: 98 98 69
Width: 1433
Flags: W
LayerCount: 2
Fore
SplineSet
770.931384073 -20 m 0,0,1
 551.338236569 -20 551.338236569 -20 406.972714362 94.9169921875 c 1,2,-1
 381.200195312 0 l 1,3,-1
 158 0 l 1,4,-1
 158 1556 l 1,5,-1
 449.163679107 1556 l 1,6,-1
 449.163679107 1129 l 2,7,8
 449.163679107 1115.54199219 449.163679107 1115.54199219 448.888876055 1099.796875 c 128,-1,9
 448.61523251 1084.05175781 448.61523251 1084.05175781 448.095773576 1067.078125 c 128,-1,10
 447.57747415 1050.10449219 447.57747415 1050.10449219 446.82843292 1032.05664062 c 1,11,12
 577.834120686 1118 577.834120686 1118 770.931384073 1118 c 0,13,14
 1039.48121703 1118 1039.48121703 1118 1170.98925781 962.452148438 c 0,15,16
 1296 812.654296875 1296 812.654296875 1296 550.8359375 c 0,17,18
 1296 287.209960938 1296 287.209960938 1170.5234375 136.506835938 c 0,19,20
 1038.33678406 -20 1038.33678406 -20 770.931384073 -20 c 0,0,1
458.030425676 663.298828125 m 128,-1,22
 449.163679107 612.69140625 449.163679107 612.69140625 449.163679107 550.721679688 c 0,23,24
 449.163679107 369.434570312 449.163679107 369.434570312 520.265780108 297.840820312 c 0,25,26
 584.661295238 233 584.661295238 233 734.124008228 233 c 0,27,28
 864.730825742 233 864.730825742 233 930.627901851 307.048828125 c 128,-1,29
 996.524977961 381.09765625 996.524977961 381.09765625 996.524977961 552.444335938 c 0,30,31
 996.524977961 720.345703125 996.524977961 720.345703125 930.034234499 792.672851562 c 128,-1,32
 863.543491037 865 863.543491037 865 731.749338819 865 c 0,33,34
 677.348770128 865 677.348770128 865 635.503338334 857.431640625 c 128,-1,35
 593.65790654 849.862304688 593.65790654 849.862304688 565.527118191 836.311523438 c 128,-1,36
 537.397489348 822.760742188 537.397489348 822.760742188 517.471369328 802.487304688 c 0,37,38
 496.863459459 781.520507812 496.863459459 781.520507812 481.880315852 747.712890625 c 128,-1,21
 466.897172245 713.90625 466.897172245 713.90625 458.030425676 663.298828125 c 128,-1,22
EndSplineSet
EndChar

StartChar: c
Encoding: 99 99 70
Width: 1433
Flags: W
LayerCount: 2
Fore
SplineSet
1231.84082031 1055.77734375 m 2,0,-1
 1280.41601562 1037.63867188 l 1,1,-1
 1181.04589844 784.404296875 l 1,2,-1
 1133.88378906 802.326171875 l 2,3,4
 1062.7421875 829.360351562 1062.7421875 829.360351562 993.259895835 842.6796875 c 0,5,6
 918.213782651 856 918.213782651 856 854.155306844 856 c 0,7,8
 655.270997223 856 655.270997223 856 563.017431918 782.234375 c 128,-1,9
 470.763866612 708.46875 470.763866612 708.46875 470.763866612 545.498046875 c 0,10,11
 470.763866612 385.100585938 470.763866612 385.100585938 560.621235416 313.049804688 c 128,-1,12
 650.478604221 241 650.478604221 241 842.174324336 241 c 0,13,14
 1019.11143963 241 1019.11143963 241 1176.96484375 299.705078125 c 2,15,-1
 1246 325.803710938 l 1,16,-1
 1246 59.1806640625 l 1,17,-1
 1216.12988281 45.5830078125 l 2,18,19
 1072.0625 -20 1072.0625 -20 832.589538331 -20 c 0,20,21
 498.9320457 -20 498.9320457 -20 328.500976562 127.200195312 c 0,22,23
 172 273.924804688 172 273.924804688 172 541.794921875 c 0,24,25
 172 818.044921875 172 818.044921875 331.69140625 966.173828125 c 0,26,27
 412.065429688 1040.72753906 412.065429688 1040.72753906 545.11966928 1077.6484375 c 0,28,29
 679.300823272 1118 679.300823272 1118 846.966717339 1118 c 0,30,31
 1065.21191406 1118 1065.21191406 1118 1231.84082031 1055.77734375 c 2,0,-1
EndSplineSet
EndChar

StartChar: d
Encoding: 100 100 71
Width: 1433
Flags: W
LayerCount: 2
Fore
SplineSet
1034.51464844 0 m 1,0,-1
 1015.67637069 90.912109375 l 1,1,2
 875.032864499 -20 875.032864499 -20 662.068615927 -20 c 0,3,4
 393.518782973 -20 393.518782973 -20 262.010742188 135.547851562 c 0,5,6
 198.645507812 211.477539062 198.645507812 211.477539062 167.822265625 314.638671875 c 128,-1,7
 137 417.799804688 137 417.799804688 137 547.1640625 c 0,8,9
 137 810.790039062 137 810.790039062 262.4765625 961.493164062 c 0,10,11
 394.663215935 1118 394.663215935 1118 662.068615927 1118 c 0,12,13
 851.438065763 1118 851.438065763 1118 985.679936304 1031.22753906 c 1,14,15
 985.043367209 1039.77734375 985.043367209 1039.77734375 984.649134983 1046.25097656 c 128,-1,16
 984.256062264 1052.72558594 984.256062264 1052.72558594 984.046191578 1058.43457031 c 128,-1,17
 983.836320893 1064.14355469 983.836320893 1064.14355469 983.836320893 1069 c 2,18,-1
 983.836320893 1556 l 1,19,-1
 1275 1556 l 1,20,-1
 1275 0 l 1,21,-1
 1034.51464844 0 l 1,0,-1
912.272736286 291.66796875 m 0,22,23
 979.257429537 356.314453125 979.257429537 356.314453125 983.836320893 512.4140625 c 1,24,-1
 983.836320893 547.278320312 l 2,25,26
 983.836320893 728.565429688 983.836320893 728.565429688 912.734219892 800.159179688 c 0,27,28
 848.338704762 865 848.338704762 865 698.875991772 865 c 0,29,30
 568.269174258 865 568.269174258 865 502.372098149 790.951171875 c 128,-1,31
 436.475022039 716.90234375 436.475022039 716.90234375 436.475022039 545.555664062 c 0,32,33
 436.475022039 377.654296875 436.475022039 377.654296875 502.965765501 305.327148438 c 128,-1,34
 569.456508963 233 569.456508963 233 701.250661181 233 c 0,35,36
 754.702753516 233 754.702753516 233 796.046118975 240.190429688 c 128,-1,37
 837.389484434 247.380859375 837.389484434 247.380859375 865.057629671 260.091796875 c 128,-1,38
 892.725774908 272.803710938 892.725774908 272.803710938 912.272736286 291.66796875 c 0,22,23
EndSplineSet
EndChar

StartChar: e
Encoding: 101 101 72
Width: 1433
Flags: W
LayerCount: 2
Fore
SplineSet
1300 614.4921875 m 2,0,-1
 1300 463 l 1,1,-1
 435.552431536 463 l 1,2,3
 452.055145027 346.326171875 452.055145027 346.326171875 533.65425948 293.663085938 c 128,-1,4
 615.254524188 241 615.254524188 241 777.159866081 241 c 0,5,6
 994.361433362 241 994.361433362 241 1168.68457031 312.779296875 c 2,7,-1
 1240 343.75 l 1,8,-1
 1240 73.078125 l 1,9,-1
 1209.99804688 59.5234375 l 2,10,11
 1030.38398012 -20 1030.38398012 -20 784.227034945 -20 c 0,12,13
 470.471883419 -20 470.471883419 -20 294.634765625 131.19140625 c 0,14,15
 240.426757812 181.786132812 240.426757812 181.786132812 204.298828125 245.331054688 c 128,-1,16
 168.170898438 308.875 168.170898438 308.875 150.5859375 382.79296875 c 128,-1,17
 133 456.7109375 133 456.7109375 133 541.658203125 c 0,18,19
 133 803.30859375 133 803.30859375 281.049804688 959.235351562 c 0,20,21
 441.227791428 1118 441.227791428 1118 735.934714375 1118 c 0,22,23
 803.368434206 1118 803.368434206 1118 865.094586995 1108.66015625 c 128,-1,24
 926.820739784 1099.31933594 926.820739784 1099.31933594 982.463192033 1080.69921875 c 0,25,26
 1038.10564428 1063.49804688 1038.10564428 1063.49804688 1082.36621094 1037.36816406 c 0,27,28
 1124.19042969 1011.23828125 1124.19042969 1011.23828125 1159.58496094 976.604492188 c 0,29,30
 1300 839.208984375 1300 839.208984375 1300 614.4921875 c 2,0,-1
496.442348687 799.594726562 m 128,-1,32
 461.314700586 766.26171875 461.314700586 766.26171875 445.329602002 713 c 1,33,-1
 988.839057432 713 l 1,34,35
 976.672806607 793.942382812 976.672806607 793.942382812 916.160173211 829.471679688 c 128,-1,36
 855.647539814 865 855.647539814 865 731.223268466 865 c 0,37,38
 646.741614109 865 646.741614109 865 589.155230321 848.963867188 c 128,-1,31
 531.568846532 832.927734375 531.568846532 832.927734375 496.442348687 799.594726562 c 128,-1,32
EndSplineSet
EndChar

StartChar: f
Encoding: 102 102 73
Width: 1433
Flags: W
LayerCount: 2
Fore
SplineSet
1248 1098 m 1,0,-1
 1248 859 l 1,1,-1
 819.409822777 859 l 1,2,-1
 859 0 l 1,3,-1
 575 0 l 1,4,-1
 485.515695796 859 l 1,5,-1
 156 859 l 1,6,-1
 156 1065.96679688 l 1,7,-1
 485.515695796 1098.96679688 l 1,8,-1
 485.515695796 1149 l 2,9,10
 485.515695796 1363.6328125 485.515695796 1363.6328125 609.613456934 1465.66796875 c 0,11,12
 732.855862367 1567 732.855862367 1567 1002.81645591 1567 c 0,13,14
 1151.11523438 1567 1151.11523438 1567 1280.95800781 1530.05273438 c 2,15,-1
 1330.109375 1516.06640625 l 1,16,-1
 1261.1953125 1275.70800781 l 1,17,-1
 1212.74121094 1288.75390625 l 2,18,19
 1163.87597656 1301.90917969 1163.87597656 1301.90917969 1115.48828125 1308.45507812 c 0,20,21
 1064.07025752 1315 1064.07025752 1315 1007.51919009 1315 c 0,22,23
 890.016278842 1315 890.016278842 1315 856.192414334 1282.30761719 c 0,24,25
 819.409822777 1246.75488281 819.409822777 1246.75488281 819.409822777 1151 c 2,26,-1
 819.409822777 1098 l 1,27,-1
 1248 1098 l 1,0,-1
EndSplineSet
EndChar

StartChar: g
Encoding: 103 103 74
Width: 1433
Flags: W
LayerCount: 2
Fore
SplineSet
880.267032403 1098 m 1,0,-1
 1330 1098 l 1,1,-1
 1330 902.717773438 l 1,2,-1
 1165.45019531 881.482421875 l 1,3,4
 1199 809.833007812 1199 809.833007812 1199 719.53125 c 0,5,6
 1199 547.375976562 1199 547.375976562 1074.15048815 443.670898438 c 0,7,8
 933.663198111 342 933.663198111 342 690.463245492 342 c 0,9,10
 638.582644449 342 638.582644449 342 602.626241174 345.810546875 c 1,11,12
 592.9161986 342.079101562 592.9161986 342.079101562 584.765929383 338.390625 c 0,13,14
 533.760433741 320.85546875 533.760433741 320.85546875 533.760433741 301.559570312 c 0,15,16
 533.760433741 284 533.760433741 284 661.444206279 284 c 2,17,-1
 878.506619594 284 l 2,18,19
 1099.52636719 284 1099.52636719 284 1205.73339844 195.109375 c 0,20,21
 1316 102.8203125 1316 102.8203125 1316 -64 c 0,22,23
 1316 -278 1316 -278 1155.5 -385 c 0,24,25
 980.653637625 -492 980.653637625 -492 638.228974909 -492 c 0,26,27
 585.149071385 -492 585.149071385 -492 537.14863328 -488.678710938 c 128,-1,28
 489.149328732 -485.357421875 489.149328732 -485.357421875 444.574497522 -478.393554688 c 128,-1,29
 399.999666311 -471.430664062 399.999666311 -471.430664062 360.485030064 -460.831054688 c 0,30,31
 324.6796875 -450.232421875 324.6796875 -450.232421875 294.004882812 -435.504882812 c 128,-1,32
 263.329101562 -420.776367188 263.329101562 -420.776367188 236.99609375 -402.099609375 c 0,33,34
 102 -306.353515625 102 -306.353515625 102 -135 c 0,35,36
 102 26.2529296875 102 26.2529296875 243.184570312 108.760742188 c 0,37,38
 265.27734375 121.495117188 265.27734375 121.495117188 289.075195312 131.517578125 c 1,39,40
 267.165039062 157.815429688 267.165039062 157.815429688 256.58203125 189.293945312 c 128,-1,41
 246 220.772460938 246 220.772460938 246 256.41796875 c 0,42,43
 246 353.99609375 246 353.99609375 336.518554688 428.924804688 c 1,44,45
 282.634765625 466.244140625 282.634765625 466.244140625 246.200195312 522.631835938 c 0,46,47
 188 612.705078125 188 612.705078125 188 718.918945312 c 0,48,49
 188 907.518554688 188 907.518554688 310.87109375 1012.42773438 c 0,50,51
 376.17911592 1064.82714844 376.17911592 1064.82714844 475.075094713 1090.3515625 c 0,52,53
 573.971073507 1118 573.971073507 1118 697.427814904 1118 c 0,54,55
 800.431801436 1118 800.431801436 1118 880.267032403 1098 c 1,0,-1
535.501576094 603.872070312 m 128,-1,57
 582.512419619 569 582.512419619 569 692.784768629 569 c 0,58,59
 800.735594503 569 800.735594503 569 846.585676459 603.872070312 c 128,-1,60
 892.435758416 638.744140625 892.435758416 638.744140625 892.435758416 723.125 c 0,61,62
 892.435758416 810.951171875 892.435758416 810.951171875 845.424914891 847.975585938 c 128,-1,63
 798.414071366 885 798.414071366 885 690.463245492 885 c 128,-1,64
 582.512419619 885 582.512419619 885 535.501576094 847.544921875 c 128,-1,65
 488.490732568 810.08984375 488.490732568 810.08984375 488.490732568 720.541992188 c 0,66,56
 488.490732568 638.744140625 488.490732568 638.744140625 535.501576094 603.872070312 c 128,-1,57
935.985854804 10.861328125 m 128,-1,68
 883.102056507 18 883.102056507 18 806.539402345 18 c 2,69,-1
 588.316227462 18 l 2,70,71
 473.400832178 18 473.400832178 18 426.970369436 -16.5 c 128,-1,72
 380.539906695 -51 380.539906695 -51 380.539906695 -129 c 0,73,74
 380.539906695 -190 380.539906695 -190 436.836842769 -221 c 128,-1,75
 493.133778843 -252 493.133778843 -252 635.907451772 -252 c 0,76,77
 851.809103518 -252 851.809103518 -252 943.509267432 -207.5 c 128,-1,78
 1035.20943135 -163 1035.20943135 -163 1035.20943135 -80 c 0,79,80
 1035.20943135 -20.6298828125 1035.20943135 -20.6298828125 1005.54199797 -5.0390625 c 0,81,67
 988.870786658 3.7216796875 988.870786658 3.7216796875 935.985854804 10.861328125 c 128,-1,68
EndSplineSet
EndChar

StartChar: h
Encoding: 104 104 75
Width: 1433
Flags: W
LayerCount: 2
Fore
SplineSet
1273 0 m 1,0,-1
 989 0 l 1,1,-1
 989 678.045898438 l 2,2,3
 989 779.125976562 989 779.125976562 934.869074492 822.063476562 c 128,-1,4
 880.738148984 865 880.738148984 865 758.943566591 865 c 0,5,6
 597.781038375 865 597.781038375 865 520.890519187 792.543945312 c 128,-1,7
 444 720.087890625 444 720.087890625 444 554.6015625 c 2,8,-1
 444 0 l 1,9,-1
 160 0 l 1,10,-1
 160 1556 l 1,11,-1
 444 1556 l 1,12,-1
 444 1041.58398438 l 1,13,-1
 443.3515625 1029.9140625 l 1,14,15
 581.110212683 1118 581.110212683 1118 797.081264108 1118 c 0,16,17
 1046 1118 1046 1118 1159.5 1010.78222656 c 128,-1,18
 1273 903.563476562 1273 903.563476562 1273 703.790039062 c 2,19,-1
 1273 0 l 1,0,-1
EndSplineSet
EndChar

StartChar: i
Encoding: 105 105 76
Width: 1433
Flags: W
LayerCount: 2
Fore
SplineSet
568.5 1504.5 m 128,-1,1
 611 1550 611 1550 684 1550 c 0,2,3
 756 1550 756 1550 798.5 1504.5 c 0,4,5
 856.361445783 1459 856.361445783 1459 856.361445783 1385 c 0,6,7
 856.361445783 1304.36621094 856.361445783 1304.36621094 792.716796875 1260.68164062 c 0,8,9
 746.647460938 1219 746.647460938 1219 684 1219 c 0,10,11
 611 1219 611 1219 568.5 1265 c 128,-1,12
 526 1311 526 1311 526 1385 c 128,-1,0
 526 1459 526 1459 568.5 1504.5 c 128,-1,1
561.513593187 221.541015625 m 1,13,-1
 541 876.411132812 l 1,14,-1
 272 895.625976562 l 1,15,-1
 272 1098 l 1,16,-1
 825 1098 l 1,17,-1
 904.815918768 221.598632812 l 1,18,-1
 1279 203.298828125 l 1,19,-1
 1279 0 l 1,20,-1
 197 0 l 1,21,-1
 197 203.240234375 l 1,22,-1
 561.513593187 221.541015625 l 1,13,-1
EndSplineSet
EndChar

StartChar: j
Encoding: 106 106 77
Width: 1433
Flags: W
LayerCount: 2
Fore
SplineSet
771.983549836 1504.5 m 0,0,1
 824 1550 824 1550 896 1550 c 0,2,3
 969 1550 969 1550 1011.5 1504.5 c 128,-1,4
 1054 1459 1054 1459 1054 1385 c 128,-1,5
 1054 1311 1054 1311 1011.5 1265 c 128,-1,6
 969 1219 969 1219 896 1219 c 0,7,8
 824 1219 824 1219 771.983549836 1265 c 0,9,10
 716.326453806 1311 716.326453806 1311 716.326453806 1385 c 128,-1,11
 716.326453806 1459 716.326453806 1459 771.983549836 1504.5 c 0,0,1
172.041992188 -455.052734375 m 2,12,-1
 135 -444.512695312 l 1,13,-1
 135 -184.041015625 l 1,14,-1
 200.251953125 -203.032226562 l 2,15,16
 327.270507812 -240 327.270507812 -240 504.174699527 -240 c 0,17,18
 538.067722481 -240 538.067722481 -240 567.392566506 -236.9765625 c 128,-1,19
 596.717410531 -233.954101562 596.717410531 -233.954101562 620.699071027 -228.102539062 c 128,-1,20
 644.679452637 -222.250976562 644.679452637 -222.250976562 664.037942127 -214.182617188 c 128,-1,21
 683.396431617 -206.114257812 683.396431617 -206.114257812 699.328786909 -195.52734375 c 0,22,23
 762.16170936 -153.774414062 762.16170936 -153.774414062 762.16170936 -76 c 2,24,-1
 762.16170936 873.952148438 l 1,25,-1
 252 893.2734375 l 1,26,-1
 252 1098 l 1,27,-1
 1058 1098 l 1,28,-1
 1058 -66 l 2,29,30
 1058 -269.35546875 1058 -269.35546875 927.31640625 -382.11328125 c 0,31,32
 796.159600924 -492 796.159600924 -492 501.555542066 -492 c 0,33,34
 301.884765625 -492 301.884765625 -492 172.041992188 -455.052734375 c 2,12,-1
EndSplineSet
EndChar

StartChar: k
Encoding: 107 107 78
Width: 1433
Flags: W
LayerCount: 2
Fore
SplineSet
497 789.588867188 m 1,0,-1
 488.7421875 640.436523438 l 1,1,-1
 539.327018414 689.043945312 l 1,2,-1
 1037.65067458 1098 l 1,3,-1
 1414.62109375 1098 l 1,4,-1
 817.88547047 613.27734375 l 1,5,-1
 1425.26757812 -0 l 1,6,-1
 1079.33007812 0 l 1,7,-1
 579.183155246 488.077148438 l 1,8,-1
 497 444.987304688 l 1,9,-1
 497 0 l 1,10,-1
 215 0 l 1,11,-1
 215 1556 l 1,12,-1
 497 1556 l 1,13,-1
 497 789.588867188 l 1,0,-1
EndSplineSet
EndChar

StartChar: l
Encoding: 108 108 79
Width: 1433
Flags: W
LayerCount: 2
Fore
SplineSet
552.471684236 224.690429688 m 1,0,-1
 552.471684236 1314.83984375 l 1,1,-1
 264 1335.83984375 l 1,2,-1
 264 1556 l 1,3,-1
 896.8612405 1556 l 1,4,-1
 896.8612405 227.28515625 l 1,5,-1
 1271 208.515625 l 1,6,-1
 1271 0 l 1,7,-1
 188 0 l 1,8,-1
 188 206.129882812 l 1,9,-1
 552.471684236 224.690429688 l 1,0,-1
EndSplineSet
EndChar

StartChar: m
Encoding: 109 109 80
Width: 1535
Flags: W
LayerCount: 2
Fore
SplineSet
1445 0 m 1,0,-1
 1181 0 l 1,1,-1
 1181 678.045898438 l 2,2,3
 1181 798.55859375 1181 798.55859375 1146.86227741 840.400390625 c 0,4,5
 1134.81871945 855.16015625 1134.81871945 855.16015625 1121.41228941 860.080078125 c 128,-1,6
 1108.00585938 865 1108.00585938 865 1080.53072626 865 c 0,7,8
 1010.2592637 865 1010.2592637 865 972.383990922 834.623046875 c 0,9,10
 962.584802723 826.764648438 962.584802723 826.764648438 954.238935929 816.771484375 c 0,11,12
 900 751.828125 900 751.828125 900 587.69921875 c 2,13,-1
 900 0 l 1,14,-1
 637 0 l 1,15,-1
 637 678.045898438 l 2,16,17
 637 865 637 865 520.832402235 865 c 0,18,19
 489.469481058 865 489.469481058 865 469.081589342 860.181640625 c 128,-1,20
 448.692164586 855.362304688 448.692164586 855.362304688 432.428149005 845.114257812 c 0,21,22
 425.074158738 840.481445312 425.074158738 840.481445312 418.276661793 834.41796875 c 128,-1,23
 411.477631809 828.353515625 411.477631809 828.353515625 405.385333013 820.6875 c 0,24,25
 383.858392982 793.599609375 383.858392982 793.599609375 369.929196491 724.23046875 c 128,-1,26
 356 654.861328125 356 654.861328125 356 554.6015625 c 2,27,-1
 356 0 l 1,28,-1
 92 0 l 1,29,-1
 92 1098 l 1,30,-1
 312.538085938 1098 l 1,31,-1
 324.78125 1030.88574219 l 1,32,33
 364.122043034 1073.67382812 364.122043034 1073.67382812 437.102386304 1095.83691406 c 128,-1,34
 510.081196535 1118 510.081196535 1118 594.61452514 1118 c 0,35,36
 681.239257812 1118 681.239257812 1118 738.331054688 1086.73242188 c 128,-1,37
 795.422851562 1055.46386719 795.422851562 1055.46386719 831.282226562 996.604492188 c 1,38,39
 872.20703125 1055.35449219 872.20703125 1055.35449219 942.935836025 1086.67773438 c 0,40,41
 1029.50044191 1118 1029.50044191 1118 1132.33519553 1118 c 0,42,43
 1186.99902344 1118 1186.99902344 1118 1220.421875 1110.72949219 c 128,-1,44
 1253.84570312 1103.45996094 1253.84570312 1103.45996094 1283.02539062 1089.09667969 c 128,-1,45
 1312.20507812 1074.73242188 1312.20507812 1074.73242188 1336.63085938 1052.63769531 c 0,46,47
 1361.05664062 1032.49414062 1361.05664062 1032.49414062 1379.20898438 1006.10253906 c 0,48,49
 1445 910.4453125 1445 910.4453125 1445 700.155273438 c 2,50,-1
 1445 0 l 1,0,-1
EndSplineSet
EndChar

StartChar: n
Encoding: 110 110 81
Width: 1433
Flags: W
LayerCount: 2
Fore
SplineSet
1273 0 m 1,0,-1
 989 0 l 1,1,-1
 989 678.045898438 l 2,2,3
 989 779.125976562 989 779.125976562 934.869074492 822.063476562 c 128,-1,4
 880.738148984 865 880.738148984 865 758.943566591 865 c 0,5,6
 597.781038375 865 597.781038375 865 520.890519187 792.543945312 c 128,-1,7
 444 720.087890625 444 720.087890625 444 554.6015625 c 2,8,-1
 444 0 l 1,9,-1
 160 0 l 1,10,-1
 160 1098 l 1,11,-1
 400.538085938 1098 l 1,12,-1
 417.098632812 1007.22070312 l 1,13,14
 554.710333486 1118 554.710333486 1118 797.081264108 1118 c 0,15,16
 1046 1118 1046 1118 1159.5 1010.78222656 c 128,-1,17
 1273 903.563476562 1273 903.563476562 1273 703.790039062 c 2,18,-1
 1273 0 l 1,0,-1
EndSplineSet
EndChar

StartChar: o
Encoding: 111 111 82
Width: 1433
Flags: W
LayerCount: 2
Fore
SplineSet
1165.99414062 135.490234375 m 0,0,1
 1004.31284942 -20 1004.31284942 -20 711.412326332 -20 c 0,2,3
 432.559759876 -20 432.559759876 -20 267.537109375 137.755859375 c 0,4,5
 115 293.306640625 115 293.306640625 115 549.022460938 c 0,6,7
 115 807.3984375 115 807.3984375 263.430664062 959.721679688 c 0,8,9
 338.4765625 1036.73535156 338.4765625 1036.73535156 453.915117512 1075.56054688 c 0,10,11
 573.096352902 1118 573.096352902 1118 718.419766906 1118 c 0,12,13
 857.183970177 1118 857.183970177 1118 973.808128457 1074.64355469 c 0,14,15
 1087.52929688 1034.98339844 1087.52929688 1034.98339844 1163.96875 957.010742188 c 0,16,17
 1316 801.9296875 1316 801.9296875 1316 548.981445312 c 0,18,19
 1316 288.735351562 1316 288.735351562 1165.99414062 135.490234375 c 0,0,1
487.174227958 307.479492188 m 128,-1,21
 561.920260749 233 561.920260749 233 716.083953381 233 c 0,22,23
 869.079739251 233 869.079739251 233 943.825772042 307.479492188 c 128,-1,24
 1018.57180483 381.958984375 1018.57180483 381.958984375 1018.57180483 550.721679688 c 0,25,26
 1018.57180483 717.762695312 1018.57180483 717.762695312 943.825772042 791.381835938 c 128,-1,27
 869.079739251 865 869.079739251 865 713.748139856 865 c 0,28,29
 560.752353987 865 560.752353987 865 486.590274577 791.381835938 c 128,-1,30
 412.428195167 717.762695312 412.428195167 717.762695312 412.428195167 550.721679688 c 0,31,20
 412.428195167 381.958984375 412.428195167 381.958984375 487.174227958 307.479492188 c 128,-1,21
EndSplineSet
EndChar

StartChar: p
Encoding: 112 112 83
Width: 1433
Flags: W
LayerCount: 2
Fore
SplineSet
771.350015552 -20 m 0,0,1
 582.428798323 -20 582.428798323 -20 448.208677146 65.9775390625 c 1,2,3
 449.189307204 52.7841796875 449.189307204 52.7841796875 449.626943759 44.02734375 c 128,-1,4
 450.064580313 35.271484375 450.064580313 35.271484375 450.064580313 28 c 2,5,-1
 450.064580313 -492 l 1,6,-1
 158 -492 l 1,7,-1
 158 1098 l 1,8,-1
 398.538085938 1098 l 1,9,-1
 418.127531727 1007.42382812 l 1,10,11
 556.770329199 1118 556.770329199 1118 771.350015552 1118 c 0,12,13
 1039.49734243 1118 1039.49734243 1118 1170.98925781 962.452148438 c 0,14,15
 1296 812.654296875 1296 812.654296875 1296 550.8359375 c 0,16,17
 1296 287.209960938 1296 287.209960938 1170.5234375 136.506835938 c 0,18,19
 1038.35462476 -20 1038.35462476 -20 771.350015552 -20 c 0,0,1
521.42133636 806.666992188 m 0,20,21
 454.636608766 742.481445312 454.636608766 742.481445312 450.064580313 585.587890625 c 1,22,-1
 450.064580313 550.721679688 l 2,23,24
 450.064580313 369.434570312 450.064580313 369.434570312 521.060112537 297.840820312 c 0,25,26
 585.359110811 233 585.359110811 233 734.597807093 233 c 0,27,28
 865.008869367 233 865.008869367 233 930.807178059 307.048828125 c 128,-1,29
 996.605486752 381.09765625 996.605486752 381.09765625 996.605486752 552.444335938 c 0,30,31
 996.605486752 720.345703125 996.605486752 720.345703125 930.214400504 792.672851562 c 128,-1,32
 863.823314255 865 863.823314255 865 732.22669687 865 c 0,33,34
 653.185830202 865 653.185830202 865 602.099287918 850.052734375 c 128,-1,35
 551.011587866 835.10546875 551.011587866 835.10546875 521.42133636 806.666992188 c 0,20,21
EndSplineSet
EndChar

StartChar: q
Encoding: 113 113 84
Width: 1433
Flags: W
LayerCount: 2
Fore
SplineSet
939.566563315 1054.58789062 m 128,-1,1
 979.729558257 1033.55664062 979.729558257 1033.55664062 1014.55639743 1005.96289062 c 1,2,-1
 1034.46191406 1098 l 1,3,-1
 1275 1098 l 1,4,-1
 1275 -492 l 1,5,-1
 982.935419687 -492 l 1,6,-1
 982.935419687 28 l 2,7,8
 982.935419687 43.201171875 982.935419687 43.201171875 984.681334831 69.0009765625 c 1,9,10
 851.820434065 -20 851.820434065 -20 661.649984448 -20 c 0,11,12
 393.502657566 -20 393.502657566 -20 262.010742188 135.547851562 c 0,13,14
 198.645507812 211.477539062 198.645507812 211.477539062 167.822265625 314.638671875 c 128,-1,15
 137 417.799804688 137 417.799804688 137 547.1640625 c 0,16,17
 137 810.790039062 137 810.790039062 262.4765625 961.493164062 c 0,18,19
 394.645375237 1118 394.645375237 1118 661.649984448 1118 c 0,20,21
 713.43118793 1118 713.43118793 1118 762.013476594 1110.85839844 c 128,-1,22
 810.595765259 1103.71679688 810.595765259 1103.71679688 854.999666816 1089.66894531 c 128,-1,0
 899.403568373 1075.62011719 899.403568373 1075.62011719 939.566563315 1054.58789062 c 128,-1,1
911.479095535 291.66796875 m 0,23,24
 978.363391234 356.314453125 978.363391234 356.314453125 982.935419687 512.4140625 c 1,25,-1
 982.935419687 547.278320312 l 2,26,27
 982.935419687 728.565429688 982.935419687 728.565429688 911.939887463 800.159179688 c 0,28,29
 847.640889189 865 847.640889189 865 698.402192907 865 c 0,30,31
 567.991130633 865 567.991130633 865 502.192821941 790.951171875 c 128,-1,32
 436.394513248 716.90234375 436.394513248 716.90234375 436.394513248 545.555664062 c 0,33,34
 436.394513248 377.654296875 436.394513248 377.654296875 502.785599496 305.327148438 c 128,-1,35
 569.176685745 233 569.176685745 233 700.77330313 233 c 0,36,37
 754.145280756 233 754.145280756 233 795.426680227 240.190429688 c 128,-1,38
 836.708079699 247.380859375 836.708079699 247.380859375 864.334755551 260.091796875 c 128,-1,39
 891.961431403 272.803710938 891.961431403 272.803710938 911.479095535 291.66796875 c 0,23,24
EndSplineSet
EndChar

StartChar: r
Encoding: 114 114 85
Width: 1433
Flags: W
LayerCount: 2
Fore
SplineSet
1229.64941406 1069.84863281 m 2,0,-1
 1274.42480469 1053.33300781 l 1,1,-1
 1196.52539062 789.428710938 l 1,2,-1
 1145.47753906 808.104492188 l 2,3,4
 1116.46191406 818.719726562 1116.46191406 818.719726562 1088.83203125 826.65234375 c 128,-1,5
 1061.203125 834.584960938 1061.203125 834.584960938 1035.40820312 839.740234375 c 0,6,7
 1004.9637014 844.895507812 1004.9637014 844.895507812 975.050546232 847.447265625 c 128,-1,8
 945.138605956 850 945.138605956 850 917.117042963 850 c 0,9,10
 741.441949515 850 741.441949515 850 650.081813504 781.466796875 c 0,11,12
 648.088170111 779.971679688 648.088170111 779.971679688 646.140692744 778.448242188 c 128,-1,13
 644.193215376 776.923828125 644.193215376 776.923828125 642.288259349 775.369140625 c 128,-1,14
 640.384518217 773.814453125 640.384518217 773.814453125 638.523298425 772.228515625 c 0,15,16
 598.957799097 738.524414062 598.957799097 738.524414062 578.271774684 689.44921875 c 128,-1,17
 557.585750271 640.374023438 557.585750271 640.374023438 557.585750271 574.107421875 c 2,18,-1
 557.585750271 0 l 1,19,-1
 264 0 l 1,20,-1
 264 1098 l 1,21,-1
 508.72265625 1098 l 1,22,-1
 526.1321077 970.141601562 l 1,23,24
 590.067194371 1027.11230469 590.067194371 1027.11230469 659.856862099 1059.99804688 c 0,25,26
 782.950066629 1118 782.950066629 1118 958.170789188 1118 c 0,27,28
 1099.10546875 1118 1099.10546875 1118 1229.64941406 1069.84863281 c 2,0,-1
EndSplineSet
EndChar

StartChar: s
Encoding: 115 115 86
Width: 1433
Flags: W
LayerCount: 2
Fore
SplineSet
229.65234375 55.1865234375 m 2,0,-1
 203 69.66796875 l 1,1,-1
 203 344.559570312 l 1,2,-1
 274.7578125 312.583984375 l 2,3,4
 459.987233317 231 459.987233317 231 665.234843591 231 c 0,5,6
 820.883270278 231 820.883270278 231 881.413213989 256.943359375 c 128,-1,7
 941.9431577 282.88671875 941.9431577 282.88671875 941.9431577 330.30078125 c 0,8,9
 941.9431577 360.30859375 941.9431577 360.30859375 903.413464776 384.225585938 c 0,10,11
 851.629576786 416.370117188 851.629576786 416.370117188 643.503609415 470.869140625 c 0,12,13
 541.552345805 498.4375 541.552345805 498.4375 469.360592346 522.490234375 c 0,14,15
 406.99609375 546.54296875 406.99609375 546.54296875 362.109375 572.974609375 c 128,-1,16
 317.223632812 599.407226562 317.223632812 599.407226562 291.342773438 627.15234375 c 0,17,18
 219 704.70703125 219 704.70703125 219 809.80859375 c 0,19,20
 219 955.326171875 219 955.326171875 352.392578125 1038.27050781 c 0,21,22
 415.944335938 1077.78808594 415.944335938 1077.78808594 512.622806181 1096.77539062 c 0,23,24
 617.022965394 1118 617.022965394 1118 746.764971856 1118 c 0,25,26
 1000.56152344 1118 1000.56152344 1118 1181.25488281 1039.80566406 c 2,27,-1
 1226.87695312 1020.0625 l 1,28,-1
 1129.37402344 777.9296875 l 1,29,-1
 1082.23925781 796.576171875 l 2,30,31
 891.639464245 865 891.639464245 865 734.411922119 865 c 0,32,33
 602.234289933 865 602.234289933 865 554.057395958 845.2734375 c 128,-1,34
 505.880501984 825.546875 505.880501984 825.546875 505.880501984 791.474609375 c 0,35,36
 505.880501984 760.149414062 505.880501984 760.149414062 542.167585586 741.112304688 c 0,37,38
 597.281006513 712.198242188 597.281006513 712.198242188 813.864711355 656.051757812 c 0,39,40
 1068.95898438 583.200195312 1068.95898438 583.200195312 1146.79199219 508.389648438 c 0,41,42
 1230 428.4140625 1230 428.4140625 1230 313.556640625 c 0,43,44
 1230 155.836914062 1230 155.836914062 1092.09082031 65.4716796875 c 0,45,46
 956.33253048 -20 956.33253048 -20 671.41136846 -20 c 0,47,48
 368.040039062 -20 368.040039062 -20 229.65234375 55.1865234375 c 2,0,-1
EndSplineSet
EndChar

StartChar: t
Encoding: 116 116 87
Width: 1433
Flags: W
LayerCount: 2
Fore
SplineSet
1165.78710938 251.487304688 m 2,0,-1
 1224 259.803710938 l 1,1,-1
 1224 23.03125 l 1,2,-1
 1185.19042969 13.478515625 l 2,3,4
 1049.18457031 -20 1049.18457031 -20 908.033689797 -20 c 0,5,6
 669.437082898 -20 669.437082898 -20 539.895995819 71.39453125 c 128,-1,7
 410.35490874 162.7890625 410.35490874 162.7890625 410.35490874 333.9296875 c 2,8,-1
 410.35490874 859 l 1,9,-1
 139 859 l 1,10,-1
 139 1046.4921875 l 1,11,-1
 422.5182143 1097.34472656 l 1,12,-1
 517.456956498 1391 l 1,13,-1
 752.584385302 1391 l 1,14,-1
 752.584385302 1098 l 1,15,-1
 1230 1098 l 1,16,-1
 1230 859 l 1,17,-1
 752.584385302 859 l 1,18,-1
 752.584385302 354.879882812 l 2,19,20
 752.584385302 286.057617188 752.584385302 286.057617188 790.542936399 258.528320312 c 128,-1,21
 828.501487497 231 828.501487497 231 922.494090215 231 c 0,22,23
 975.548508546 231 975.548508546 231 1035.50976562 236.115234375 c 0,24,25
 1093.9921875 241.23046875 1093.9921875 241.23046875 1165.78710938 251.487304688 c 2,0,-1
EndSplineSet
EndChar

StartChar: u
Encoding: 117 117 88
Width: 1433
Flags: W
LayerCount: 2
Fore
SplineSet
1273 0 m 1,0,-1
 1032.51464844 0 l 1,1,-1
 1015.84863281 90.7333984375 l 1,2,3
 877.632492858 -20 877.632492858 -20 638.379232506 -20 c 0,4,5
 388 -20 388 -20 274 87.2177734375 c 128,-1,6
 160 194.436523438 160 194.436523438 160 394.209960938 c 2,7,-1
 160 1098 l 1,8,-1
 444 1098 l 1,9,-1
 444 419.954101562 l 2,10,11
 444 317.979492188 444 317.979492188 497.515801354 275.489257812 c 128,-1,12
 551.031602709 233 551.031602709 233 671.595936795 233 c 0,13,14
 839.510413727 233 839.510413727 233 911.710611244 298.62109375 c 0,15,16
 989 368.868164062 989 368.868164062 989 542.50390625 c 2,17,-1
 989 1098 l 1,18,-1
 1273 1098 l 1,19,-1
 1273 0 l 1,0,-1
EndSplineSet
EndChar

StartChar: v
Encoding: 118 118 89
Width: 1433
Flags: W
LayerCount: 2
Fore
SplineSet
914.167031026 0 m 1,0,-1
 562.727027092 0 l 1,1,-1
 82 1098 l 1,2,-1
 379.432617188 1098 l 1,3,-1
 673.579241574 412.611328125 l 2,4,5
 713.215512019 320.22265625 713.215512019 320.22265625 740.309177753 248.51953125 c 1,6,7
 765.872591059 316.681640625 765.872591059 316.681640625 802.998291117 411.869140625 c 2,8,-1
 1096.23632812 1098 l 1,9,-1
 1394.71972656 1098 l 1,10,-1
 914.167031026 0 l 1,0,-1
EndSplineSet
EndChar

StartChar: w
Encoding: 119 119 90
Width: 1535
Flags: W
LayerCount: 2
Fore
SplineSet
1214.0078125 -0 m 1,0,-1
 936.391601562 0 l 1,1,-1
 796.516601562 636.37890625 l 1,2,-1
 776.7421875 732.33984375 l 1,3,-1
 757.303710938 632.45703125 l 1,4,-1
 511.078125 -0 l 1,5,-1
 239.715820312 0 l 1,6,-1
 -4 1098 l 1,7,-1
 263.018554688 1098 l 1,8,-1
 368.578125 513.114257812 l 2,9,10
 372.990234375 488.977539062 372.990234375 488.977539062 377.345703125 463.723632812 c 128,-1,11
 381.701171875 438.469726562 381.701171875 438.469726562 385.727539062 413.71875 c 1,12,13
 389.291992188 431.12890625 389.291992188 431.12890625 392.619140625 447.026367188 c 128,-1,14
 395.946289062 462.923828125 395.946289062 462.923828125 399.609375 480.051757812 c 2,15,-1
 643.801757812 1098 l 1,16,-1
 918.41015625 1098 l 1,17,-1
 1054.20703125 479.963867188 l 2,18,19
 1058.03320312 462.609375 1058.03320312 462.609375 1061.75683594 445.286132812 c 128,-1,20
 1065.47949219 427.962890625 1065.47949219 427.962890625 1069.06054688 410.864257812 c 1,21,22
 1078.27832031 466.571289062 1078.27832031 466.571289062 1087.29492188 513.517578125 c 2,23,-1
 1299.08691406 1098 l 1,24,-1
 1561.91015625 1098 l 1,25,-1
 1214.0078125 -0 l 1,0,-1
EndSplineSet
EndChar

StartChar: x
Encoding: 120 120 91
Width: 1433
Flags: W
LayerCount: 2
Fore
SplineSet
96 0 m 1,0,-1
 566.111219967 561.82421875 l 1,1,-1
 117.0625 1098 l 1,2,-1
 451.202148438 1098 l 1,3,-1
 765.791131428 725.215820312 l 1,4,-1
 1081.46484375 1098 l 1,5,-1
 1415.85546875 1098 l 1,6,-1
 964.142802891 561.720703125 l 1,7,-1
 1433.46972656 0 l 1,8,-1
 1100.49121094 0 l 1,9,-1
 765.822421778 399.08203125 l 1,10,-1
 430.073242188 0 l 1,11,-1
 96 0 l 1,0,-1
EndSplineSet
EndChar

StartChar: y
Encoding: 121 121 92
Width: 1433
Flags: W
LayerCount: 2
Fore
SplineSet
590.028375501 40.3896484375 m 1,0,-1
 82 1098 l 1,1,-1
 380.711914062 1098 l 1,2,-1
 701.075320035 411.94140625 l 2,3,4
 732.610808236 344.303710938 732.610808236 344.303710938 755.010293393 288.958007812 c 1,5,6
 777.075118085 346.567382812 777.075118085 346.567382812 805.755747622 412.671875 c 2,7,-1
 1098.57910156 1098 l 1,8,-1
 1397.33203125 1098 l 1,9,-1
 862.232546895 -110.278320312 l 2,10,11
 779.491730901 -294.627929688 779.491730901 -294.627929688 666.575696285 -389.8671875 c 0,12,13
 545.48666119 -492 545.48666119 -492 344.203125 -492 c 0,14,15
 252.971679688 -492 252.971679688 -492 165.849609375 -473.938476562 c 2,16,-1
 125.203125 -465.51171875 l 1,17,-1
 125.203125 -217.182617188 l 1,18,-1
 185.89453125 -228.9296875 l 2,19,20
 243.092773438 -240 243.092773438 -240 312.203125 -240 c 0,21,22
 392.596913785 -240 392.596913785 -240 438.956494637 -209.51953125 c 0,23,24
 488.47030729 -176.966796875 488.47030729 -176.966796875 531.298878743 -89.9169921875 c 2,25,-1
 590.028375501 40.3896484375 l 1,0,-1
EndSplineSet
EndChar

StartChar: z
Encoding: 122 122 93
Width: 1433
Flags: W
LayerCount: 2
Fore
SplineSet
1248 218.684570312 m 1,0,-1
 1248 0 l 1,1,-1
 182 0 l 1,2,-1
 182 177.240234375 l 1,3,-1
 865.47610299 879.315429688 l 1,4,-1
 215 879.315429688 l 1,5,-1
 215 1098 l 1,6,-1
 1230 1098 l 1,7,-1
 1230 901.473632812 l 1,8,-1
 558.885006045 218.684570312 l 1,9,-1
 1248 218.684570312 l 1,0,-1
EndSplineSet
EndChar

StartChar: braceleft
Encoding: 123 123 94
Width: 1229
Flags: W
LayerCount: 2
Fore
SplineSet
796 -16 m 2
 796 -69.7730885346 796 -69.7730885346 829.376963857 -92.1237339742 c 0
 872.819619762 -121.214798197 872.819619762 -121.214798197 1001.70826502 -123.00491827 c 2
 1052 -123.703414589 l 1
 1052 -375.70341505 l 1
 1000.3014354 -374.995215535 l 2
 768.922551163 -371.825641779 768.922551163 -371.825641779 640.461275582 -285.965986253 c 0
 512 -200.106330727 512 -200.106330727 512 -31 c 2
 512 303 l 2
 512 369 512 369 447.5 405 c 0
 383 441 383 441 225 441 c 2
 174 441 l 1
 174 698 l 1
 225 698 l 2
 383 698 383 698 447.5 734 c 0
 512 770 512 770 512 836 c 2
 512 1169 l 2
 512 1338.10558204 512 1338.10558204 640.461549342 1423.96561566 c 0
 768.923098683 1509.82564928 768.923098683 1509.82564928 1000.3014354 1512.99521554 c 2
 1052 1513.70341505 l 1
 1052 1262.70341459 l 1
 1001.70826502 1262.00491827 l 2
 974.77883358 1261.63089839 974.77883358 1261.63089839 950.40582244 1259.69822027 c 0
 926.032811301 1257.76554216 926.032811301 1257.76554216 907.257329272 1254.80702437 c 0
 888.481847242 1251.84850657 888.481847242 1251.84850657 872.900967252 1247.94583883 c 0
 857.320087262 1244.04317108 857.320087262 1244.04317108 846.728118202 1239.8465726 c 0
 836.136149143 1235.64997412 836.136149143 1235.64997412 829.376963857 1231.12373397 c 0
 812.387716636 1219.74700592 812.387716636 1219.74700592 804.193858318 1202.40808389 c 0
 796 1185.06916185 796 1185.06916185 796 1155 c 2
 796 823 l 2
 796 780.90428339 796 780.90428339 786.92796946 743.233664838 c 0
 777.855938919 705.563046287 777.855938919 705.563046287 760.106184415 673.363036277 c 0
 742.35642991 641.163026268 742.35642991 641.163026268 715.561892231 614.722903909 c 0
 688.767354552 588.28278155 688.767354552 588.28278155 653.867097169 569 c 1
 724.251784446 530.111675071 724.251784446 530.111675071 760.125892223 464.963961704 c 0
 796 399.816248337 796 399.816248337 796 315 c 2
 796 -16 l 2
EndSplineSet
EndChar

StartChar: bar
Encoding: 124 124 95
Width: 1229
Flags: W
LayerCount: 2
Fore
SplineSet
488 1607 m 1
 739 1607 l 1
 739 -543 l 1
 488 -543 l 1
 488 1607 l 1
EndSplineSet
EndChar

StartChar: braceright
Encoding: 125 125 96
Width: 1229
Flags: W
LayerCount: 2
Fore
SplineSet
432 315 m 2
 432 399.787694539 432 399.787694539 468.461235826 465.261851621 c 0
 504.922471651 530.736008704 504.922471651 530.736008704 574.631187468 569 c 1
 504.290575445 607.610847075 504.290575445 607.610847075 468.145287723 672.90241262 c 0
 432 738.193978164 432 738.193978164 432 823 c 2
 432 1155 l 2
 432 1208.83910245 432 1208.83910245 398.037676562 1231.6810191 c 0
 354.283422278 1261.10865915 354.283422278 1261.10865915 226.643365363 1262.00124696 c 2
 176 1262.35539637 l 1
 176 1513.70180186 l 1
 227.696973631 1512.9952373 l 2
 459.556618496 1509.82631277 459.556618496 1509.82631277 588.278309248 1423.98897708 c 0
 717 1338.15164138 717 1338.15164138 717 1169 c 2
 717 836 l 2
 717 770 717 770 781.5 734 c 0
 846 698 846 698 1004 698 c 2
 1055 698 l 1
 1055 441 l 1
 1004 441 l 2
 846 441 846 441 781.5 405 c 0
 717 369 717 369 717 303 c 2
 717 -31 l 2
 717 -200.150526043 717 -200.150526043 588.277900577 -285.988424994 c 0
 459.555801154 -371.826323944 459.555801154 -371.826323944 227.696973631 -374.995237305 c 2
 176 -375.701801865 l 1
 176 -123.355396367 l 1
 226.643365363 -123.001246959 l 2
 354.283422278 -122.108659148 354.283422278 -122.108659148 398.037676562 -92.6810190988 c 0
 415.392445664 -81.0087850124 415.392445664 -81.0087850124 423.696222832 -63.5187800635 c 0
 432 -46.0287751145 432 -46.0287751145 432 -16 c 2
 432 315 l 2
EndSplineSet
EndChar

StartChar: asciitilde
Encoding: 126 126 97
Width: 1229
Flags: W
LayerCount: 2
Fore
SplineSet
101 461.409348598 m 1
 101 767.838168218 l 1
 114.40513885 782.461956054 l 2
 228.565012467 907 228.565012467 907 399 907 c 0
 509.40307925 907 509.40307925 907 667.076014829 839.882466612 c 0
 787.517455177 788 787.517455177 788 848 788 c 0
 934.625723001 788 934.625723001 788 1038.63829631 893.76068379 c 2
 1126 982.590651402 l 1
 1126 676.161831782 l 1
 1112.59486115 661.538043946 l 2
 998.434987533 537 998.434987533 537 827 537 c 0
 716.5318572 537 716.5318572 537 559.931717794 604.11434546 c 0
 438.556347352 656 438.556347352 656 379 656 c 0
 337.975773367 656 337.975773367 656 290.088644537 630.491999511 c 0
 242.201515707 604.983999022 242.201515707 604.983999022 188.361703685 550.23931621 c 2
 101 461.409348598 l 1
EndSplineSet
EndChar

StartChar: exclamdown
Encoding: 161 161 99
Width: 1229
Flags: W
LayerCount: 2
Fore
SplineSet
614 789 m 0
 531 789 531 789 483.5 841 c 0
 436 893 436 893 436 979 c 0
 436 1065 436 1065 483.5 1117 c 0
 531 1169 531 1169 614 1169 c 0
 697 1169 697 1169 744.5 1117 c 0
 792 1065 792 1065 792 979 c 0
 792 893 792 893 744.5 841 c 0
 697 789 697 789 614 789 c 0
504.419265928 727 m 1
 722.580734072 727 l 1
 778.539742651 -424 l 1
 448.460257349 -424 l 1
 504.419265928 727 l 1
EndSplineSet
EndChar

StartChar: cent
Encoding: 162 162 100
Width: 1229
Flags: W
LayerCount: 2
Fore
SplineSet
794 1367.85282297 m 1
 938.9203948 1358.00990018 938.9203948 1358.00990018 1078.23110243 1308.00092821 c 2
 1127.65920517 1290.25750672 l 1
 1028.04597855 1036.40444534 l 1
 980.883894208 1054.32603739 l 2
 839.636624182 1108 839.636624182 1108 731 1108 c 0
 565 1108 565 1108 488 1022 c 0
 411 936 411 936 411 745 c 0
 411 559 411 559 485.5 475 c 0
 560 391 560 391 721 391 c 0
 865.027643228 391 865.027643228 391 1024.59401661 448.937790333 c 2
 1093 473.775677161 l 1
 1093 210.013165134 l 1
 1064.20377007 196.087119513 l 2
 950.072519303 140.89249824 950.072519303 140.89249824 794 130.994652923 c 1
 794 -71 l 1
 555 -71 l 1
 555 143.645996059 l 1
 412.063445821 174.435127342 412.063445821 174.435127342 314.86992882 253.92862403 c 0
 217.676411818 333.422120718 217.676411818 333.422120718 169.338205909 456.408546365 c 0
 121 579.394972012 121 579.394972012 121 743 c 0
 121 992.397202968 121 992.397202968 230.923087803 1148.3153911 c 0
 340.846175607 1304.23357923 340.846175607 1304.23357923 555 1352.87987781 c 1
 555 1534 l 1
 794 1534 l 1
 794 1367.85282297 l 1
EndSplineSet
EndChar

StartChar: sterling
Encoding: 163 163 101
Width: 1229
Flags: W
LayerCount: 2
Fore
SplineSet
1129.58812876 1423.87967767 m 1
 1021.19318048 1187.3816087 l 1
 973.806365016 1211.57913149 l 2
 843.732164183 1278 843.732164183 1278 725 1278 c 0
 633 1278 633 1278 593 1234 c 0
 553 1190 553 1190 553 1083 c 2
 553 839 l 1
 930 839 l 1
 930 600 l 1
 553 600 l 1
 553 440 l 2
 553 374.206749127 553 374.206749127 538.027755895 317.964253856 c 0
 523.05551179 261.721758584 523.05551179 261.721758584 492.690027752 217 c 1
 1161 217 l 1
 1161 -51 l 1
 68 -51 l 1
 68 194.01333291 l 1
 106.863926263 203.534994845 l 2
 111.701671505 204.720242429 111.701671505 204.720242429 116.356987348 206.019120532 c 0
 194.37884601 227.778966787 194.37884601 227.778966787 231.189423005 282.529806434 c 0
 268 337.280646082 268 337.280646082 268 438 c 2
 268 600 l 1
 70 600 l 1
 70 839 l 1
 268 839 l 1
 268 1112 l 2
 268 1205.21090506 268 1205.21090506 299.346383912 1282.7791569 c 0
 330.692767824 1360.34740874 330.692767824 1360.34740874 392.8433145 1417.91542663 c 0
 516.009246941 1532 516.009246941 1532 717 1532 c 0
 921.456508283 1532 921.456508283 1532 1086.51048124 1446.25767639 c 2
 1129.58812876 1423.87967767 l 1
EndSplineSet
EndChar

StartChar: currency
Encoding: 164 164 102
Width: 1229
Flags: W
LayerCount: 2
Fore
SplineSet
238.890001694 927.985106625 m 1
 101.875108319 1065 l 1
 272.28283838 1235.40773006 l 1
 406.938587397 1098.63141807 l 1
 505.363343166 1153 505.363343166 1153 614 1153 c 0
 722.644740334 1153 722.644740334 1153 819.55899031 1098.68388199 c 1
 955.449460633 1234.57435231 l 1
 1127.68396603 1067.55907435 l 1
 990.284063498 930.159171817 l 1
 1044 831.930836518 1044 831.930836518 1044 723 c 0
 1044 695.048029716 1044 695.048029716 1040.56935137 667.656679213 c 0
 1037.13870275 640.26532871 1037.13870275 640.26532871 1030.42840417 614.148512538 c 0
 1023.7181056 588.031696366 1023.7181056 588.031696366 1013.78552105 563.177671311 c 0
 1003.8529365 538.323646255 1003.8529365 538.323646255 990.866574663 515.258317018 c 1
 1125.3122278 380.81266388 l 1
 956.09427125 213.339222345 l 1
 819.46142484 347.853730051 l 1
 722.769315131 295 722.769315131 295 614 295 c 0
 502.27928178 295 502.27928178 295 406.263271993 349.138380312 c 1
 272 214.875108319 l 1
 103.875108319 383 l 1
 238.504822243 517.629713924 l 1
 187 611.898395789 187 611.898395789 187 723 c 0
 187 831.505689367 187 831.505689367 238.890001694 927.985106625 c 1
614 534 m 0
 693.294639915 534 693.294639915 534 750.449001942 589.56674086 c 0
 807 644.54687786 807 644.54687786 807 723 c 0
 807 802.875108319 807 802.875108319 750.437554159 859.437554159 c 0
 693.875108319 916 693.875108319 916 614 916 c 0
 574.108116815 916 574.108116815 916 541.868022255 902.454643738 c 0
 509.627927694 888.909287476 509.627927694 888.909287476 481.317294512 860.194216678 c 0
 462.409962299 841.016779719 462.409962299 841.016779719 450.218279676 819.992531609 c 0
 438.026597052 798.968283498 438.026597052 798.968283498 432.013298526 774.943385004 c 0
 426 750.91848651 426 750.91848651 426 723 c 0
 426 682.489873965 426 682.489873965 439.487188343 649.969045894 c 0
 452.974376685 617.448217824 452.974376685 617.448217824 481.433882193 589.19055278 c 0
 510.036711656 560.790580264 510.036711656 560.790580264 542.281841409 547.395290132 c 0
 574.526971162 534 574.526971162 534 614 534 c 0
EndSplineSet
EndChar

StartChar: yen
Encoding: 165 165 103
Width: 1229
Flags: W
LayerCount: 2
Fore
SplineSet
612.268815475 843.849886943 m 1
 925.565079505 1513 l 1
 1231.61586837 1513 l 1
 846.615868373 745 l 1
 1055 745 l 1
 1055 506 l 1
 753 506 l 1
 753 450 l 1
 1055 450 l 1
 1055 211 l 1
 753 211 l 1
 753 -51 l 1
 473 -51 l 1
 473 211 l 1
 172 211 l 1
 172 450 l 1
 473 450 l 1
 473 506 l 1
 172 506 l 1
 172 745 l 1
 374.960011319 745 l 1
 -4.03998868073 1513 l 1
 302.594473573 1513 l 1
 612.268815475 843.849886943 l 1
EndSplineSet
EndChar

StartChar: brokenbar
Encoding: 166 166 104
Width: 1229
Flags: W
LayerCount: 2
Fore
SplineSet
488 1607 m 1
 739 1607 l 1
 739 725 l 1
 488 725 l 1
 488 1607 l 1
488 340 m 1
 739 340 l 1
 739 -543 l 1
 488 -543 l 1
 488 340 l 1
EndSplineSet
EndChar

StartChar: section
Encoding: 167 167 105
Width: 1229
Flags: W
LayerCount: 2
Fore
SplineSet
324.743287231 1066.62542718 m 1
 286.84416365 1096.38298015 286.84416365 1096.38298015 261.006024389 1133.19691557 c 0
 235.167885129 1170.01085099 235.167885129 1170.01085099 222.083942564 1212.73838078 c 0
 209 1255.46591056 209 1255.46591056 209 1303 c 0
 209 1374.90722336 209 1374.90722336 241.418334629 1434.75787424 c 0
 273.836669258 1494.60852513 273.836669258 1494.60852513 334.97029108 1536.93180177 c 0
 452.068799629 1618 452.068799629 1618 641 1618 c 0
 727.464067974 1618 727.464067974 1618 814.233474829 1598.83642285 c 0
 901.002881684 1579.6728457 901.002881684 1579.6728457 987.501493164 1541.69784554 c 2
 1032.78707397 1521.81637104 l 1
 938.809777634 1288.5512962 l 1
 890.873867811 1309.1391549 l 2
 744.51130311 1372 744.51130311 1372 635 1372 c 0
 546 1372 546 1372 515.5 1354.5 c 0
 485 1337 485 1337 485 1307 c 0
 485 1277.74566839 485 1277.74566839 515.062483557 1254.06007528 c 0
 558.826311117 1219.57948387 558.826311117 1219.57948387 699.123126231 1161.28112068 c 0
 866.438477941 1095.01940919 866.438477941 1095.01940919 947.885729699 1009.71992255 c 0
 1036 917.438085412 1036 917.438085412 1036 784 c 0
 1036 702.393276033 1036 702.393276033 1008.77944353 634.460009468 c 0
 981.558887055 566.526742904 981.558887055 566.526742904 927.668645149 516.293387285 c 1
 1036 427.061861553 1036 427.061861553 1036 289 c 0
 1036 125.055444557 1036 125.055444557 904.530018287 29.2786705496 c 0
 780.607122688 -61 780.607122688 -61 567 -61 c 0
 349.979319338 -61 349.979319338 -61 219.552193201 10.2417075534 c 2
 193 24.7450063609 l 1
 193 294.016752095 l 1
 266.051797522 258.986065564 l 2
 426.595909857 182 426.595909857 182 567 182 c 0
 642 182 642 182 685.5 195 c 0
 729 208 729 208 742.5 226.5 c 0
 756 245 756 245 756 272 c 0
 756 290.407812382 756 290.407812382 749.818057243 304.348299924 c 0
 743.636114486 318.288787467 743.636114486 318.288787467 729.263698934 331.658476354 c 0
 722.231877746 338.199705365 722.231877746 338.199705365 707.289345504 347.598713893 c 0
 692.346813261 356.997722421 692.346813261 356.997722421 670.284792959 368.704213169 c 0
 648.222772656 380.410703918 648.222772656 380.410703918 616.865390474 394.79884546 c 0
 585.508008291 409.186987002 585.508008291 409.186987002 549.366028893 423.929110178 c 0
 443.677915072 468.994092721 443.677915072 468.994092721 376.833387764 510.90083715 c 0
 309.988860455 552.80758158 309.988860455 552.80758158 275.134708674 599.487249143 c 0
 209 688.060519689 209 688.060519689 209 809 c 0
 209 972.207627076 209 972.207627076 324.743287231 1066.62542718 c 1
706.515282838 631.265511412 m 1
 731.539329846 651.221174189 731.539329846 651.221174189 747.035312754 671.793007717 c 0
 762.531295662 692.364841246 762.531295662 692.364841246 769.265647831 713.173609845 c 0
 776 733.982378444 776 733.982378444 776 758 c 0
 776 771.32336607 776 771.32336607 774.078238625 782.978098746 c 0
 772.156477249 794.632831423 772.156477249 794.632831423 768.140033864 805.31158016 c 0
 764.123590479 815.990328896 764.123590479 815.990328896 757.800480334 825.646353832 c 0
 751.47737019 835.302378768 751.47737019 835.302378768 742.804525513 844.260487309 c 0
 734.131680837 853.218595851 734.131680837 853.218595851 722.767264017 861.799890185 c 0
 707.838953955 873.072287578 707.838953955 873.072287578 689.261450772 884.442119553 c 0
 670.683947589 895.811951529 670.683947589 895.811951529 648.747302412 907.10728527 c 0
 626.810657235 918.402619011 626.810657235 918.402619011 601.302996199 929.59335753 c 0
 575.795335162 940.784096049 575.795335162 940.784096049 547.688532373 951.389720259 c 1
 502.79734155 931.437611105 502.79734155 931.437611105 483.898670775 903.428907766 c 0
 465 875.420204427 465 875.420204427 465 831 c 0
 465 820.495045989 465 820.495045989 466.448405601 811.006678809 c 0
 467.896811201 801.518311628 467.896811201 801.518311628 470.956026453 792.445519777 c 0
 474.015241705 783.372727925 474.015241705 783.372727925 478.809337115 774.851817452 c 0
 483.603432526 766.330906978 483.603432526 766.330906978 490.250465439 758.035611792 c 0
 496.897498352 749.740316606 496.897498352 749.740316606 505.565885982 741.532197346 c 0
 555.272221441 694.465136336 555.272221441 694.465136336 697.864160425 634.973135303 c 2
 706.515282838 631.265511412 l 1
EndSplineSet
EndChar

StartChar: dieresis
Encoding: 168 168 106
Width: 1229
Flags: W
LayerCount: 2
Fore
SplineSet
426 1548 m 0
 493 1548 493 1548 533 1505.5 c 0
 573 1463 573 1463 573 1395 c 0
 573 1327 573 1327 533 1284 c 0
 493 1241 493 1241 426 1241 c 0
 359 1241 359 1241 319 1284 c 0
 279 1327 279 1327 279 1395 c 0
 279 1463 279 1463 319 1505.5 c 0
 359 1548 359 1548 426 1548 c 0
801 1548 m 0
 868 1548 868 1548 908 1505.5 c 0
 948 1463 948 1463 948 1395 c 0
 948 1327 948 1327 908 1284 c 0
 868 1241 868 1241 801 1241 c 0
 734 1241 734 1241 694 1284 c 0
 654 1327 654 1327 654 1395 c 0
 654 1463 654 1463 694 1505.5 c 0
 734 1548 734 1548 801 1548 c 0
EndSplineSet
EndChar

StartChar: copyright
Encoding: 169 169 107
Width: 1229
Flags: W
LayerCount: 2
Fore
SplineSet
925 526.379669469 m 1
 925 289.53831664 l 1
 895.590795468 275.795697699 l 2
 837.255324804 248.536131969 837.255324804 248.536131969 776.399902388 234.768065984 c 0
 715.544479972 221 715.544479972 221 653 221 c 0
 434.419172959 221 434.419172959 221 314.144976387 362.465364539 c 0
 197 500.250170099 197 500.250170099 197 733 c 0
 197 961.478346901 197 961.478346901 319.984610762 1098.99750257 c 0
 445.190096267 1239 445.190096267 1239 659 1239 c 0
 728.990526075 1239 728.990526075 1239 798.320913128 1222.07715547 c 0
 867.651300181 1205.15431094 867.651300181 1205.15431094 935.516890212 1171.76013172 c 2
 949.008449577 1165.12142791 l 2
 946.259327663 1168.88493009 946.259327663 1168.88493009 943.443905472 1172.57746458 c 0
 828.752236239 1323 828.752236239 1323 614 1323 c 0
 399.3515724 1323 399.3515724 1323 285.156900835 1172.21012481 c 0
 166 1014.86780787 166 1014.86780787 166 731 c 0
 166 447.132192127 166 447.132192127 285.156900835 289.789875194 c 0
 399.3515724 139 399.3515724 139 614 139 c 0
 723.747858412 139 723.747858412 139 804.687384713 176.296661727 c 0
 885.626911014 213.593323455 885.626911014 213.593323455 943.443905472 289.422535417 c 0
 1063 446.224951702 1063 446.224951702 1063 731 c 0
 1063 979.649924253 1063 979.649924253 971.852551921 1130.73578138 c 1
 875.700867255 930.551126418 l 1
 829.525667277 953.218951861 l 2
 730.156865513 1002 730.156865513 1002 659 1002 c 0
 563.292588767 1002 563.292588767 1002 513.599696325 936.634733788 c 0
 459 864.815133238 459 864.815133238 459 731 c 0
 459 584 459 584 507.5 521.5 c 0
 556 459 556 459 659 459 c 0
 743.823555427 459 743.823555427 459 856.22265089 500.801316495 c 2
 925 526.379669469 l 1
614 1534 m 0
 924.672218426 1534 924.672218426 1534 1101.48633705 1310.65585016 c 0
 1274 1092.74385485 1274 1092.74385485 1274 731 c 0
 1274 368.144599716 1274 368.144599716 1100.86259609 151.188470119 c 0
 923.549629783 -71 923.549629783 -71 614 -71 c 0
 303.317876556 -71 303.317876556 -71 127.003701491 151.856736806 c 0
 -44.7071039668 370.12160369 -44.7071039668 370.12160369 -45 731 c 0
 -45 1091.62359727 -45 1091.62359727 126.380751614 1309.98723406 c 0
 213.770463004 1421.33424951 213.770463004 1421.33424951 337.039104388 1477.66712475 c 0
 460.307745772 1534 460.307745772 1534 614 1534 c 0
EndSplineSet
EndChar

StartChar: ordfeminine
Encoding: 170 170 108
Width: 1229
Flags: W
LayerCount: 2
Fore
SplineSet
760.305890305 746 m 1
 740.564393781 816.59080575 l 1
 637.293170587 733 637.293170587 733 498 733 c 0
 370 733 370 733 297.5 800 c 0
 225 867 225 867 225 989 c 0
 225 1058.02776081 225 1058.02776081 252.73565052 1112.68372807 c 0
 280.471301039 1167.33969534 280.471301039 1167.33969534 334.572299156 1200.11853537 c 0
 431.020150341 1258.55458639 431.020150341 1258.55458639 635.180129395 1264.96798887 c 2
 705.306963465 1267.77306223 l 1
 697.722320417 1288.78884401 697.722320417 1288.78884401 677.059109836 1299.89442201 c 0
 656.395899256 1311 656.395899256 1311 610 1311 c 0
 507.442971045 1311 507.442971045 1311 383.259939265 1263.3809427 c 2
 335.19166902 1244.94874885 l 1
 259.116952588 1449.05164659 l 1
 304.239559496 1468.01622051 l 2
 451.718207247 1530 451.718207247 1530 618 1530 c 0
 778 1530 778 1530 869 1456 c 0
 960 1382 960 1382 960 1241 c 2
 960 746 l 1
 760.305890305 746 l 1
662.957199063 1065.008945 m 2
 641.555491602 1064.63347645 641.555491602 1064.63347645 621.901385031 1063.28574866 c 0
 602.24727846 1061.93802088 602.24727846 1061.93802088 585.73851465 1059.81820074 c 0
 569.229750841 1057.69838059 569.229750841 1057.69838059 554.780229897 1054.81596516 c 0
 540.330708953 1051.93354973 540.330708953 1051.93354973 528.856170795 1048.54156464 c 0
 517.381632636 1045.14957955 517.381632636 1045.14957955 508.277979319 1041.20466311 c 0
 492.154604038 1034.21786715 492.154604038 1034.21786715 485.577302019 1023.15108816 c 0
 479 1012.08430917 479 1012.08430917 479 987 c 0
 479 963 479 963 487.5 955.5 c 0
 496 948 496 948 532 948 c 0
 554.68934073 948 554.68934073 948 574.382525475 950.804202604 c 0
 594.075710219 953.608405209 594.075710219 953.608405209 610.528130954 959.115321329 c 0
 626.98055169 964.622237449 626.98055169 964.622237449 640.573405664 972.331957608 c 0
 654.166259638 980.041677767 654.166259638 980.041677767 665.807977361 990.286389363 c 0
 700.011923083 1020.3858616 700.011923083 1020.3858616 708.295219125 1065.9157054 c 1
 662.957199063 1065.008945 l 2
EndSplineSet
EndChar

StartChar: guillemotleft
Encoding: 171 171 109
Width: 1229
Flags: W
LayerCount: 2
Fore
SplineSet
146 569.934210615 m 1
 494.053693177 1036.25857623 l 1
 694.229764915 902.807861739 l 1
 446.786457174 541 l 1
 694.229764915 179.192138261 l 1
 494.194072929 45.8350102696 l 1
 146 508.966932515 l 1
 146 569.934210615 l 1
553 569.934210615 m 1
 901.053693177 1036.25857623 l 1
 1101.14566056 902.863931309 l 1
 854.703845272 541 l 1
 1101.14566056 179.136068691 l 1
 901.194072929 45.8350102696 l 1
 553 508.966932515 l 1
 553 569.934210615 l 1
EndSplineSet
EndChar

StartChar: logicalnot
Encoding: 172 172 110
Width: 1229
Flags: W
LayerCount: 2
Fore
SplineSet
1126 848 m 1
 1126 211 l 1
 875 211 l 1
 875 596 l 1
 101 596 l 1
 101 848 l 1
 1126 848 l 1
EndSplineSet
EndChar

StartChar: registered
Encoding: 174 174 112
Width: 1229
Flags: W
LayerCount: 2
Fore
SplineSet
557 819 m 1
 578 819 l 2
 648 819 648 819 672.5 839.5 c 0
 697 860 697 860 697 909 c 0
 697 956.498280826 697 956.498280826 676.686768508 970.765907707 c 0
 647.878908295 991 647.878908295 991 575 991 c 2
 557 991 l 1
 557 819 l 1
614 139 m 0
 723.747858412 139 723.747858412 139 804.687384713 176.296661727 c 0
 852.630391038 198.388637933 852.630391038 198.388637933 892.460712679 234 c 1
 777.826549241 234 l 1
 570.826549241 586 l 1
 557 586 l 1
 557 234 l 1
 336.539369777 234 l 1
 443.625959436 139 443.625959436 139 614 139 c 0
614 1534 m 0
 924.672218426 1534 924.672218426 1534 1101.48633705 1310.65585016 c 0
 1274 1092.74385485 1274 1092.74385485 1274 731 c 0
 1274 368.144599716 1274 368.144599716 1100.86259609 151.188470119 c 0
 923.549629783 -71 923.549629783 -71 614 -71 c 0
 303.317876556 -71 303.317876556 -71 127.003701491 151.856736806 c 0
 -44.7071039668 370.12160369 -44.7071039668 370.12160369 -45 731 c 0
 -45 1091.62359727 -45 1091.62359727 126.380751614 1309.98723406 c 0
 213.770463004 1421.33424951 213.770463004 1421.33424951 337.039104388 1477.66712475 c 0
 460.307745772 1534 460.307745772 1534 614 1534 c 0
297 274.880732969 m 1
 297 1187.11926703 l 1
 290.949224351 1179.85867555 290.949224351 1179.85867555 285.156900835 1172.21012481 c 0
 166 1014.86780787 166 1014.86780787 166 731 c 0
 166 447.132192127 166 447.132192127 285.156900835 289.789875194 c 0
 290.949224351 282.141324451 290.949224351 282.141324451 297 274.880732969 c 1
337.671341543 1229 m 1
 582 1229 l 2
 759 1229 759 1229 858.5 1148 c 0
 958 1067 958 1067 958 913 c 0
 958 859.120217355 958 859.120217355 942.013484875 811.854354481 c 0
 926.026969749 764.588491607 926.026969749 764.588491607 895.049981636 726.230726565 c 0
 864.072993523 687.872961524 864.072993523 687.872961524 819.455834116 660.033125352 c 1
 993.181306348 370.490671633 l 1
 1063 513.37843275 1063 513.37843275 1063 731 c 0
 1063 1015.7750483 1063 1015.7750483 943.443905472 1172.57746458 c 0
 828.752236239 1323 828.752236239 1323 614 1323 c 0
 444.525037166 1323 444.525037166 1323 337.671341543 1229 c 1
EndSplineSet
EndChar

StartChar: overscore
Encoding: 175 175 113
Width: 1229
Flags: W
LayerCount: 2
Fore
SplineSet
1300 1505 m 1
 -71 1505 l 1
 -71 1747 l 1
 1300 1747 l 1
 1300 1505 l 1
EndSplineSet
EndChar

StartChar: degree
Encoding: 176 176 114
Width: 1229
Flags: W
LayerCount: 2
Fore
SplineSet
614 1534 m 0
 688.125164751 1534 688.125164751 1534 753.666868502 1506.45815971 c 0
 819.208572254 1478.91631943 819.208572254 1478.91631943 872.562445841 1425.56244584 c 0
 899.169061541 1398.95583014 899.169061541 1398.95583014 919.461149675 1369.11323854 c 0
 939.753237809 1339.27064694 939.753237809 1339.27064694 953.415708767 1306.78944109 c 0
 967.078179724 1274.30823523 967.078179724 1274.30823523 974.039089862 1239.16946162 c 0
 981 1204.030688 981 1204.030688 981 1167 c 0
 981 1129.9860227 981 1129.9860227 974.068238685 1094.93907848 c 0
 967.136477371 1059.89213427 967.136477371 1059.89213427 953.525411214 1027.56534168 c 0
 939.914345057 995.238549078 939.914345057 995.238549078 919.666396605 965.623829831 c 0
 899.418448153 936.009110584 899.418448153 936.009110584 872.866989717 909.7431517 c 0
 819.696945292 857.144828183 819.696945292 857.144828183 754.075552023 830.072414092 c 0
 688.454158754 803 688.454158754 803 614 803 c 0
 461.794100648 803 461.794100648 803 354.839956738 910.535416431 c 0
 319.853034821 945.712484663 319.853034821 945.712484663 296.042826875 986.422482367 c 0
 272.232618929 1027.13248007 272.232618929 1027.13248007 260.116309464 1072.573321 c 0
 248 1118.01416193 248 1118.01416193 248 1167 c 0
 248 1241.0311501 248 1241.0311501 275.223609784 1306.51572044 c 0
 302.447219568 1372.00029078 302.447219568 1372.00029078 355.244194027 1425.36804334 c 0
 408.156500046 1478.85237429 408.156500046 1478.85237429 473.77372332 1506.42618715 c 0
 539.390946593 1534 539.390946593 1534 614 1534 c 0
614 1028 m 0
 672.139000979 1028 672.139000979 1028 714.258090379 1069.38015801 c 0
 756 1110.38975342 756 1110.38975342 756 1167 c 0
 756 1197.95523394 756 1197.95523394 745.77860784 1222.48239339 c 0
 735.557215679 1247.00955284 735.557215679 1247.00955284 713.595374421 1268.78042156 c 0
 691.405067551 1290.77776924 691.405067551 1290.77776924 667.367149249 1300.88888462 c 0
 643.329230946 1311 643.329230946 1311 614 1311 c 0
 594.076075372 1311 594.076075372 1311 577.060111222 1306.56036551 c 0
 560.044147071 1302.12073103 560.044147071 1302.12073103 544.701470127 1292.8068577 c 0
 529.358793184 1283.49298437 529.358793184 1283.49298437 514.877383551 1268.7552666 c 0
 473 1226.13669042 473 1226.13669042 473 1167 c 0
 473 1137.57769115 473 1137.57769115 482.856641129 1113.99465029 c 0
 492.713282258 1090.41160942 492.713282258 1090.41160942 514.062445841 1069.06244584 c 0
 524.728297729 1058.39659395 524.728297729 1058.39659395 535.869580466 1050.70502149 c 0
 547.010863202 1043.01344903 547.010863202 1043.01344903 559.331256542 1037.93557335 c 0
 571.651649881 1032.85769766 571.651649881 1032.85769766 585.143222083 1030.42884883 c 0
 598.634794284 1028 598.634794284 1028 614 1028 c 0
EndSplineSet
EndChar

StartChar: plusminus
Encoding: 177 177 115
Width: 1229
Flags: W
LayerCount: 2
Fore
SplineSet
488 596 m 1
 101 596 l 1
 101 848 l 1
 488 848 l 1
 488 1237 l 1
 739 1237 l 1
 739 848 l 1
 1126 848 l 1
 1126 596 l 1
 739 596 l 1
 739 211 l 1
 488 211 l 1
 488 596 l 1
101 -51 m 1
 101 201 l 1
 1126 201 l 1
 1126 -51 l 1
 101 -51 l 1
EndSplineSet
EndChar

StartChar: twosuperior
Encoding: 178 178 116
Width: 1229
Flags: W
LayerCount: 2
Fore
SplineSet
930 621 m 1
 297 621 l 1
 297 794.202294887 l 1
 497.852559577 1007.9437787 l 2
 550.52319163 1063.93598215 550.52319163 1063.93598215 585.449433559 1105.57873702 c 0
 620.375675487 1147.22149189 620.375675487 1147.22149189 632.844322232 1167.86630043 c 0
 656 1206.2060292 656 1206.2060292 656 1249 c 0
 656 1289 656 1289 644.5 1301 c 0
 633 1313 633 1313 596 1313 c 0
 534.822144614 1313 534.822144614 1313 466.441429711 1250.38633334 c 2
 428.648857478 1215.78108648 l 1
 281.449584904 1378.07772034 l 1
 320.300602453 1412.27989818 l 2
 451.749650147 1528 451.749650147 1528 602 1528 c 0
 620.757017418 1528 620.757017418 1528 638.536698317 1526.60919167 c 0
 656.316379216 1525.21838335 656.316379216 1525.21838335 673.498724371 1522.33982198 c 0
 690.681069525 1519.4612606 690.681069525 1519.4612606 706.753840162 1515.12614509 c 0
 722.826610798 1510.79102958 722.826610798 1510.79102958 738.132652494 1504.81999666 c 0
 753.43869419 1498.84896373 753.43869419 1498.84896373 767.505400382 1491.36112543 c 0
 781.572106574 1483.87328712 781.572106574 1483.87328712 794.70269063 1474.60136704 c 0
 807.833274686 1465.32944696 807.833274686 1465.32944696 819.592285239 1454.47497568 c 0
 860.206459558 1416.98496861 860.206459558 1416.98496861 880.603229779 1365.5260264 c 0
 901 1314.06708419 901 1314.06708419 901 1253 c 0
 901 1174.64524239 901 1174.64524239 860.34592633 1095.66018498 c 0
 821.698342648 1020.57345097 821.698342648 1020.57345097 687.128981492 886.004089811 c 2
 638.485215871 837 l 1
 930 837 l 1
 930 621 l 1
EndSplineSet
EndChar

StartChar: threesuperior
Encoding: 179 179 117
Width: 1229
Flags: W
LayerCount: 2
Fore
SplineSet
790.286313501 1093.06412003 m 1
 824.953317183 1071.90555656 824.953317183 1071.90555656 848.913381239 1042.17212643 c 0
 872.873445294 1012.43869629 872.873445294 1012.43869629 884.936722647 976.296071985 c 0
 897 940.153447679 897 940.153447679 897 899 c 0
 897 759.57742875 897 759.57742875 804.733102991 680.31459105 c 0
 715.898149346 604 715.898149346 604 557 604 c 0
 411.970108816 604 411.970108816 604 315.914323152 661.176062895 c 2
 291 676.006017152 l 1
 291 918.374868118 l 1
 367.945194918 872.907252939 l 2
 417.899814447 843.388614127 417.899814447 843.388614127 462.23995412 829.194307063 c 0
 506.580093793 815 506.580093793 815 545 815 c 0
 603 815 603 815 623 833.5 c 0
 643 852 643 852 643 901 c 0
 643 943 643 943 624 959 c 0
 605 975 605 975 547 975 c 2
 424 975 l 1
 424 1181 l 1
 545 1181 l 2
 588 1181 588 1181 602.5 1196 c 0
 617 1211 617 1211 617 1257 c 0
 617 1297 617 1297 608 1307 c 0
 599 1317 599 1317 571 1317 c 0
 517.498495257 1317 517.498495257 1317 441.310971289 1257.74303691 c 2
 400.792602099 1226.22874977 l 1
 273.793343392 1391.71263232 l 1
 311.246787007 1423.09254454 l 2
 436.458911265 1528 436.458911265 1528 582 1528 c 0
 709.77266932 1528 709.77266932 1528 788.065278054 1461.32895038 c 0
 870 1391.55641372 870 1391.55641372 870 1274 c 0
 870 1161.21621325 870 1161.21621325 790.286313501 1093.06412003 c 1
EndSplineSet
EndChar

StartChar: acute
Encoding: 180 180 118
Width: 1229
Flags: W
LayerCount: 2
Fore
SplineSet
376.352002876 1297.43542654 m 2
 422.000925496 1362.02379578 422.000925496 1362.02379578 464.418439745 1435.40113667 c 0
 506.835953995 1508.77847756 506.835953995 1508.77847756 545.95411354 1590.9266126 c 2
 559.79858373 1620 l 1
 862 1620 l 1
 862 1532.93232947 l 1
 853.811437482 1520.28392487 l 2
 737.635891226 1340.83419717 737.635891226 1340.83419717 571.745451271 1201.90095371 c 2
 557.535357293 1190 l 1
 367 1190 l 1
 367 1284.20333736 l 1
 376.352002876 1297.43542654 l 2
EndSplineSet
EndChar

StartChar: mu
Encoding: 181 181 119
Width: 1229
Flags: W
LayerCount: 2
Fore
SplineSet
413 391 m 2
 413 276 413 276 452.5 229 c 0
 492 182 492 182 580 182 c 0
 702.667248519 182 702.667248519 182 756.361331467 252.813935481 c 0
 815 330.148991083 815 330.148991083 815 528 c 2
 815 1149 l 1
 1100 1149 l 1
 1100 -51 l 1
 858.514215995 -51 l 1
 842.730246043 34.9349475152 l 1
 736.781849602 -71 736.781849602 -71 569 -71 c 0
 479.547092644 -71 479.547092644 -71 410.691234732 -37.927712691 c 1
 413 -117.611313966 413 -117.611313966 413 -172 c 2
 413 -543 l 1
 129 -543 l 1
 129 1149 l 1
 413 1149 l 1
 413 391 l 2
EndSplineSet
EndChar

StartChar: paragraph
Encoding: 182 182 120
Width: 1229
Flags: W
LayerCount: 2
Fore
SplineSet
1130 -311 m 1
 907 -311 l 1
 907 1346 l 1
 803 1346 l 1
 803 -311 l 1
 580 -311 l 1
 580 496.17335881 l 1
 536.249315205 490 536.249315205 490 485 490 c 0
 254 490 254 490 134.5 633 c 0
 15 776 15 776 15 1042 c 0
 15 1178.86995135 15 1178.86995135 44.4917570174 1283.97263636 c 0
 73.9835140348 1389.07532136 73.9835140348 1389.07532136 135.659891652 1461.55217063 c 0
 198.330881061 1535.19780335 198.330881061 1535.19780335 294.502399032 1571.09890167 c 0
 390.673917004 1607 390.673917004 1607 516 1607 c 2
 1130 1607 l 1
 1130 -311 l 1
EndSplineSet
EndChar

StartChar: periodcentered
Encoding: 183 183 121
Width: 1229
Flags: W
LayerCount: 2
Fore
SplineSet
614 1001 m 0
 697 1001 697 1001 744.5 949 c 0
 792 897 792 897 792 811 c 0
 792 725 792 725 744.5 673 c 0
 697 621 697 621 614 621 c 0
 531 621 531 621 483.5 673 c 0
 436 725 436 725 436 811 c 0
 436 897 436 897 483.5 949 c 0
 531 1001 531 1001 614 1001 c 0
EndSplineSet
EndChar

StartChar: cedilla
Encoding: 184 184 122
Width: 1229
Flags: W
LayerCount: 2
Fore
SplineSet
377 -525.32624065 m 1
 377 -313.891151431 l 1
 437.123157348 -324.822634585 l 2
 450.831811285 -327.315117119 450.831811285 -327.315117119 468.717563836 -328.657558559 c 0
 486.603316387 -330 486.603316387 -330 508 -330 c 0
 542 -330 542 -330 564 -326.5 c 0
 586 -323 586 -323 594.5 -316 c 0
 603 -309 603 -309 605.5 -303.5 c 0
 608 -298 608 -298 608 -289 c 0
 608 -275.879820854 608 -275.879820854 574.825054074 -258.662315693 c 2
 548.253338041 -246.912183883 l 2
 518.027697018 -235.32994829 518.027697018 -235.32994829 475.722322264 -225.737450527 c 2
 411.409547686 -211.154902803 l 1
 546.955548567 51 l 1
 780.199175063 51 l 1
 713.07124445 -84.4335442197 l 1
 779.763781185 -112.440188602 779.763781185 -112.440188602 815.881890593 -164.847046141 c 0
 852 -217.25390368 852 -217.25390368 852 -287 c 0
 852 -414 852 -414 760.5 -478.5 c 0
 669 -543 669 -543 510 -543 c 0
 496.582568225 -543 496.582568225 -543 481.80084571 -541.853306796 c 0
 467.019123195 -540.706613591 467.019123195 -540.706613591 451.477719291 -538.541706688 c 0
 435.936315387 -536.376799785 435.936315387 -536.376799785 418.601284712 -533.126481534 c 2
 377 -525.32624065 l 1
EndSplineSet
EndChar

StartChar: onesuperior
Encoding: 185 185 123
Width: 1229
Flags: W
LayerCount: 2
Fore
SplineSet
570.122018703 1511 m 1
 772 1511 l 1
 772 621 l 1
 524 621 l 1
 524 1137 l 2
 524 1171.23489829 524 1171.23489829 526.162641955 1220.67529631 c 1
 431.324382733 1151.5788503 l 1
 292.156217065 1319.3432144 l 1
 570.122018703 1511 l 1
EndSplineSet
EndChar

StartChar: ordmasculine
Encoding: 186 186 124
Width: 1229
Flags: W
LayerCount: 2
Fore
SplineSet
612 733 m 0
 446.955157852 733 446.955157852 733 338.534365573 840.841001947 c 0
 284.036868664 895.04706839 284.036868664 895.04706839 257.018434332 969.020488812 c 0
 230 1042.99390923 230 1042.99390923 230 1133 c 0
 230 1168.3662898 230 1168.3662898 234.028100421 1201.18520667 c 0
 238.056200843 1234.00412354 238.056200843 1234.00412354 246.32612982 1264.68969725 c 0
 254.596058797 1295.37527095 254.596058797 1295.37527095 266.996854263 1323.06803197 c 0
 279.397649729 1350.760793 279.397649729 1350.760793 296.368377199 1375.87461345 c 0
 313.339104669 1400.9884339 313.339104669 1400.9884339 334.543464695 1422.66400193 c 0
 387.127374192 1476.41644275 387.127374192 1476.41644275 458.471682073 1503.20822137 c 0
 529.815989954 1530 529.815989954 1530 616 1530 c 0
 781.964452624 1530 781.964452624 1530 890.368043343 1422.75580597 c 0
 999 1315.28568842 999 1315.28568842 999 1133 c 0
 999 946.875108319 999 946.875108319 892.062445841 839.937554159 c 0
 785.124891681 733 785.124891681 733 612 733 c 0
614 954 m 0
 682 954 682 954 713 993 c 0
 744 1032 744 1032 744 1133 c 0
 744 1231 744 1231 713.5 1269 c 0
 683 1307 683 1307 614 1307 c 0
 545 1307 545 1307 514 1269 c 0
 483 1231 483 1231 483 1133 c 0
 483 1032 483 1032 514 993 c 0
 545 954 545 954 614 954 c 0
EndSplineSet
EndChar

StartChar: guillemotright
Encoding: 187 187 125
Width: 1229
Flags: W
LayerCount: 2
Fore
SplineSet
1081 508.966932515 m 1
 732.805927071 45.8350102696 l 1
 532.770235085 179.192138261 l 1
 780.213542826 541 l 1
 532.770235085 902.807861739 l 1
 732.946306823 1036.25857623 l 1
 1081 569.934210615 l 1
 1081 508.966932515 l 1
674 508.922912626 m 1
 324.628235859 45.7235737154 l 1
 125.969164895 179.304673157 l 1
 372.296154728 541 l 1
 125.969164895 902.695326843 l 1
 324.768691055 1036.3708703 l 1
 674 569.978089963 l 1
 674 508.922912626 l 1
EndSplineSet
EndChar

StartChar: questiondown
Encoding: 191 191 129
Width: 1229
Flags: W
LayerCount: 2
Fore
SplineSet
674 789 m 0
 591 789 591 789 543.5 841 c 0
 496 893 496 893 496 979 c 0
 496 1065 496 1065 543.5 1117 c 0
 591 1169 591 1169 674 1169 c 0
 757 1169 757 1169 804.5 1117 c 0
 852 1065 852 1065 852 979 c 0
 852 893 852 893 804.5 841 c 0
 757 789 757 789 674 789 c 0
813 727 m 1
 813 639 l 2
 813 595.672159232 813 595.672159232 807.601495083 557.37834117 c 0
 802.202990166 519.084523108 802.202990166 519.084523108 790.608589395 484.057496628 c 0
 779.014188624 449.030470148 779.014188624 449.030470148 761.28391 419.347194698 c 0
 748.199017727 397.441026737 748.199017727 397.441026737 730.322442644 375.509522956 c 0
 712.445867561 353.578019175 712.445867561 353.578019175 690.114128926 331.925618887 c 0
 667.782390291 310.273218598 667.782390291 310.273218598 641.817236637 289.018948035 c 0
 615.852082982 267.764677472 615.852082982 267.764677472 585.118652204 245.838018501 c 0
 462.624410055 153.621499287 462.624410055 153.621499287 425.307048199 102.08799958 c 0
 409.937525757 80.8634209698 409.937525757 80.8634209698 401.468762878 48.8209597717 c 0
 393 16.7784985735 393 16.7784985735 393 -27 c 0
 393 -94.6702257539 393 -94.6702257539 447.317741178 -135.864217385 c 0
 476.654898517 -158.113202481 476.654898517 -158.113202481 520.288851481 -170.056601241 c 0
 563.922804444 -182 563.922804444 -182 623 -182 c 0
 792.477025834 -182 792.477025834 -182 971.0733874 -96.95411354 c 2
 1018.89606036 -74.1814121306 l 1
 1121.13848159 -311.647680803 l 1
 1077.21908613 -332.90547039 l 2
 847.693595705 -444 847.693595705 -444 633 -444 c 0
 398.350816906 -444 398.350816906 -444 260.476823969 -335.591013618 c 0
 117 -222.776575417 117 -222.776575417 117 -35 c 0
 117 114.012510339 117 114.012510339 178.633490356 209.630822481 c 0
 199.084851304 241.359102082 199.084851304 241.359102082 229.446742171 274.670185024 c 0
 259.808633039 307.981267966 259.808633039 307.981267966 298.65429351 342.047439079 c 0
 337.499953981 376.113610192 337.499953981 376.113610192 387.580181671 413.936439496 c 0
 498.691698119 495.169228832 498.691698119 495.169228832 525.912292027 539.978514189 c 0
 531.671325291 549.458768946 531.671325291 549.458768946 536.183965888 561.169409039 c 0
 540.696606485 572.880049132 540.696606485 572.880049132 544.060335708 587.327883749 c 0
 547.424064932 601.775718365 547.424064932 601.775718365 549.212032466 619.437341465 c 0
 551 637.098964565 551 637.098964565 551 657 c 2
 551 727 l 1
 813 727 l 1
EndSplineSet
EndChar

StartChar: AE
Encoding: 198 198 136
Width: 1433
Flags: W
LayerCount: 2
Fore
SplineSet
1427.13574219 266 m 1,0,-1
 1427.13574219 0 l 1,1,-1
 609.825882415 0 l 1,2,-1
 609.825882415 402 l 1,3,-1
 389.086236982 402 l 1,4,-1
 281.339817734 -0 l 1,5,-1
 0 0 l 1,6,-1
 375.752749127 1462 l 1,7,-1
 1427.13574219 1462 l 1,8,-1
 1427.13574219 1196 l 1,9,-1
 921.841554822 1196 l 1,10,-1
 921.841554822 897 l 1,11,-1
 1388.13574219 897 l 1,12,-1
 1388.13574219 633 l 1,13,-1
 921.841554822 633 l 1,14,-1
 921.841554822 266 l 1,15,-1
 1427.13574219 266 l 1,0,-1
594.351802551 1196 m 1,16,-1
 455.066450869 618 l 1,17,-1
 609.825882415 618 l 1,18,-1
 609.825882415 1196 l 1,19,-1
 594.351802551 1196 l 1,16,-1
EndSplineSet
EndChar

StartChar: Eth
Encoding: 208 208 146
Width: 1433
Flags: W
LayerCount: 2
Fore
SplineSet
487 0 m 2,0,-1
 135 0 l 1,1,-1
 135 608 l 1,2,-1
 0 608 l 1,3,-1
 0 872 l 1,4,-1
 135 872 l 1,5,-1
 135 1462 l 1,6,-1
 528 1462 l 2,7,8
 939.945254224 1462 939.945254224 1462 1160.77441406 1270.19042969 c 0,9,10
 1351 1079.77734375 1351 1079.77734375 1351 744.086914062 c 0,11,12
 1351 387.549804688 1351 387.549804688 1153.91699219 194.259765625 c 0,13,14
 923.781444474 0 923.781444474 0 487 0 c 2,0,-1
508 1201 m 2,15,-1
 424 1201 l 1,16,-1
 424 872 l 1,17,-1
 863.237437926 872 l 1,18,-1
 863.237437926 608 l 1,19,-1
 424 608 l 1,20,-1
 424 262 l 1,21,-1
 469 262 l 2,22,23
 756.350138877 262 756.350138877 262 898.461661476 377.006835938 c 128,-1,24
 1040.57318408 492.014648438 1040.57318408 492.014648438 1040.57318408 738.264648438 c 0,25,26
 1040.57318408 978.202148438 1040.57318408 978.202148438 909.393317061 1089.60058594 c 128,-1,27
 778.213450046 1201 778.213450046 1201 508 1201 c 2,15,-1
EndSplineSet
EndChar

StartChar: multiply
Encoding: 215 215 153
Width: 1433
Flags: W
LayerCount: 2
Fore
SplineSet
522.848355105 722.942382812 m 1,0,-1
 190 1005.99414062 l 1,1,-1
 367.125 1183.11914062 l 1,2,-1
 734.976010699 900.956054688 l 1,3,-1
 1108.11914062 1182.44140625 l 1,4,-1
 1284.36816406 1007.93847656 l 1,5,-1
 947.766616643 722.943359375 l 1,6,-1
 1282.13671875 439.005859375 l 1,7,-1
 1108.34960938 265.5 l 1,8,-1
 734.838483765 546.268554688 l 1,9,-1
 366.778320312 266.990234375 l 1,10,-1
 193.231445312 442.009765625 l 1,11,-1
 522.848355105 722.942382812 l 1,0,-1
EndSplineSet
EndChar

StartChar: Oslash
Encoding: 216 216 154
Width: 1433
Flags: W
LayerCount: 2
Fore
SplineSet
737.68354555 -20 m 0,0,1
 542.641495458 -20 542.641495458 -20 405.106420403 52.4033203125 c 1,2,-1
 305.716796875 -93.744140625 l 1,3,-1
 80 34.765625 l 1,4,-1
 212.448242188 236.235351562 l 1,5,6
 104.051757812 417.432617188 104.051757812 417.432617188 104.051757812 736.634765625 c 0,7,8
 104.051757812 1099.13867188 104.051757812 1099.13867188 251.051757812 1292.06933594 c 0,9,10
 408.182796945 1485 408.182796945 1485 739.963827547 1485 c 0,11,12
 803.713742604 1485 803.713742604 1485 862.822927501 1475.90625 c 128,-1,13
 921.932112399 1466.81347656 921.932112399 1466.81347656 975.785959882 1448.60546875 c 128,-1,14
 1029.64092078 1430.39746094 1029.64092078 1430.39746094 1076.78196545 1403.40136719 c 1,15,-1
 1175.1328125 1549.88867188 l 1,16,-1
 1401.35839844 1421.08886719 l 1,17,-1
 1264.49023438 1215.55175781 l 1,18,19
 1371.05175781 1032.05957031 1371.05175781 1032.05957031 1371.05175781 730.854492188 c 0,20,21
 1371.05175781 556.143554688 1371.05175781 556.143554688 1334.73632812 419.21875 c 128,-1,22
 1298.41992188 282.29296875 1298.41992188 282.29296875 1223.75195312 183.252929688 c 0,23,24
 1058.59315358 -20 1058.59315358 -20 737.68354555 -20 c 0,0,1
419.799096788 538.870117188 m 128,-1,26
 422.700666556 506.32421875 422.700666556 506.32421875 426.967287949 476.96875 c 1,27,-1
 912.755313463 1168.62011719 l 1,28,29
 878.165840549 1194.18945312 878.165840549 1194.18945312 836.213328159 1206.59472656 c 128,-1,30
 794.261929188 1219 794.261929188 1219 739.963827547 1219 c 0,31,32
 580.344087739 1219 580.344087739 1219 497.113794839 1092 c 128,-1,33
 413.883501938 965 413.883501938 965 413.883501938 682 c 0,34,35
 413.883501938 643.599609375 413.883501938 643.599609375 415.38995777 607.5078125 c 128,-1,25
 416.89752702 571.416015625 416.89752702 571.416015625 419.799096788 538.870117188 c 128,-1,26
1055.52791123 916.27734375 m 128,-1,37
 1053.15632888 946.26171875 1053.15632888 946.26171875 1049.64460553 973.44140625 c 1,38,-1
 569.570646037 289.2109375 l 1,39,40
 636.745437765 245 636.745437765 245 737.68354555 245 c 0,41,42
 822.354602564 245 822.354602564 245 879.75691622 273.797851562 c 128,-1,43
 937.158116458 302.594726562 937.158116458 302.594726562 975.870579721 363.754882812 c 0,44,45
 1060.34344816 497.20703125 1060.34344816 497.20703125 1060.34344816 784 c 0,46,47
 1060.34344816 819.74609375 1060.34344816 819.74609375 1059.12091416 853.01953125 c 128,-1,36
 1057.89838016 886.29296875 1057.89838016 886.29296875 1055.52791123 916.27734375 c 128,-1,37
EndSplineSet
EndChar

StartChar: Thorn
Encoding: 222 222 160
Width: 1433
Flags: W
LayerCount: 2
Fore
SplineSet
633.368213228 296.326171875 m 2,0,-1
 464 296.326171875 l 1,1,-1
 464 0 l 1,2,-1
 176 0 l 1,3,-1
 176 1462 l 1,4,-1
 464 1462 l 1,5,-1
 464 1226.43457031 l 1,6,-1
 666.032082922 1226.43457031 l 2,7,8
 995.090325765 1226.43457031 995.090325765 1226.43457031 1151.5 1112.39160156 c 0,9,10
 1298 998.34765625 1298 998.34765625 1298 778.673828125 c 0,11,12
 1298 552.53515625 1298 552.53515625 1142.36523438 423.33203125 c 0,13,14
 976.189986234 296.326171875 976.189986234 296.326171875 633.368213228 296.326171875 c 2,0,-1
464 1000 m 1,15,-1
 464 526 l 1,16,-1
 607.962981244 526 l 2,17,18
 824.980181469 526 824.980181469 526 911.191862718 586.010742188 c 0,19,20
 992.670779862 642.7265625 992.670779862 642.7265625 992.670779862 772 c 0,21,22
 992.670779862 890 992.670779862 890 912.220878578 945 c 128,-1,23
 831.770977295 1000 831.770977295 1000 645.465942744 1000 c 2,24,-1
 464 1000 l 1,15,-1
EndSplineSet
EndChar

StartChar: germandbls
Encoding: 223 223 161
Width: 1433
Flags: W
LayerCount: 2
Fore
SplineSet
518.16880684 57.138671875 m 2,0,-1
 490.820445873 72.203125 l 1,1,-1
 490.820445873 356.18359375 l 1,2,-1
 581.298349749 309.705078125 l 2,3,4
 734.51022223 231 734.51022223 231 874.815625628 231 c 0,5,6
 982.521590681 231 982.521590681 231 1023.49668608 257.243164062 c 128,-1,7
 1064.47178148 283.486328125 1064.47178148 283.486328125 1064.47178148 342.307617188 c 0,8,9
 1064.47178148 357.219726562 1064.47178148 357.219726562 1061.9908675 370.09375 c 128,-1,10
 1059.5110968 382.967773438 1059.5110968 382.967773438 1054.56870457 393.84375 c 128,-1,11
 1049.62631235 404.719726562 1049.62631235 404.719726562 1042.67632337 413.818359375 c 128,-1,12
 1035.72633439 422.91796875 1035.72633439 422.91796875 1026.35831175 431.03515625 c 0,13,14
 1003.63908474 450.71875 1003.63908474 450.71875 964.527533022 474.321289062 c 128,-1,15
 925.414838023 497.923828125 925.414838023 497.923828125 871.149132019 524.033203125 c 0,16,17
 820.515621273 548.853515625 820.515621273 548.853515625 780.841576614 571.231445312 c 128,-1,18
 741.168675233 593.609375 741.168675233 593.609375 709.085998695 615.875 c 128,-1,19
 677.003322156 638.140625 677.003322156 638.140625 654.201779113 659.642578125 c 0,20,21
 618.348570637 693.453125 618.348570637 693.453125 600.242471701 734.877929688 c 128,-1,22
 582.136372766 776.301757812 582.136372766 776.301757812 582.136372766 822.830078125 c 0,23,24
 582.136372766 950.51953125 582.136372766 950.51953125 754.960041746 1060.29003906 c 0,25,26
 884.181361719 1142.36621094 884.181361719 1142.36621094 884.181361719 1202 c 0,27,28
 884.181361719 1260 884.181361719 1260 839.694115284 1287.5 c 128,-1,29
 795.206868849 1315 795.206868849 1315 678.135167704 1315 c 0,30,31
 555.209881502 1315 555.209881502 1315 504.86905001 1276.5 c 128,-1,32
 454.528218518 1238 454.528218518 1238 454.528218518 1151 c 2,33,-1
 454.528218518 0 l 1,34,-1
 164 0 l 1,35,-1
 164 1149 l 2,36,37
 164 1353 164 1353 287.5 1460 c 0,38,39
 411.211689094 1567 411.211689094 1567 678.135167704 1567 c 0,40,41
 924.787178219 1567 924.787178219 1567 1067.56663593 1477.63867188 c 0,42,43
 1203 1382.85644531 1203 1382.85644531 1203 1209 c 0,44,45
 1203 1066.04101562 1203 1066.04101562 1043.04674555 944.139648438 c 0,46,47
 948.760581552 878.727539062 948.760581552 878.727539062 923.415244221 853.47265625 c 0,48,49
 918.778107309 848.852539062 918.778107309 848.852539062 915.59064732 844.651367188 c 128,-1,50
 912.40433061 840.451171875 912.40433061 840.451171875 910.703132453 836.771484375 c 128,-1,51
 909.003077574 833.091796875 909.003077574 833.091796875 908.298818122 829.983398438 c 128,-1,52
 907.595701948 826.875 907.595701948 826.875 907.595701948 823.622070312 c 0,53,54
 907.595701948 814.62109375 907.595701948 814.62109375 911.360517494 807.58203125 c 128,-1,55
 915.124189761 800.54296875 915.124189761 800.54296875 924.767742487 792.686523438 c 0,56,57
 932.219630652 786.616210938 932.219630652 786.616210938 953.027296285 773.836914062 c 128,-1,58
 973.834961918 761.057617188 973.834961918 761.057617188 1010.49761145 740.579101562 c 128,-1,59
 1047.15911771 720.100585938 1047.15911771 720.100585938 1091.57090777 696.879882812 c 0,60,61
 1170.59863281 650.37890625 1170.59863281 650.37890625 1221.69726562 607.7421875 c 128,-1,62
 1272.796875 565.10546875 1272.796875 565.10546875 1300.68261719 522.438476562 c 0,63,64
 1355 439.330078125 1355 439.330078125 1355 335.90625 c 0,65,66
 1355 280.80859375 1355 280.80859375 1342.27636719 232.931640625 c 128,-1,67
 1329.55175781 185.0546875 1329.55175781 185.0546875 1303.09863281 144.088867188 c 128,-1,68
 1276.64550781 103.123046875 1276.64550781 103.123046875 1237.14257812 71.984375 c 0,69,70
 1179.02539062 26.171875 1179.02539062 26.171875 1097.8326432 4.0234375 c 0,71,72
 1004.72748571 -20 1004.72748571 -20 888.864229765 -20 c 0,73,74
 658.2123995 -20 658.2123995 -20 518.16880684 57.138671875 c 2,0,-1
EndSplineSet
EndChar

StartChar: ae
Encoding: 230 230 168
Width: 1433
Flags: W
LayerCount: 2
Fore
SplineSet
439.314387005 676.649414062 m 2,0,-1
 553.386703572 680.880859375 l 1,1,-1
 553.386703572 699.118164062 l 2,2,3
 553.386703572 749.331054688 553.386703572 749.331054688 546.004444563 782.956054688 c 128,-1,4
 538.622185554 816.580078125 538.622185554 816.580078125 523.857667536 834.065429688 c 128,-1,5
 509.093149518 851.549804688 509.093149518 851.549804688 492.625033268 858.275390625 c 128,-1,6
 476.156917017 865 476.156917017 865 453.442273913 865 c 0,7,8
 352.0071958 865 352.0071958 865 254.577148438 793.951171875 c 2,9,-1
 201.752929688 752.301757812 l 1,10,-1
 103.508789062 988.43359375 l 1,11,-1
 135.854492188 1012.13671875 l 2,12,13
 280.313476562 1118 280.313476562 1118 462.528131155 1118 c 0,14,15
 522.945976294 1118 522.945976294 1118 575.495770742 1104.62207031 c 128,-1,16
 628.046674302 1091.24414062 628.046674302 1091.24414062 671.487320126 1064.22363281 c 128,-1,17
 714.927965949 1037.203125 714.927965949 1037.203125 746.00310611 997.673828125 c 1,18,19
 847.982758918 1118 847.982758918 1118 1014.49395859 1118 c 0,20,21
 1076.57991033 1118 1076.57991033 1118 1132.25074998 1099.19921875 c 0,22,23
 1182.70019531 1081.79394531 1182.70019531 1081.79394531 1223.22753906 1049.08105469 c 128,-1,24
 1263.75390625 1016.36816406 1263.75390625 1016.36816406 1296.05957031 969.247070312 c 0,25,26
 1390 832.219726562 1390 832.219726562 1390 614.829101562 c 2,27,-1
 1390 463 l 1,28,-1
 862.413433793 463 l 1,29,30
 873.073122996 339.03125 873.073122996 339.03125 925.670609321 279.14453125 c 0,31,32
 940.409617729 262.362304688 940.409617729 262.362304688 956.216702374 250.422851562 c 128,-1,33
 972.023787019 238.482421875 972.023787019 238.482421875 989.860549245 230.841796875 c 128,-1,34
 1007.69731147 223.202148438 1007.69731147 223.202148438 1027.38518402 219.637695312 c 128,-1,35
 1047.07416568 216.073242188 1047.07416568 216.073242188 1070.14483419 216.073242188 c 0,36,37
 1175.4140625 216.073242188 1175.4140625 216.073242188 1285.03417969 277.838867188 c 2,38,-1
 1363 321.76953125 l 1,39,-1
 1363 67.7861328125 l 1,40,-1
 1340.7421875 54.0517578125 l 2,41,42
 1220.74023438 -20 1220.74023438 -20 1061.05897695 -20 c 0,43,44
 946.114897228 -20 946.114897228 -20 854.320233073 23.8154296875 c 128,-1,45
 762.525568919 67.630859375 762.525568919 67.630859375 700.535000931 151.916992188 c 1,46,47
 570.654490607 -20 570.654490607 -20 360.312237185 -20 c 0,48,49
 212.7734375 -20 212.7734375 -20 126.966796875 74.3994140625 c 0,50,51
 45 164.576171875 45 164.576171875 45 318.936523438 c 0,52,53
 45 483.330078125 45 483.330078125 142.424804688 576.015625 c 128,-1,54
 239.849609375 668.702148438 239.849609375 668.702148438 439.314387005 676.649414062 c 2,0,-1
914.749169347 812.513671875 m 0,55,56
 879.972917661 759.440429688 879.972917661 759.440429688 868.707652524 662 c 1,57,-1
 1105.88712368 662 l 1,58,59
 1099.12153174 755.249023438 1099.12153174 755.249023438 1067.61605557 811.415039062 c 0,60,61
 1050.255103 842.365234375 1050.255103 842.365234375 1032.74331101 853.682617188 c 128,-1,62
 1015.23151902 865 1015.23151902 865 992.915047639 865 c 0,63,64
 982.55703729 865 982.55703729 865 973.584309619 862.724609375 c 128,-1,65
 964.611581947 860.44921875 964.611581947 860.44921875 954.799255407 854.829101562 c 128,-1,66
 944.98803798 849.208984375 944.98803798 849.208984375 934.964979888 838.639648438 c 128,-1,67
 924.941921795 828.0703125 924.941921795 828.0703125 914.749169347 812.513671875 c 0,55,56
551.115239261 489 m 2,68,-1
 551.115239261 532.782226562 l 1,69,-1
 513.651605727 530.158203125 l 2,70,71
 409.089936848 522.9453125 409.089936848 522.9453125 364.825219743 482.52734375 c 128,-1,72
 320.561611753 442.109375 320.561611753 442.109375 320.561611753 356 c 0,73,74
 320.561611753 288.576171875 320.561611753 288.576171875 347.020621806 253.995117188 c 0,75,76
 357.988644544 239.66015625 357.988644544 239.66015625 369.080887985 234.330078125 c 128,-1,77
 380.173131427 229 380.173131427 229 397.791398307 229 c 0,78,79
 429.006286761 229 429.006286761 229 453.482201996 242.267578125 c 128,-1,80
 477.957008119 255.53515625 477.957008119 255.53515625 500.978875644 287.694335938 c 0,81,82
 551.115239261 357.731445312 551.115239261 357.731445312 551.115239261 489 c 2,68,-1
EndSplineSet
EndChar

StartChar: eth
Encoding: 240 240 178
Width: 1433
Flags: W
LayerCount: 2
Fore
SplineSet
687.611786191 984.1328125 m 0,0,1
 827.09460234 984.1328125 827.09460234 984.1328125 928.121595921 951.666015625 c 1,2,3
 895.92404193 1001.30175781 895.92404193 1001.30175781 853.11679398 1046.29980469 c 128,-1,4
 810.308394555 1091.29785156 810.308394555 1091.29785156 756.240869069 1132.52441406 c 1,5,-1
 443.203080895 973.854492188 l 1,6,-1
 305.811523438 1173.59765625 l 1,7,-1
 520.087090622 1290.17578125 l 1,8,9
 450.810878592 1328.42285156 450.810878592 1328.42285156 400.051541812 1352.47949219 c 2,10,-1
 352.528320312 1377.39941406 l 1,11,-1
 486.116264577 1587.00683594 l 1,12,-1
 537.184196754 1565.80664062 l 2,13,14
 612.331781639 1534.60839844 612.331781639 1534.60839844 679.591760315 1501.19042969 c 128,-1,15
 746.851738991 1467.77246094 746.851738991 1467.77246094 803.948796147 1433.3046875 c 1,16,-1
 1081.64746094 1579.19726562 l 1,17,-1
 1211.66210938 1380.66210938 l 1,18,-1
 1022.88571502 1269.50195312 l 1,19,20
 1298 995.232421875 1298 995.232421875 1298 576.79296875 c 0,21,22
 1298 441.697265625 1298 441.697265625 1263.36523438 333.037109375 c 128,-1,23
 1228.73046875 224.376953125 1228.73046875 224.376953125 1158.06640625 143.859375 c 0,24,25
 1007.45709669 -20 1007.45709669 -20 713.552223081 -20 c 0,26,27
 437.293709352 -20 437.293709352 -20 281.734375 116.556640625 c 0,28,29
 135 252.892578125 135 252.892578125 135 483.444335938 c 0,30,31
 135 598.21875 135 598.21875 168.23046875 690.442382812 c 128,-1,32
 201.4609375 782.665039062 201.4609375 782.665039062 269.096679688 849.700195312 c 0,33,34
 336.971679688 916.97265625 336.971679688 916.97265625 440.021554477 950.552734375 c 0,35,36
 550.915540411 984.1328125 550.915540411 984.1328125 687.611786191 984.1328125 c 0,0,1
923.453514816 755.416992188 m 0,37,38
 849.931813137 823 849.931813137 823 715.910444616 823 c 0,39,40
 573.238041722 823 573.238041722 823 506.028727962 753 c 128,-1,41
 438.819414202 683 438.819414202 683 438.819414202 522 c 0,42,43
 438.819414202 367 438.819414202 367 506.028727962 300 c 128,-1,44
 573.238041722 233 573.238041722 233 718.268666152 233 c 0,45,46
 867.980037916 233 867.980037916 233 929.677239132 310.131835938 c 0,47,48
 998.897028868 396.666992188 998.897028868 396.666992188 998.897028868 577 c 0,49,50
 998.897028868 686.067382812 998.897028868 686.067382812 923.453514816 755.416992188 c 0,37,38
EndSplineSet
EndChar

StartChar: divide
Encoding: 247 247 185
Width: 1433
Flags: W
LayerCount: 2
Fore
SplineSet
569.578315963 1147.5 m 128,-1,1
 621.991002474 1196 621.991002474 1196 713.713203869 1196 c 128,-1,2
 805.435405264 1196 805.435405264 1196 858.443690485 1147.5 c 128,-1,3
 911.451975707 1099 911.451975707 1099 911.451975707 1020 c 128,-1,4
 911.451975707 941 911.451975707 941 858.443690485 892.5 c 128,-1,5
 805.435405264 844 805.435405264 844 713.713203869 844 c 128,-1,6
 621.991002474 844 621.991002474 844 569.578315963 892.5 c 128,-1,7
 517.165629452 941 517.165629452 941 517.165629452 1020 c 128,-1,0
 517.165629452 1099 517.165629452 1099 569.578315963 1147.5 c 128,-1,1
1279 596 m 1,8,-1
 152 596 l 1,9,-1
 152 848 l 1,10,-1
 1279 848 l 1,11,-1
 1279 596 l 1,8,-1
569.578315963 551.5 m 128,-1,13
 621.991002474 600 621.991002474 600 713.713203869 600 c 128,-1,14
 805.435405264 600 805.435405264 600 858.443690485 551.5 c 128,-1,15
 911.451975707 503 911.451975707 503 911.451975707 424 c 128,-1,16
 911.451975707 345 911.451975707 345 858.443690485 296.5 c 128,-1,17
 805.435405264 248 805.435405264 248 713.713203869 248 c 128,-1,18
 621.991002474 248 621.991002474 248 569.578315963 296.5 c 128,-1,19
 517.165629452 345 517.165629452 345 517.165629452 424 c 128,-1,12
 517.165629452 503 517.165629452 503 569.578315963 551.5 c 128,-1,13
EndSplineSet
EndChar

StartChar: oslash
Encoding: 248 248 186
Width: 1433
Flags: W
LayerCount: 2
Fore
SplineSet
711.412326332 -20 m 0,0,1
 576.440398436 -20 576.440398436 -20 461.724353451 19.3251953125 c 1,2,-1
 368.610021433 -105.510742188 l 1,3,-1
 150.5390625 33.5966796875 l 1,4,-1
 242.081054688 164.084960938 l 1,5,6
 115 316.686523438 115 316.686523438 115 553.131835938 c 0,7,8
 115 681.7421875 115 681.7421875 151.147460938 785.212890625 c 128,-1,9
 187.294921875 888.682617188 187.294921875 888.682617188 260.784179688 964.692382812 c 0,10,11
 417.110087022 1118 417.110087022 1118 718.419766906 1118 c 0,12,13
 853.398538005 1118 853.398538005 1118 972.071095255 1075.29003906 c 1,14,-1
 1064.72579209 1199.51074219 l 1,15,-1
 1282.4609375 1060.40332031 l 1,16,-1
 1190.89941406 929.928710938 l 1,17,18
 1316 779.264648438 1316 779.264648438 1316 548.342773438 c 0,19,20
 1316 282.887695312 1316 282.887695312 1168.47070312 132.55078125 c 0,21,22
 1010.12729148 -20 1010.12729148 -20 711.412326332 -20 c 0,0,1
412.428195167 500 m 0,23,24
 412.428195167 408.751953125 412.428195167 408.751953125 429.017261435 341.62890625 c 1,25,-1
 800.589535162 855.6875 l 1,26,27
 778.341139446 860.483398438 778.341139446 860.483398438 755.633108549 862.7421875 c 128,-1,28
 732.925077652 865 732.925077652 865 706.740699282 865 c 0,29,30
 550.079237305 865 550.079237305 865 484.903424868 783.650390625 c 0,31,32
 412.428195167 693.188476562 412.428195167 693.188476562 412.428195167 500 c 0,23,24
1009.19091311 717.256835938 m 128,-1,34
 1006.16165495 734.452148438 1006.16165495 734.452148438 1002.20856429 750.260742188 c 1,35,-1
 633.262940241 240.916015625 l 1,36,37
 673.646966258 233 673.646966258 233 724.259300718 233 c 0,38,39
 880.582024112 233 880.582024112 233 945.798895771 315.974609375 c 0,40,41
 1018.57180483 408.563476562 1018.57180483 408.563476562 1018.57180483 602 c 0,42,43
 1018.57180483 622.87109375 1018.57180483 622.87109375 1017.49285972 642.89453125 c 128,-1,44
 1016.4139146 662.918945312 1016.4139146 662.918945312 1014.31647267 681.490234375 c 128,-1,33
 1012.22017128 700.0625 1012.22017128 700.0625 1009.19091311 717.256835938 c 128,-1,34
EndSplineSet
EndChar

StartChar: thorn
Encoding: 254 254 192
Width: 1433
Flags: W
LayerCount: 2
Fore
SplineSet
449.163679107 1045.62304688 m 1,0,-1
 448.166503476 1030.07910156 l 1,1,2
 580.212268615 1118 580.212268615 1118 770.931384073 1118 c 0,3,4
 1039.48121703 1118 1039.48121703 1118 1170.98925781 962.452148438 c 0,5,6
 1296 812.654296875 1296 812.654296875 1296 550.8359375 c 0,7,8
 1296 287.209960938 1296 287.209960938 1170.5234375 136.506835938 c 0,9,10
 1038.33678406 -20 1038.33678406 -20 770.931384073 -20 c 0,11,12
 581.726584166 -20 581.726584166 -20 447.304990111 65.9775390625 c 1,13,14
 448.287092157 52.7841796875 448.287092157 52.7841796875 448.725385632 44.02734375 c 128,-1,15
 449.163679107 35.271484375 449.163679107 35.271484375 449.163679107 28 c 2,16,-1
 449.163679107 -492 l 1,17,-1
 158 -492 l 1,18,-1
 158 1556 l 1,19,-1
 449.163679107 1556 l 1,20,-1
 449.163679107 1045.62304688 l 1,0,-1
520.627546151 806.666992188 m 0,21,22
 453.742570463 742.481445312 453.742570463 742.481445312 449.163679107 585.587890625 c 1,23,-1
 449.163679107 550.721679688 l 2,24,25
 449.163679107 369.434570312 449.163679107 369.434570312 520.265780108 297.840820312 c 0,26,27
 584.661295238 233 584.661295238 233 734.124008228 233 c 0,28,29
 864.730825742 233 864.730825742 233 930.627901851 307.048828125 c 128,-1,30
 996.524977961 381.09765625 996.524977961 381.09765625 996.524977961 552.444335938 c 0,31,32
 996.524977961 720.345703125 996.524977961 720.345703125 930.034234499 792.672851562 c 128,-1,33
 863.543491037 865 863.543491037 865 731.749338819 865 c 0,34,35
 652.589826819 865 652.589826819 865 601.426600409 850.052734375 c 128,-1,36
 550.262214492 835.10546875 550.262214492 835.10546875 520.627546151 806.666992188 c 0,21,22
EndSplineSet
EndChar

StartChar: dcroat
Encoding: 273 273 211
Width: 1433
Flags: W
LayerCount: 2
Fore
SplineSet
1034.51464844 0 m 1,0,-1
 1014.71825927 90.912109375 l 1,1,2
 874.287659803 -20 874.287659803 -20 661.64579739 -20 c 0,3,4
 394.182096285 -20 394.182096285 -20 262.581054688 129.370117188 c 0,5,6
 198.970703125 202.564453125 198.970703125 202.564453125 167.985351562 302.110351562 c 128,-1,7
 137 401.657226562 137 401.657226562 137 526.212890625 c 0,8,9
 137 780.307617188 137 780.307617188 262.98828125 926.150390625 c 0,10,11
 394.837908693 1077 394.837908693 1077 652.254339881 1077 c 0,12,13
 835.168913526 1077 835.168913526 1077 964.351485098 991.455078125 c 1,14,15
 962.715851987 1014.92871094 962.715851987 1014.92871094 962.715851987 1028 c 2,16,-1
 962.715851987 1135 l 1,17,-1
 528.527980813 1135 l 1,18,-1
 528.527980813 1374 l 1,19,-1
 962.715851987 1374 l 1,20,-1
 962.715851987 1556 l 1,21,-1
 1275 1556 l 1,22,-1
 1275 1374 l 1,23,-1
 1431 1374 l 1,24,-1
 1431 1135 l 1,25,-1
 1275 1135 l 1,26,-1
 1275 0 l 1,27,-1
 1034.51464844 0 l 1,0,-1
961.788186173 367.09375 m 128,-1,29
 980.627115029 419.1484375 980.627115029 419.1484375 982.926409075 493.5625 c 1,30,-1
 982.926409075 526.368164062 l 2,31,32
 962.715851987 612.33203125 962.715851987 612.33203125 944.56502327 672.049804688 c 128,-1,33
 926.413075788 731.766601562 926.413075788 731.766601562 894.903084983 762.818359375 c 0,34,35
 874.683661449 782.7421875 874.683661449 782.7421875 846.980824867 796.032226562 c 128,-1,36
 819.277988286 809.322265625 819.277988286 809.322265625 779.226233596 816.661132812 c 128,-1,37
 739.173360142 824 739.173360142 824 687.768387392 824 c 0,38,39
 560.605185016 824 560.605185016 824 497.596391046 754.49609375 c 128,-1,40
 434.587597076 684.991210938 434.587597076 684.991210938 436.393708017 524.662109375 c 0,41,42
 436.393708017 368.59765625 436.393708017 368.59765625 502.19102886 300.798828125 c 128,-1,43
 567.988349703 233 567.988349703 233 700.768528702 233 c 0,44,45
 850.888348648 233 850.888348648 233 912.169281741 287.609375 c 0,46,28
 942.950415068 315.0390625 942.950415068 315.0390625 961.788186173 367.09375 c 128,-1,29
EndSplineSet
EndChar

StartChar: Hbar
Encoding: 294 294 232
Width: 1433
Flags: W
LayerCount: 2
Fore
SplineSet
0 1234.84765625 m 1,0,-1
 135 1234.84765625 l 1,1,-1
 135 1462 l 1,2,-1
 424 1462 l 1,3,-1
 424 1219 l 1,4,-1
 1009 1219 l 1,5,-1
 1009 1462 l 1,6,-1
 1298 1462 l 1,7,-1
 1298 1234.84765625 l 1,8,-1
 1433 1234.84765625 l 1,9,-1
 1433 999.282226562 l 1,10,-1
 1298 999.282226562 l 1,11,-1
 1298 0 l 1,12,-1
 1009 0 l 1,13,-1
 1009 631 l 1,14,-1
 424 631 l 1,15,-1
 424 0 l 1,16,-1
 135 0 l 1,17,-1
 135 999.282226562 l 1,18,-1
 0 999.282226562 l 1,19,-1
 0 1234.84765625 l 1,0,-1
424 897 m 1,20,-1
 1009 897 l 1,21,-1
 1009 1018 l 1,22,-1
 424 1018 l 1,23,-1
 424 897 l 1,20,-1
EndSplineSet
EndChar

StartChar: hbar
Encoding: 295 295 233
Width: 1433
Flags: W
LayerCount: 2
Fore
SplineSet
1273 0 m 1,0,-1
 989 0 l 1,1,-1
 989 638.021484375 l 2,2,3
 989 739.46484375 989 739.46484375 935.484198646 781.732421875 c 128,-1,4
 881.968397291 824 881.968397291 824 761.404063205 824 c 0,5,6
 592.589726915 824 592.589726915 824 521.007056381 758.134765625 c 0,7,8
 444 687.278320312 444 687.278320312 444 515.22265625 c 2,9,-1
 444 0 l 1,10,-1
 160 0 l 1,11,-1
 160 1135 l 1,12,-1
 4 1135 l 1,13,-1
 4 1374 l 1,14,-1
 160 1374 l 1,15,-1
 160 1556 l 1,16,-1
 446.460496614 1556 l 1,17,-1
 446.460496614 1374 l 1,18,-1
 960.704288939 1374 l 1,19,-1
 960.704288939 1135 l 1,20,-1
 444 1135 l 1,21,-1
 444 1000.23144531 l 1,22,-1
 443.138671875 987.821289062 l 1,23,24
 585.611912299 1077 585.611912299 1077 806.923250564 1077 c 0,25,26
 1054.28222656 1077 1054.28222656 1077 1163.75195312 975.943359375 c 0,27,28
 1219.94824219 924.065429688 1219.94824219 924.065429688 1246.47460938 845.685546875 c 128,-1,29
 1273 767.306640625 1273 767.306640625 1273 664.104492188 c 2,30,-1
 1273 0 l 1,0,-1
EndSplineSet
EndChar

StartChar: dotlessi
Encoding: 305 305 243
Width: 1433
Flags: W
LayerCount: 2
Fore
SplineSet
561.513593187 221.541015625 m 1,0,-1
 541 876.411132812 l 1,1,-1
 272 895.625976562 l 1,2,-1
 272 1098 l 1,3,-1
 825 1098 l 1,4,-1
 904.815918768 221.598632812 l 1,5,-1
 1279 203.298828125 l 1,6,-1
 1279 0 l 1,7,-1
 197 0 l 1,8,-1
 197 203.240234375 l 1,9,-1
 561.513593187 221.541015625 l 1,0,-1
EndSplineSet
EndChar

StartChar: IJ
Encoding: 306 306 244
Width: 1433
Flags: W
LayerCount: 2
Fore
SplineSet
444 0 m 1,0,-1
 156 0 l 1,1,-1
 156 1462 l 1,2,-1
 444 1462 l 1,3,-1
 444 0 l 1,0,-1
533.191529461 30.716796875 m 2,4,-1
 503.439252336 45.689453125 l 1,5,-1
 503.439252336 318.333984375 l 1,6,-1
 594.101284134 282.908203125 l 2,7,8
 696.233476015 243 696.233476015 243 796.920560748 243 c 0,9,10
 886.079439252 243 886.079439252 243 930.039719626 290.5234375 c 128,-1,11
 974 338.046875 974 338.046875 974 457.0859375 c 2,12,-1
 974 1462 l 1,13,-1
 1263 1462 l 1,14,-1
 1263 454.352539062 l 2,15,16
 1263 227 1263 227 1157 103.5 c 128,-1,17
 1051 -20 1051 -20 816.73364486 -20 c 0,18,19
 633.969311295 -20 633.969311295 -20 533.191529461 30.716796875 c 2,4,-1
EndSplineSet
EndChar

StartChar: ij
Encoding: 307 307 245
Width: 1433
Flags: W
LayerCount: 2
Fore
SplineSet
230.5 1504.5 m 128,-1,1
 273 1550 273 1550 346 1550 c 0,2,3
 418 1550 418 1550 460.5 1504.5 c 0,4,5
 513.597402597 1459 513.597402597 1459 513.597402597 1385 c 0,6,7
 513.597402597 1304.36621094 513.597402597 1304.36621094 454.716796875 1260.68164062 c 0,8,9
 408.647460938 1219 408.647460938 1219 346 1219 c 0,10,11
 273 1219 273 1219 230.5 1265 c 128,-1,12
 188 1311 188 1311 188 1385 c 128,-1,0
 188 1459 188 1459 230.5 1504.5 c 128,-1,1
965.5 1504.5 m 128,-1,14
 1008 1550 1008 1550 1081 1550 c 0,15,16
 1153 1550 1153 1550 1195.5 1504.5 c 128,-1,17
 1238 1459 1238 1459 1238 1385 c 0,18,19
 1238 1304.36621094 1238 1304.36621094 1189.71679688 1260.68164062 c 0,20,21
 1143.64746094 1219 1143.64746094 1219 1081 1219 c 0,22,23
 1008 1219 1008 1219 965.5 1265 c 128,-1,24
 923 1311 923 1311 923 1385 c 128,-1,13
 923 1459 923 1459 965.5 1504.5 c 128,-1,14
203 0 m 1,25,-1
 203 1098 l 1,26,-1
 487 1098 l 1,27,-1
 487 0 l 1,28,-1
 203 0 l 1,25,-1
566.569805195 -453.666992188 m 2,29,-1
 511.935064935 -441.1640625 l 1,30,-1
 511.935064935 -173.61328125 l 1,31,-1
 631.064935065 -205.374023438 l 2,32,33
 753.794921875 -240 753.794921875 -240 845 -240 c 0,34,35
 904 -240 904 -240 931 -204.5 c 128,-1,36
 958 -169 958 -169 958 -76 c 2,37,-1
 958 876.024414062 l 1,38,-1
 743 895.345703125 l 1,39,-1
 743 1098 l 1,40,-1
 1242 1098 l 1,41,-1
 1242 -66 l 2,42,43
 1242 -131.265625 1242 -131.265625 1231.76464844 -187.166015625 c 128,-1,44
 1221.52832031 -243.067382812 1221.52832031 -243.067382812 1199.59960938 -291.678710938 c 128,-1,45
 1177.67089844 -340.291015625 1177.67089844 -340.291015625 1144.27050781 -378.209960938 c 0,46,47
 1044.04101562 -492 1044.04101562 -492 870 -492 c 0,48,49
 853.689453125 -492 853.689453125 -492 837.8671875 -491.419921875 c 128,-1,50
 822.045898438 -490.83984375 822.045898438 -490.83984375 806.586914062 -489.671875 c 128,-1,51
 791.12890625 -488.50390625 791.12890625 -488.50390625 776.134765625 -486.734375 c 128,-1,52
 761.139648438 -484.96484375 761.139648438 -484.96484375 746.552734375 -482.596679688 c 0,53,54
 724.657467532 -480.227539062 724.657467532 -480.227539062 701.131493506 -477.235351562 c 128,-1,55
 677.605519481 -474.2421875 677.605519481 -474.2421875 654.831168831 -470.639648438 c 128,-1,56
 632.056818182 -467.037109375 632.056818182 -467.037109375 609.954545455 -462.787109375 c 128,-1,57
 587.853896104 -458.538085938 587.853896104 -458.538085938 566.569805195 -453.666992188 c 2,29,-1
EndSplineSet
EndChar

StartChar: kgreenlandic
Encoding: 312 312 250
Width: 1433
Flags: W
LayerCount: 2
Fore
SplineSet
497 754.63671875 m 1,0,-1
 488.921875 603.669921875 l 1,1,-1
 540.821269851 656.81640625 l 1,2,-1
 1053.07519531 1098 l 1,3,-1
 1408.40234375 1098 l 1,4,-1
 820.963106477 583.302734375 l 1,5,-1
 1429.47265625 -0 l 1,6,-1
 1080.42578125 0 l 1,7,-1
 580.76464232 453.923828125 l 1,8,-1
 497 409.987304688 l 1,9,-1
 497 0 l 1,10,-1
 215 0 l 1,11,-1
 215 1098 l 1,12,-1
 497 1098 l 1,13,-1
 497 754.63671875 l 1,0,-1
EndSplineSet
EndChar

StartChar: Lslash
Encoding: 321 321 259
Width: 1433
Flags: W
LayerCount: 2
Fore
SplineSet
1313.88574219 0 m 1,0,-1
 287.885742188 0 l 1,1,-1
 287.885742188 421.64453125 l 1,2,-1
 196.330078125 368.239257812 l 1,3,-1
 72 567.249023438 l 1,4,-1
 287.885742188 694.651367188 l 1,5,-1
 287.885742188 1462 l 1,6,-1
 576.885742188 1462 l 1,7,-1
 576.885742188 873.818359375 l 1,8,-1
 910.20721179 1027.62597656 l 1,9,-1
 1075.01074219 832.715820312 l 1,10,-1
 617.65104483 602.323242188 l 1,11,-1
 617.65104483 268 l 1,12,-1
 1313.88574219 268 l 1,13,-1
 1313.88574219 0 l 1,0,-1
EndSplineSet
EndChar

StartChar: lslash
Encoding: 322 322 260
Width: 1433
Flags: W
LayerCount: 2
Fore
SplineSet
552.471684236 224.690429688 m 1,0,-1
 552.471684236 509.31640625 l 1,1,-1
 426.919921875 445.689453125 l 1,2,-1
 293.6640625 637.525390625 l 1,3,-1
 552.471684236 781.948242188 l 1,4,-1
 552.471684236 1314.83984375 l 1,5,-1
 264 1335.83984375 l 1,6,-1
 264 1556 l 1,7,-1
 896.8612405 1556 l 1,8,-1
 896.8612405 965.368164062 l 1,9,-1
 1047.21484375 1044.60839844 l 1,10,-1
 1178.95996094 850.31640625 l 1,11,-1
 896.8612405 689.358398438 l 1,12,-1
 896.8612405 227.28515625 l 1,13,-1
 1271 208.515625 l 1,14,-1
 1271 0 l 1,15,-1
 188 0 l 1,16,-1
 188 206.129882812 l 1,17,-1
 552.471684236 224.690429688 l 1,0,-1
EndSplineSet
EndChar

StartChar: napostrophe
Encoding: 329 329 267
Width: 1433
Flags: W
LayerCount: 2
Fore
SplineSet
1348.18847656 0 m 1,0,-1
 1064.18847656 0 l 1,1,-1
 1064.18847656 678.045898438 l 2,2,3
 1064.18847656 780.915039062 1064.18847656 780.915039062 1014.03922283 822.958007812 c 128,-1,4
 963.8899691 865 963.8899691 865 853.561610891 865 c 0,5,6
 710.955792327 865 710.955792327 865 640.855803988 798.262695312 c 0,7,8
 560.188476562 721.46484375 560.188476562 721.46484375 560.188476562 554.6015625 c 2,9,-1
 560.188476562 0 l 1,10,-1
 276.188476562 0 l 1,11,-1
 276.188476562 1018.00683594 l 1,12,13
 255.728515625 972.688476562 255.728515625 972.688476562 232.751953125 924.71484375 c 2,14,-1
 219.260742188 896.544921875 l 1,15,-1
 -16 896.544921875 l 1,16,-1
 -0.3125 955.57421875 l 2,17,18
 59.109375 1179.16601562 59.109375 1179.16601562 98.7861328125 1418.78417969 c 2,19,-1
 105.4609375 1462 l 1,20,-1
 376.184570312 1462 l 1,21,-1
 417.0390625 1397.79980469 l 1,22,-1
 411.62109375 1376.45410156 l 2,23,24
 398.739257812 1325.69726562 398.739257812 1325.69726562 381.096679688 1269.85546875 c 128,-1,25
 363.454101562 1214.01464844 363.454101562 1214.01464844 341.064453125 1153.109375 c 0,26,27
 331.11328125 1126.04296875 331.11328125 1126.04296875 320.247070312 1098 c 1,28,-1
 518.010742188 1098 l 1,29,-1
 533.5078125 1009.78515625 l 1,30,31
 552.220703125 1026.99609375 552.220703125 1026.99609375 575.563826376 1041.015625 c 0,32,33
 600.927399137 1055.03515625 600.927399137 1055.03515625 630.3509066 1067.24414062 c 0,34,35
 691.395624417 1092.57421875 691.395624417 1092.57421875 758.513103428 1105.28710938 c 128,-1,36
 825.631806786 1118 825.631806786 1118 897.442207906 1118 c 0,37,38
 1134.18847656 1118 1134.18847656 1118 1241.18847656 1010.32421875 c 128,-1,39
 1348.18847656 902.647460938 1348.18847656 902.647460938 1348.18847656 703.790039062 c 2,40,-1
 1348.18847656 0 l 1,0,-1
EndSplineSet
EndChar

StartChar: Eng
Encoding: 330 330 268
Width: 1433
Flags: W
LayerCount: 2
Fore
SplineSet
1019.79100683 39.0146484375 m 1,0,-1
 403.532226562 1041.1015625 l 1,1,2
 409 921.713867188 409 921.713867188 409 844 c 2,3,-1
 409 0 l 1,4,-1
 135 0 l 1,5,-1
 135 1462 l 1,6,-1
 430.172851562 1462 l 1,7,-1
 1025.42871094 499.383789062 l 1,8,9
 1022.70703125 557.036132812 1022.70703125 557.036132812 1021.35351562 603.452148438 c 128,-1,10
 1020 649.868164062 1020 649.868164062 1020 686 c 2,11,-1
 1020 1462 l 1,12,-1
 1296 1462 l 1,13,-1
 1296 52.14453125 l 2,14,15
 1296 -154.026367188 1296 -154.026367188 1182.01464844 -267.584960938 c 0,16,17
 1124.05957031 -328.727539062 1124.05957031 -328.727539062 1042.07617188 -358.86328125 c 0,18,19
 947.567924983 -389 947.567924983 -389 824.127346432 -389 c 0,20,21
 698.954604116 -389 698.954604116 -389 613.248510656 -361.560546875 c 2,22,-1
 573.845622429 -348.9453125 l 1,23,-1
 573.845622429 -88.060546875 l 1,24,-1
 651.011333804 -104.637695312 l 2,25,26
 736.487180547 -123 736.487180547 -123 826.54552734 -123 c 0,27,28
 928.222477717 -123 928.222477717 -123 972.415678417 -86.123046875 c 128,-1,29
 1016.61005987 -49.24609375 1016.61005987 -49.24609375 1019.79100683 39.0146484375 c 1,0,-1
EndSplineSet
EndChar

StartChar: eng
Encoding: 331 331 269
Width: 1433
Flags: W
LayerCount: 2
Fore
SplineSet
452.448826115 554.6015625 m 2,0,-1
 452.448826115 0 l 1,1,-1
 160 0 l 1,2,-1
 160 1098 l 1,3,-1
 400.538085938 1098 l 1,4,-1
 420.317938357 1007.22070312 l 1,5,6
 559.932810104 1118 559.932810104 1118 795.240503667 1118 c 0,7,8
 1046 1118 1046 1118 1159.5 1009.99316406 c 128,-1,9
 1273 901.986328125 1273 901.986328125 1273 700.743164062 c 2,10,-1
 1273 -107 l 2,11,12
 1273 -290 1273 -290 1185 -391 c 128,-1,13
 1097 -492 1097 -492 912.291320392 -492 c 0,14,15
 801.66271545 -492 801.66271545 -492 727.043286349 -461.963867188 c 2,16,-1
 692.52244001 -448.068359375 l 1,17,-1
 692.52244001 -193.446289062 l 1,18,-1
 775.514305759 -220.467773438 l 2,19,20
 802.448870689 -229.237304688 802.448870689 -229.237304688 831.107378411 -233.618164062 c 128,-1,21
 859.76471973 -238 859.76471973 -238 890.792190789 -238 c 0,22,23
 938.56803435 -238 938.56803435 -238 960.067163953 -214 c 128,-1,24
 981.566293556 -190 981.566293556 -190 981.566293556 -119 c 2,25,-1
 981.566293556 675.629882812 l 2,26,27
 981.566293556 778.016601562 981.566293556 778.016601562 929.012865638 821.5078125 c 128,-1,28
 876.459437721 865 876.459437721 865 758.214224907 865 c 0,29,30
 601.748337244 865 601.748337244 865 527.09858168 792.543945312 c 128,-1,31
 452.448826115 720.087890625 452.448826115 720.087890625 452.448826115 554.6015625 c 2,0,-1
EndSplineSet
EndChar

StartChar: OE
Encoding: 338 338 276
Width: 1433
Flags: W
LayerCount: 2
Fore
SplineSet
1431 266 m 1,0,-1
 1431 0 l 1,1,-1
 764.592476364 0 l 1,2,-1
 716.060248894 -8.9892578125 l 2,3,4
 652.89937292 -20 652.89937292 -20 595.588638254 -20 c 0,5,6
 291.899740666 -20 291.899740666 -20 154.5 174.797851562 c 0,7,8
 20 369.595703125 20 369.595703125 20 734.841796875 c 0,9,10
 20 1098.21386719 20 1098.21386719 161 1291.60742188 c 0,11,12
 306.521798698 1485 306.521798698 1485 622.583206929 1485 c 0,13,14
 670.113682827 1485 670.113682827 1485 716.152515486 1479.16113281 c 128,-1,15
 762.191348145 1473.32324219 762.191348145 1473.32324219 804.497777469 1462 c 1,16,-1
 1431 1462 l 1,17,-1
 1431 1196 l 1,18,-1
 1014.00445271 1196 l 1,19,-1
 1014.00445271 897 l 1,20,-1
 1392 897 l 1,21,-1
 1392 633 l 1,22,-1
 1014.00445271 633 l 1,23,-1
 1014.00445271 266 l 1,24,-1
 1431 266 l 1,0,-1
606.836375202 245 m 0,25,26
 654.376736807 245 654.376736807 245 699.067818173 258.465820312 c 1,27,-1
 699.067818173 1206.25683594 l 1,28,29
 678.177123934 1212.72753906 678.177123934 1212.72753906 656.181427413 1215.86328125 c 128,-1,30
 634.186829303 1219 634.186829303 1219 609.085922591 1219 c 0,31,32
 316.644761951 1219 316.644761951 1219 316.644761951 732.905273438 c 0,33,34
 316.644761951 245 316.644761951 245 606.836375202 245 c 0,25,26
EndSplineSet
EndChar

StartChar: oe
Encoding: 339 339 277
Width: 1433
Flags: W
LayerCount: 2
Fore
SplineSet
836.697602136 50.6630859375 m 0,0,1
 788.669594654 85.4208984375 788.669594654 85.4208984375 754.466633909 133.299804688 c 1,2,3
 641.721685272 -20 641.721685272 -20 454.681585748 -20 c 0,4,5
 260.946289062 -20 260.946289062 -20 155.129882812 143.256835938 c 0,6,7
 57 294.654296875 57 294.654296875 57 548.907226562 c 0,8,9
 57 806.741210938 57 806.741210938 152.048828125 954.432617188 c 0,10,11
 201.827148438 1031.78027344 201.827148438 1031.78027344 274.720703125 1072.96875 c 0,12,13
 353.903275101 1118 353.903275101 1118 456.962005828 1118 c 0,14,15
 517.561274397 1118 517.561274397 1118 571.894955177 1099.78320312 c 128,-1,16
 626.228635957 1081.56738281 626.228635957 1081.56738281 671.068731969 1047.48730469 c 128,-1,17
 715.908827981 1013.40722656 715.908827981 1013.40722656 751.886685996 964.30859375 c 1,18,19
 785.368107575 1012.98144531 785.368107575 1012.98144531 827.284188386 1047.00292969 c 128,-1,20
 869.201382684 1081.02441406 869.201382684 1081.02441406 920.623296613 1099.51171875 c 128,-1,21
 972.045210543 1118 972.045210543 1118 1029.34744598 1118 c 0,22,23
 1119.90840572 1118 1119.90840572 1118 1185.7578125 1076.70898438 c 0,24,25
 1250.09082031 1038.5859375 1250.09082031 1038.5859375 1294.17773438 968.013671875 c 0,26,27
 1378 833.836914062 1378 833.836914062 1378 614.416992188 c 2,28,-1
 1378 463 l 1,29,-1
 913.488075972 463 l 1,30,31
 917.743820867 392.973632812 917.743820867 392.973632812 931.426341349 343.575195312 c 128,-1,32
 945.108861831 294.17578125 945.108861831 294.17578125 966.698249007 267.331054688 c 128,-1,33
 988.288749669 240.485351562 988.288749669 240.485351562 1013.17294301 228.815429688 c 128,-1,34
 1038.05713634 217.145507812 1038.05713634 217.145507812 1069.25479738 217.145507812 c 0,35,36
 1167.25585938 217.145507812 1167.25585938 217.145507812 1249.34375 275.669921875 c 2,37,-1
 1332 334.599609375 l 1,38,-1
 1332 71.283203125 l 1,39,-1
 1312.28125 57.4921875 l 2,40,41
 1258.79492188 20.0859375 1258.79492188 20.0859375 1196.10058594 1.091796875 c 0,42,43
 1133.40625 -20 1133.40625 -20 1054.43206686 -20 c 0,44,45
 934.339221686 -20 934.339221686 -20 836.697602136 50.6630859375 c 0,0,1
413.47256878 246.2578125 m 128,-1,47
 435.426065998 233 435.426065998 233 468.36410623 233 c 0,48,49
 493.448727113 233 493.448727113 233 515.682822895 247.637695312 c 128,-1,50
 537.916918678 262.275390625 537.916918678 262.275390625 558.440699401 295.424804688 c 128,-1,51
 578.964480123 328.575195312 578.964480123 328.575195312 590.366580525 391.861328125 c 128,-1,52
 601.768680926 455.147460938 601.768680926 455.147460938 601.768680926 542.111328125 c 0,53,54
 601.768680926 632.520507812 601.768680926 632.520507812 589.796475504 698.389648438 c 128,-1,55
 577.824270083 764.258789062 577.824270083 764.258789062 557.300489361 799.130859375 c 128,-1,56
 536.776708638 834.002929688 536.776708638 834.002929688 514.542612855 849.500976562 c 128,-1,57
 492.308517073 865 492.308517073 865 466.083686149 865 c 0,58,59
 433.602175328 865 433.602175328 865 412.124136789 852.055664062 c 128,-1,60
 390.64609825 839.112304688 390.64609825 839.112304688 373.379265152 804.676757812 c 0,61,62
 353.985673092 765.998046875 353.985673092 765.998046875 343.332949016 701.592773438 c 128,-1,63
 332.679111453 637.188476562 332.679111453 637.188476562 332.679111453 550.721679688 c 0,64,65
 332.679111453 377.06640625 332.679111453 377.06640625 373.961618522 294.591796875 c 0,66,46
 391.519071562 259.515625 391.519071562 259.515625 413.47256878 246.2578125 c 128,-1,47
917.751615272 713 m 1,67,-1
 1093.22259144 713 l 1,68,69
 1090.84975199 750.42578125 1090.84975199 750.42578125 1083.90827798 778.958984375 c 128,-1,70
 1076.96791745 807.491210938 1076.96791745 807.491210938 1068.43972536 823.334960938 c 128,-1,71
 1059.91153327 839.177734375 1059.91153327 839.177734375 1049.06506257 849.060546875 c 128,-1,72
 1038.21859187 858.943359375 1038.21859187 858.943359375 1029.58350509 861.971679688 c 128,-1,73
 1020.94730482 865 1020.94730482 865 1012.24429538 865 c 0,74,75
 1002.50351663 865 1002.50351663 865 992.744922111 861.569335938 c 128,-1,76
 982.985214102 858.139648438 982.985214102 858.139648438 971.13883264 847.916992188 c 128,-1,77
 959.292451178 837.6953125 959.292451178 837.6953125 949.4893172 821.581054688 c 128,-1,78
 939.687296708 805.466796875 939.687296708 805.466796875 931.006556989 777.428710938 c 128,-1,79
 922.325817269 749.390625 922.325817269 749.390625 917.751615272 713 c 1,67,-1
EndSplineSet
EndChar

StartChar: Tbar
Encoding: 358 358 296
Width: 1433
Flags: W
LayerCount: 2
Fore
SplineSet
223 870 m 1,0,-1
 547.777131293 870 l 1,1,-1
 547.777131293 1196 l 1,2,-1
 102 1196 l 1,3,-1
 102 1462 l 1,4,-1
 1328 1462 l 1,5,-1
 1328 1196 l 1,6,-1
 883.384138629 1196 l 1,7,-1
 883.384138629 870 l 1,8,-1
 1205 870 l 1,9,-1
 1307 619 l 1,10,-1
 911 619 l 1,11,-1
 911 0 l 1,12,-1
 622 0 l 1,13,-1
 622 619 l 1,14,-1
 223 619 l 1,15,-1
 223 870 l 1,0,-1
EndSplineSet
EndChar

StartChar: tbar
Encoding: 359 359 297
Width: 1433
Flags: W
LayerCount: 2
Fore
SplineSet
1165.78710938 251.487304688 m 2,0,-1
 1224 259.803710938 l 1,1,-1
 1224 23.03125 l 1,2,-1
 1185.19042969 13.478515625 l 2,3,4
 1049.18457031 -20 1049.18457031 -20 908.033689797 -20 c 0,5,6
 669.437082898 -20 669.437082898 -20 539.895995819 73.2568359375 c 128,-1,7
 410.35490874 166.514648438 410.35490874 166.514648438 410.35490874 341.142578125 c 2,8,-1
 410.35490874 524 l 1,9,-1
 244 524 l 1,10,-1
 244 764 l 1,11,-1
 410.35490874 764 l 1,12,-1
 410.35490874 859 l 1,13,-1
 139 859 l 1,14,-1
 139 1046.4921875 l 1,15,-1
 422.5182143 1097.34472656 l 1,16,-1
 517.456956498 1391 l 1,17,-1
 752.584385302 1391 l 1,18,-1
 752.584385302 1098 l 1,19,-1
 1230 1098 l 1,20,-1
 1230 859 l 1,21,-1
 752.584385302 859 l 1,22,-1
 752.584385302 764 l 1,23,-1
 1099 764 l 1,24,-1
 1099 524 l 1,25,-1
 752.584385302 524 l 1,26,-1
 752.584385302 353.651367188 l 2,27,28
 752.584385302 285.51171875 752.584385302 285.51171875 790.542936399 258.255859375 c 128,-1,29
 828.501487497 231 828.501487497 231 922.494090215 231 c 0,30,31
 975.548508546 231 975.548508546 231 1035.50976562 236.115234375 c 0,32,33
 1093.9921875 241.23046875 1093.9921875 241.23046875 1165.78710938 251.487304688 c 2,0,-1
EndSplineSet
EndChar

StartChar: longs
Encoding: 383 383 321
Width: 1433
Flags: W
LayerCount: 2
Fore
SplineSet
1182.73730469 1530.63085938 m 2,0,-1
 1234.7578125 1518.32910156 l 1,1,-1
 1165.22851562 1275.82324219 l 1,2,-1
 1116.859375 1288.72167969 l 2,3,4
 1018.31640625 1315 1018.31640625 1315 872.247496333 1315 c 0,5,6
 802.694547507 1315 802.694547507 1315 759.323056373 1305.66601562 c 128,-1,7
 715.951565239 1296.33203125 715.951565239 1296.33203125 698.2325465 1282.71289062 c 0,8,9
 689.66537111 1276.12792969 689.66537111 1276.12792969 682.291395635 1265.328125 c 128,-1,10
 674.91742016 1254.52832031 674.91742016 1254.52832031 668.609369943 1238.72753906 c 128,-1,11
 662.301319725 1222.92675781 662.301319725 1222.92675781 658.667363095 1200.33496094 c 128,-1,12
 655.032080687 1177.74316406 655.032080687 1177.74316406 655.032080687 1151 c 2,13,-1
 655.032080687 0 l 1,14,-1
 356 0 l 1,15,-1
 356 1149 l 2,16,17
 356 1217.14355469 356 1217.14355469 366.810546875 1274.12109375 c 128,-1,18
 377.62109375 1331.09765625 377.62109375 1331.09765625 401.2890625 1379.63964844 c 128,-1,19
 424.956054688 1428.18261719 424.956054688 1428.18261719 461.2421875 1463.86425781 c 0,20,21
 497.870117188 1499.88183594 497.870117188 1499.88183594 549.078125 1523.08398438 c 128,-1,22
 600.286132812 1546.28613281 600.286132812 1546.28613281 682.182681865 1556.64257812 c 0,23,24
 764.607606219 1567 764.607606219 1567 865.459514594 1567 c 0,25,26
 1028.94824219 1567 1028.94824219 1567 1182.73730469 1530.63085938 c 2,0,-1
EndSplineSet
EndChar

StartChar: florin
Encoding: 402 402 322
Width: 1433
Flags: W
LayerCount: 2
Fore
SplineSet
1117 761.326171875 m 1,0,-1
 844.661672255 761.326171875 l 1,1,-1
 844.661672255 -74 l 2,2,3
 844.661672255 -141.7109375 844.661672255 -141.7109375 833.537241744 -197.7265625 c 128,-1,4
 822.411598893 -253.7421875 822.411598893 -253.7421875 797.597426738 -301.85546875 c 128,-1,5
 772.783254582 -349.96875 772.783254582 -349.96875 734.276916102 -385.8515625 c 0,6,7
 620.36910033 -492 620.36910033 -492 387 -492 c 0,8,9
 330.596679688 -492 330.596679688 -492 255.314453125 -475.868164062 c 2,10,-1
 215 -467.229492188 l 1,11,-1
 215 -204.120117188 l 1,12,-1
 280.881835938 -224.219726562 l 2,13,14
 332.606445312 -240 332.606445312 -240 381 -240 c 0,15,16
 444.556640625 -240 444.556640625 -240 461.193726707 -213.200195312 c 0,17,18
 490.852408923 -174.51953125 490.852408923 -174.51953125 490.852408923 -76 c 2,19,-1
 490.852408923 761.162109375 l 1,20,-1
 291 761.162109375 l 1,21,-1
 291 910.020507812 l 1,22,-1
 490.852408923 972.440429688 l 1,23,-1
 490.852408923 1065 l 2,24,25
 490.852408923 1105.30761719 490.852408923 1105.30761719 494.796150472 1141.36816406 c 128,-1,26
 498.738679681 1177.42773438 498.738679681 1177.42773438 507.180202093 1210.984375 c 128,-1,27
 515.620512164 1244.54199219 515.620512164 1244.54199219 528.537993321 1273.77539062 c 128,-1,28
 541.455474478 1303.00878906 541.455474478 1303.00878906 559.712100357 1329.08984375 c 128,-1,29
 577.969938576 1355.16992188 577.969938576 1355.16992188 601.237165076 1376.8515625 c 0,30,31
 640.706101401 1413.6328125 640.706101401 1413.6328125 696.867745191 1437.56152344 c 128,-1,32
 753.028176642 1461.49121094 753.028176642 1461.49121094 819.512894299 1472.24511719 c 128,-1,33
 885.997611957 1483 885.997611957 1483 966.322401401 1483 c 0,34,35
 1023.18554688 1483 1023.18554688 1483 1076.95019531 1472.90234375 c 128,-1,36
 1130.71582031 1462.80371094 1130.71582031 1462.80371094 1184.69726562 1442.83105469 c 2,37,-1
 1230.9921875 1425.70214844 l 1,38,-1
 1151.94824219 1188.56835938 l 1,39,-1
 1102.96289062 1205.9296875 l 2,40,41
 1032.22949219 1231 1032.22949219 1231 973.771017471 1231 c 0,42,43
 894.869515017 1231 894.869515017 1231 874.320354472 1204.20019531 c 0,44,45
 844.661672255 1165.51953125 844.661672255 1165.51953125 844.661672255 1067 c 2,46,-1
 844.661672255 980.713867188 l 1,47,-1
 1117 980.713867188 l 1,48,-1
 1117 761.326171875 l 1,0,-1
EndSplineSet
EndChar

StartChar: Ohorn
Encoding: 416 416 323
Width: 1433
Flags: W
LayerCount: 2
Fore
SplineSet
1329.19140625 979.641601562 m 0,0,1
 1351 866.697265625 1351 866.697265625 1351 734.547851562 c 0,2,3
 1351 571.373046875 1351 571.373046875 1317.70019531 436.342773438 c 0,4,5
 1300.7578125 367.640625 1300.7578125 367.640625 1274.49707031 308.10546875 c 128,-1,6
 1248.23730469 248.5703125 1248.23730469 248.5703125 1209.98534051 198.436523438 c 0,7,8
 1127.63351747 96.1630859375 1127.63351747 96.1630859375 1002.2939349 40.125 c 0,9,10
 876.753953463 -20 876.753953463 -20 710.004477178 -20 c 0,11,12
 535.426231898 -20 535.426231898 -20 409.364332526 40.07421875 c 0,13,14
 288.381835938 96.1162109375 288.381835938 96.1162109375 216.768554688 198.497070312 c 0,15,16
 147.122070312 298.067382812 147.122070312 298.067382812 115.139648438 436.586914062 c 0,17,18
 84 571.458984375 84 571.458984375 84 734.852539062 c 128,-1,19
 84 898.28125 84 898.28125 115.15625 1032.25488281 c 0,20,21
 147.169921875 1169.91699219 147.169921875 1169.91699219 216.899414062 1268.59765625 c 0,22,23
 288.612304688 1370.0859375 288.612304688 1370.0859375 410.895952451 1425.61621094 c 0,24,25
 474.957524891 1455.56445312 474.957524891 1455.56445312 550.488078743 1470.28222656 c 128,-1,26
 626.019733687 1485 626.019733687 1485 712.259514997 1485 c 0,27,28
 865.189176988 1485 865.189176988 1485 982.432425043 1434.95507812 c 0,29,30
 1062.31559828 1400.85644531 1062.31559828 1400.85644531 1127.06755583 1345.02050781 c 1,31,32
 1131.49064515 1357.55371094 1131.49064515 1357.55371094 1134.57480576 1370.80664062 c 0,33,34
 1141.19677717 1399.26855469 1141.19677717 1399.26855469 1144.29304981 1432.67773438 c 0,35,36
 1145.94468883 1450.5 1145.94468883 1450.5 1147.32325688 1469.21972656 c 128,-1,37
 1148.70292601 1487.93945312 1148.70292601 1487.93945312 1149.80842307 1507.546875 c 2,38,-1
 1152.54023402 1556 l 1,39,-1
 1434.95410156 1556 l 1,40,-1
 1477.40136719 1493.74316406 l 1,41,-1
 1472.89550781 1472.4453125 l 2,42,43
 1461.296875 1421.26074219 1461.296875 1421.26074219 1443.8828125 1372.49023438 c 0,44,45
 1425.83691406 1321.95019531 1425.83691406 1321.95019531 1398.93652344 1277.36425781 c 0,46,47
 1371.54296875 1231.95996094 1371.54296875 1231.95996094 1333.55273438 1193.36621094 c 0,48,49
 1309.32519531 1168.75390625 1309.32519531 1168.75390625 1279.35351562 1147.55566406 c 1,50,51
 1311.54101562 1071.04980469 1311.54101562 1071.04980469 1329.19140625 979.641601562 c 0,0,1
409.315884447 948.96875 m 0,52,53
 389.789106764 854.037109375 389.789106764 854.037109375 389.789106764 732.905273438 c 0,54,55
 389.789106764 720.817382812 389.789106764 720.817382812 389.987303447 708.970703125 c 128,-1,56
 390.18550013 697.125 390.18550013 697.125 390.581893497 685.557617188 c 128,-1,57
 390.977185771 673.990234375 390.977185771 673.990234375 391.568472543 662.672851562 c 128,-1,58
 392.159759315 651.35546875 392.159759315 651.35546875 392.947040585 640.310546875 c 128,-1,59
 393.734321856 629.265625 393.734321856 629.265625 394.715395438 618.478515625 c 128,-1,60
 395.695367928 607.692382812 395.695367928 607.692382812 396.870233824 597.171875 c 128,-1,61
 398.045099719 586.65234375 398.045099719 586.65234375 399.411555742 576.3984375 c 128,-1,62
 400.776910672 566.14453125 400.776910672 566.14453125 402.334956822 556.15234375 c 128,-1,63
 403.893002972 546.159179688 403.893002972 546.159179688 405.639335971 536.44140625 c 128,-1,64
 407.38566897 526.72265625 407.38566897 526.72265625 409.322491004 517.260742188 c 0,65,66
 418.809505581 470.926757812 418.809505581 470.926757812 433.719401635 432.209960938 c 128,-1,67
 448.629297689 393.4921875 448.629297689 393.4921875 468.50732394 362.584960938 c 0,68,69
 505.88501624 304.467773438 505.88501624 304.467773438 564.860641566 274.505859375 c 0,70,71
 622.938876353 245 622.938876353 245 710.004477178 245 c 0,72,73
 740.436476818 245 740.436476818 245 767.060897953 248.4765625 c 128,-1,74
 793.685319087 251.953125 793.685319087 251.953125 815.52439141 258.42578125 c 128,-1,75
 837.363463734 264.897460938 837.363463734 264.897460938 856.275831699 274.505859375 c 0,76,77
 885.577009152 289.392578125 885.577009152 289.392578125 909.347398046 311.0703125 c 128,-1,78
 933.118888032 332.749023438 933.118888032 332.749023438 951.928854378 362.372070312 c 0,79,80
 964.953679754 382.8828125 964.953679754 382.8828125 975.736680423 406.659179688 c 128,-1,81
 986.518579999 430.436523438 986.518579999 430.436523438 995.213908936 458.247070312 c 128,-1,82
 1003.91033897 486.057617188 1003.91033897 486.057617188 1010.08086237 517.057617188 c 0,83,84
 1029.09232868 612.557617188 1029.09232868 612.557617188 1029.09232868 732.905273438 c 0,85,86
 1029.09232868 854.140625 1029.09232868 854.140625 1010.08746893 949.172851562 c 0,87,88
 991.815936908 1040.54003906 991.815936908 1040.54003906 952.069794241 1102.31347656 c 0,89,90
 915.205211132 1159.60839844 915.205211132 1159.60839844 856.666719603 1189.58203125 c 0,91,92
 799.213905461 1219 799.213905461 1219 712.259514997 1219 c 0,93,94
 624.066395263 1219 624.066395263 1219 565.988160476 1189.49414062 c 0,95,96
 506.737261979 1159.39257812 506.737261979 1159.39257812 468.79030476 1101.88867188 c 0,97,98
 428.082908178 1040.203125 428.082908178 1040.203125 409.315884447 948.96875 c 0,52,53
EndSplineSet
EndChar

